{
	"asset":{
		"generator":"Khronos glTF Blender I/O v4.0.44",
		"version":"2.0"
	},
	"extensionsUsed":[
		"KHR_materials_unlit"
	],
	"scene":0,
	"scenes":[
		{
			"name":"Scene",
			"nodes":[
				0,
				1,
				2,
				3,
				4,
				5,
				6,
				7,
				8,
				9
			]
		}
	],
	"nodes":[
		{
			"mesh":0,
			"name":"Body",
			"translation":[
				0.1733826845884323,
				0.4073999524116516,
				-0.1733827143907547
			]
		},
		{
			"mesh":1,
			"name":"eye1",
			"scale":[
				1.602553367614746,
				1.602553367614746,
				1.602553367614746
			],
			"translation":[
				0.007445693016052246,
				1.545461893081665,
				0.1733827441930771
			]
		},
		{
			"mesh":2,
			"name":"eye2",
			"scale":[
				1.602553367614746,
				1.602553367614746,
				1.602553367614746
			],
			"translation":[
				0.33931976556777954,
				1.545461893081665,
				0.1733826845884323
			]
		},
		{
			"mesh":3,
			"name":"eye3",
			"scale":[
				1.602553367614746,
				1.602553367614746,
				1.602553367614746
			],
			"translation":[
				0.24359743297100067,
				1.6925475597381592,
				0.15836893022060394
			]
		},
		{
			"mesh":4,
			"name":"eye4",
			"scale":[
				1.602553367614746,
				1.602553367614746,
				1.602553367614746
			],
			"translation":[
				0.1031680554151535,
				1.6925475597381592,
				0.15836893022060394
			]
		},
		{
			"mesh":5,
			"name":"Chains",
			"rotation":[
				0,
				0,
				0.4022614657878876,
				0.9155248403549194
			],
			"translation":[
				0.16020290553569794,
				0.8060523271560669,
				-0.13580633699893951
			]
		},
		{
			"mesh":6,
			"name":"RMagic",
			"translation":[
				0.1733826845884323,
				0.4073999524116516,
				-0.1733827143907547
			]
		},
		{
			"mesh":7,
			"name":"LMagic",
			"translation":[
				0.1733826845884323,
				0.4073999524116516,
				-0.1733827143907547
			]
		},
		{
			"mesh":8,
			"name":"Halo",
			"translation":[
				0.1733826845884323,
				0.4073999524116516,
				-0.1733827143907547
			]
		},
		{
			"mesh":9,
			"name":"Chains.001",
			"rotation":[
				0,
				0,
				-0.3902595639228821,
				0.9207049012184143
			],
			"translation":[
				0.16020290553569794,
				0.8060523271560669,
				-0.13580633699893951
			]
		}
	],
	"materials":[
		{
			"doubleSided":true,
			"name":"Cloak",
			"pbrMetallicRoughness":{
				"baseColorFactor":[
					0.23543205857276917,
					0.10308034718036652,
					0.18939678370952606,
					1
				],
				"metallicFactor":0
			}
		},
		{
			"doubleSided":true,
			"name":"Belt",
			"pbrMetallicRoughness":{
				"baseColorFactor":[
					0.2300238013267517,
					0.053769923746585846,
					0.04706742241978645,
					1
				],
				"metallicFactor":0
			}
		},
		{
			"doubleSided":true,
			"name":"Scarf",
			"pbrMetallicRoughness":{
				"baseColorFactor":[
					0.16802285611629486,
					0.027408123016357422,
					0.3015754520893097,
					1
				],
				"metallicFactor":0
			}
		},
		{
			"doubleSided":true,
			"extensions":{
				"KHR_materials_unlit":{}
			},
			"name":"Dark",
			"pbrMetallicRoughness":{
				"baseColorFactor":[
					0.016383901238441467,
					0,
					0.024550888687372208,
					1
				],
				"metallicFactor":0,
				"roughnessFactor":0.9
			}
		},
		{
			"doubleSided":true,
			"name":"Eye",
			"pbrMetallicRoughness":{
				"baseColorFactor":[
					0.8913213014602661,
					0,
					1,
					1
				],
				"metallicFactor":0
			}
		},
		{
			"doubleSided":true,
			"name":"Chains",
			"pbrMetallicRoughness":{
				"baseColorTexture":{
					"index":0
				},
				"metallicFactor":0
			}
		},
		{
			"doubleSided":true,
			"name":"Magic",
			"pbrMetallicRoughness":{
				"baseColorFactor":[
					0.8000858426094055,
					0,
					0.6403555274009705,
					1
				],
				"metallicFactor":0
			}
		}
	],
	"meshes":[
		{
			"name":"Cube.001",
			"primitives":[
				{
					"attributes":{
						"POSITION":0,
						"NORMAL":1,
						"TEXCOORD_0":2,
						"TANGENT":3
					},
					"indices":4,
					"material":0
				},
				{
					"attributes":{
						"POSITION":5,
						"NORMAL":6,
						"TEXCOORD_0":7,
						"TANGENT":8
					},
					"indices":9,
					"material":1
				},
				{
					"attributes":{
						"POSITION":10,
						"NORMAL":11,
						"TEXCOORD_0":12,
						"TANGENT":13
					},
					"indices":14,
					"material":2
				},
				{
					"attributes":{
						"POSITION":15,
						"NORMAL":16,
						"TEXCOORD_0":17,
						"TANGENT":18
					},
					"indices":19,
					"material":3
				}
			]
		},
		{
			"name":"Cube.002",
			"primitives":[
				{
					"attributes":{
						"POSITION":20,
						"NORMAL":21,
						"TEXCOORD_0":22,
						"TANGENT":23
					},
					"indices":24,
					"material":4
				}
			]
		},
		{
			"name":"Cube.003",
			"primitives":[
				{
					"attributes":{
						"POSITION":25,
						"NORMAL":26,
						"TEXCOORD_0":27,
						"TANGENT":28
					},
					"indices":29,
					"material":4
				}
			]
		},
		{
			"name":"Cube.004",
			"primitives":[
				{
					"attributes":{
						"POSITION":30,
						"NORMAL":31,
						"TEXCOORD_0":32,
						"TANGENT":33
					},
					"indices":29,
					"material":4
				}
			]
		},
		{
			"name":"Cube.005",
			"primitives":[
				{
					"attributes":{
						"POSITION":34,
						"NORMAL":35,
						"TEXCOORD_0":36,
						"TANGENT":37
					},
					"indices":24,
					"material":4
				}
			]
		},
		{
			"name":"Cube.006",
			"primitives":[
				{
					"attributes":{
						"POSITION":38,
						"NORMAL":39,
						"TEXCOORD_0":40,
						"TANGENT":41
					},
					"indices":42,
					"material":5
				}
			]
		},
		{
			"name":"Cube.008",
			"primitives":[
				{
					"attributes":{
						"POSITION":43,
						"NORMAL":44,
						"TEXCOORD_0":45,
						"TANGENT":46
					},
					"indices":24,
					"material":6
				}
			]
		},
		{
			"name":"Cube.009",
			"primitives":[
				{
					"attributes":{
						"POSITION":47,
						"NORMAL":48,
						"TEXCOORD_0":49,
						"TANGENT":50
					},
					"indices":29,
					"material":6
				}
			]
		},
		{
			"name":"Cube.010",
			"primitives":[
				{
					"attributes":{
						"POSITION":51,
						"NORMAL":52,
						"TEXCOORD_0":53,
						"TANGENT":54
					},
					"indices":29,
					"material":6
				}
			]
		},
		{
			"name":"Cube.012",
			"primitives":[
				{
					"attributes":{
						"POSITION":55,
						"NORMAL":56,
						"TEXCOORD_0":57,
						"TANGENT":58
					},
					"indices":42,
					"material":5
				}
			]
		}
	],
	"textures":[
		{
			"sampler":0,
			"source":0
		}
	],
	"images":[
		{
			"mimeType":"image/png",
			"name":"tex_infernusChains.png",
			"uri":"../../Textures/Entity/Characters/Prophets/tex_infernusChains.png"
		}
	],
	"accessors":[
		{
			"bufferView":0,
			"componentType":5126,
			"count":1126,
			"max":[
				1.436735987663269,
				1.5994654893875122,
				0.4050184488296509
			],
			"min":[
				-1.436735987663269,
				-0.6293110847473145,
				-0.32935774326324463
			],
			"type":"VEC3"
		},
		{
			"bufferView":1,
			"componentType":5126,
			"count":1126,
			"type":"VEC3"
		},
		{
			"bufferView":2,
			"componentType":5126,
			"count":1126,
			"type":"VEC2"
		},
		{
			"bufferView":3,
			"componentType":5126,
			"count":1126,
			"type":"VEC4"
		},
		{
			"bufferView":4,
			"componentType":5123,
			"count":1686,
			"type":"SCALAR"
		},
		{
			"bufferView":5,
			"componentType":5126,
			"count":90,
			"max":[
				0.25483599305152893,
				0.01807066984474659,
				0.15593571960926056
			],
			"min":[
				-0.25483599305152893,
				-0.08303093910217285,
				-0.27737167477607727
			],
			"type":"VEC3"
		},
		{
			"bufferView":6,
			"componentType":5126,
			"count":90,
			"type":"VEC3"
		},
		{
			"bufferView":7,
			"componentType":5126,
			"count":90,
			"type":"VEC2"
		},
		{
			"bufferView":8,
			"componentType":5126,
			"count":90,
			"type":"VEC4"
		},
		{
			"bufferView":9,
			"componentType":5123,
			"count":144,
			"type":"SCALAR"
		},
		{
			"bufferView":10,
			"componentType":5126,
			"count":48,
			"max":[
				0.3062021732330322,
				1.1258255243301392,
				0.3223225176334381
			],
			"min":[
				-0.3062021732330322,
				0.5278185606002808,
				-0.1853221207857132
			],
			"type":"VEC3"
		},
		{
			"bufferView":11,
			"componentType":5126,
			"count":48,
			"type":"VEC3"
		},
		{
			"bufferView":12,
			"componentType":5126,
			"count":48,
			"type":"VEC2"
		},
		{
			"bufferView":13,
			"componentType":5126,
			"count":48,
			"type":"VEC4"
		},
		{
			"bufferView":14,
			"componentType":5123,
			"count":72,
			"type":"SCALAR"
		},
		{
			"bufferView":15,
			"componentType":5126,
			"count":1108,
			"max":[
				1.7576687335968018,
				1.5138942003250122,
				0.4050184488296509
			],
			"min":[
				-1.7576687335968018,
				-0.3776625096797943,
				-0.1853221207857132
			],
			"type":"VEC3"
		},
		{
			"bufferView":16,
			"componentType":5126,
			"count":1108,
			"type":"VEC3"
		},
		{
			"bufferView":17,
			"componentType":5126,
			"count":1108,
			"type":"VEC2"
		},
		{
			"bufferView":18,
			"componentType":5126,
			"count":1108,
			"type":"VEC4"
		},
		{
			"bufferView":19,
			"componentType":5123,
			"count":1650,
			"type":"SCALAR"
		},
		{
			"bufferView":20,
			"componentType":5126,
			"count":4,
			"max":[
				0.10086043179035187,
				0.1008603572845459,
				7.61475060784278e-09
			],
			"min":[
				-0.10086043179035187,
				-0.10086047649383545,
				-7.61475060784278e-09
			],
			"type":"VEC3"
		},
		{
			"bufferView":21,
			"componentType":5126,
			"count":4,
			"type":"VEC3"
		},
		{
			"bufferView":22,
			"componentType":5126,
			"count":4,
			"type":"VEC2"
		},
		{
			"bufferView":23,
			"componentType":5126,
			"count":4,
			"type":"VEC4"
		},
		{
			"bufferView":24,
			"componentType":5123,
			"count":6,
			"type":"SCALAR"
		},
		{
			"bufferView":25,
			"componentType":5126,
			"count":4,
			"max":[
				0.10086043179035187,
				0.1008603572845459,
				7.61475060784278e-09
			],
			"min":[
				-0.10086043179035187,
				-0.10086047649383545,
				-7.61475060784278e-09
			],
			"type":"VEC3"
		},
		{
			"bufferView":26,
			"componentType":5126,
			"count":4,
			"type":"VEC3"
		},
		{
			"bufferView":27,
			"componentType":5126,
			"count":4,
			"type":"VEC2"
		},
		{
			"bufferView":28,
			"componentType":5126,
			"count":4,
			"type":"VEC4"
		},
		{
			"bufferView":29,
			"componentType":5123,
			"count":6,
			"type":"SCALAR"
		},
		{
			"bufferView":30,
			"componentType":5126,
			"count":4,
			"max":[
				0.04892493784427643,
				0.048924922943115234,
				3.6937302105854997e-09
			],
			"min":[
				-0.04892493784427643,
				-0.048924922943115234,
				-3.6937302105854997e-09
			],
			"type":"VEC3"
		},
		{
			"bufferView":31,
			"componentType":5126,
			"count":4,
			"type":"VEC3"
		},
		{
			"bufferView":32,
			"componentType":5126,
			"count":4,
			"type":"VEC2"
		},
		{
			"bufferView":33,
			"componentType":5126,
			"count":4,
			"type":"VEC4"
		},
		{
			"bufferView":34,
			"componentType":5126,
			"count":4,
			"max":[
				0.04892493784427643,
				0.048924922943115234,
				3.6937302105854997e-09
			],
			"min":[
				-0.04892493784427643,
				-0.048924922943115234,
				-3.6937302105854997e-09
			],
			"type":"VEC3"
		},
		{
			"bufferView":35,
			"componentType":5126,
			"count":4,
			"type":"VEC3"
		},
		{
			"bufferView":36,
			"componentType":5126,
			"count":4,
			"type":"VEC2"
		},
		{
			"bufferView":37,
			"componentType":5126,
			"count":4,
			"type":"VEC4"
		},
		{
			"bufferView":38,
			"componentType":5126,
			"count":32,
			"max":[
				0.6059268712997437,
				0.129093199968338,
				0.6058139204978943
			],
			"min":[
				-0.6059268712997437,
				-0.129093199968338,
				-0.6058140397071838
			],
			"type":"VEC3"
		},
		{
			"bufferView":39,
			"componentType":5126,
			"count":32,
			"type":"VEC3"
		},
		{
			"bufferView":40,
			"componentType":5126,
			"count":32,
			"type":"VEC2"
		},
		{
			"bufferView":41,
			"componentType":5126,
			"count":32,
			"type":"VEC4"
		},
		{
			"bufferView":42,
			"componentType":5123,
			"count":48,
			"type":"SCALAR"
		},
		{
			"bufferView":43,
			"componentType":5126,
			"count":4,
			"max":[
				-1.2462033033370972,
				0.9519194960594177,
				0.38030359148979187
			],
			"min":[
				-1.2462033033370972,
				0.19131246209144592,
				-0.38030341267585754
			],
			"type":"VEC3"
		},
		{
			"bufferView":44,
			"componentType":5126,
			"count":4,
			"type":"VEC3"
		},
		{
			"bufferView":45,
			"componentType":5126,
			"count":4,
			"type":"VEC2"
		},
		{
			"bufferView":46,
			"componentType":5126,
			"count":4,
			"type":"VEC4"
		},
		{
			"bufferView":47,
			"componentType":5126,
			"count":4,
			"max":[
				1.2462033033370972,
				0.9519194960594177,
				0.38030341267585754
			],
			"min":[
				1.2462033033370972,
				0.19131246209144592,
				-0.38030359148979187
			],
			"type":"VEC3"
		},
		{
			"bufferView":48,
			"componentType":5126,
			"count":4,
			"type":"VEC3"
		},
		{
			"bufferView":49,
			"componentType":5126,
			"count":4,
			"type":"VEC2"
		},
		{
			"bufferView":50,
			"componentType":5126,
			"count":4,
			"type":"VEC4"
		},
		{
			"bufferView":51,
			"componentType":5126,
			"count":4,
			"max":[
				0.6173210144042969,
				1.9958510398864746,
				0.6160933971405029
			],
			"min":[
				-0.2802450656890869,
				1.0108938217163086,
				-0.6448509097099304
			],
			"type":"VEC3"
		},
		{
			"bufferView":52,
			"componentType":5126,
			"count":4,
			"type":"VEC3"
		},
		{
			"bufferView":53,
			"componentType":5126,
			"count":4,
			"type":"VEC2"
		},
		{
			"bufferView":54,
			"componentType":5126,
			"count":4,
			"type":"VEC4"
		},
		{
			"bufferView":55,
			"componentType":5126,
			"count":32,
			"max":[
				0.6625307202339172,
				0.14115269482135773,
				0.6624072194099426
			],
			"min":[
				-0.6625307202339172,
				-0.14115269482135773,
				-0.6624073386192322
			],
			"type":"VEC3"
		},
		{
			"bufferView":56,
			"componentType":5126,
			"count":32,
			"type":"VEC3"
		},
		{
			"bufferView":57,
			"componentType":5126,
			"count":32,
			"type":"VEC2"
		},
		{
			"bufferView":58,
			"componentType":5126,
			"count":32,
			"type":"VEC4"
		}
	],
	"bufferViews":[
		{
			"buffer":0,
			"byteLength":13512,
			"byteOffset":0,
			"target":34962
		},
		{
			"buffer":0,
			"byteLength":13512,
			"byteOffset":13512,
			"target":34962
		},
		{
			"buffer":0,
			"byteLength":9008,
			"byteOffset":27024,
			"target":34962
		},
		{
			"buffer":0,
			"byteLength":18016,
			"byteOffset":36032,
			"target":34962
		},
		{
			"buffer":0,
			"byteLength":3372,
			"byteOffset":54048,
			"target":34963
		},
		{
			"buffer":0,
			"byteLength":1080,
			"byteOffset":57420,
			"target":34962
		},
		{
			"buffer":0,
			"byteLength":1080,
			"byteOffset":58500,
			"target":34962
		},
		{
			"buffer":0,
			"byteLength":720,
			"byteOffset":59580,
			"target":34962
		},
		{
			"buffer":0,
			"byteLength":1440,
			"byteOffset":60300,
			"target":34962
		},
		{
			"buffer":0,
			"byteLength":288,
			"byteOffset":61740,
			"target":34963
		},
		{
			"buffer":0,
			"byteLength":576,
			"byteOffset":62028,
			"target":34962
		},
		{
			"buffer":0,
			"byteLength":576,
			"byteOffset":62604,
			"target":34962
		},
		{
			"buffer":0,
			"byteLength":384,
			"byteOffset":63180,
			"target":34962
		},
		{
			"buffer":0,
			"byteLength":768,
			"byteOffset":63564,
			"target":34962
		},
		{
			"buffer":0,
			"byteLength":144,
			"byteOffset":64332,
			"target":34963
		},
		{
			"buffer":0,
			"byteLength":13296,
			"byteOffset":64476,
			"target":34962
		},
		{
			"buffer":0,
			"byteLength":13296,
			"byteOffset":77772,
			"target":34962
		},
		{
			"buffer":0,
			"byteLength":8864,
			"byteOffset":91068,
			"target":34962
		},
		{
			"buffer":0,
			"byteLength":17728,
			"byteOffset":99932,
			"target":34962
		},
		{
			"buffer":0,
			"byteLength":3300,
			"byteOffset":117660,
			"target":34963
		},
		{
			"buffer":0,
			"byteLength":48,
			"byteOffset":120960,
			"target":34962
		},
		{
			"buffer":0,
			"byteLength":48,
			"byteOffset":121008,
			"target":34962
		},
		{
			"buffer":0,
			"byteLength":32,
			"byteOffset":121056,
			"target":34962
		},
		{
			"buffer":0,
			"byteLength":64,
			"byteOffset":121088,
			"target":34962
		},
		{
			"buffer":0,
			"byteLength":12,
			"byteOffset":121152,
			"target":34963
		},
		{
			"buffer":0,
			"byteLength":48,
			"byteOffset":121164,
			"target":34962
		},
		{
			"buffer":0,
			"byteLength":48,
			"byteOffset":121212,
			"target":34962
		},
		{
			"buffer":0,
			"byteLength":32,
			"byteOffset":121260,
			"target":34962
		},
		{
			"buffer":0,
			"byteLength":64,
			"byteOffset":121292,
			"target":34962
		},
		{
			"buffer":0,
			"byteLength":12,
			"byteOffset":121356,
			"target":34963
		},
		{
			"buffer":0,
			"byteLength":48,
			"byteOffset":121368,
			"target":34962
		},
		{
			"buffer":0,
			"byteLength":48,
			"byteOffset":121416,
			"target":34962
		},
		{
			"buffer":0,
			"byteLength":32,
			"byteOffset":121464,
			"target":34962
		},
		{
			"buffer":0,
			"byteLength":64,
			"byteOffset":121496,
			"target":34962
		},
		{
			"buffer":0,
			"byteLength":48,
			"byteOffset":121560,
			"target":34962
		},
		{
			"buffer":0,
			"byteLength":48,
			"byteOffset":121608,
			"target":34962
		},
		{
			"buffer":0,
			"byteLength":32,
			"byteOffset":121656,
			"target":34962
		},
		{
			"buffer":0,
			"byteLength":64,
			"byteOffset":121688,
			"target":34962
		},
		{
			"buffer":0,
			"byteLength":384,
			"byteOffset":121752,
			"target":34962
		},
		{
			"buffer":0,
			"byteLength":384,
			"byteOffset":122136,
			"target":34962
		},
		{
			"buffer":0,
			"byteLength":256,
			"byteOffset":122520,
			"target":34962
		},
		{
			"buffer":0,
			"byteLength":512,
			"byteOffset":122776,
			"target":34962
		},
		{
			"buffer":0,
			"byteLength":96,
			"byteOffset":123288,
			"target":34963
		},
		{
			"buffer":0,
			"byteLength":48,
			"byteOffset":123384,
			"target":34962
		},
		{
			"buffer":0,
			"byteLength":48,
			"byteOffset":123432,
			"target":34962
		},
		{
			"buffer":0,
			"byteLength":32,
			"byteOffset":123480,
			"target":34962
		},
		{
			"buffer":0,
			"byteLength":64,
			"byteOffset":123512,
			"target":34962
		},
		{
			"buffer":0,
			"byteLength":48,
			"byteOffset":123576,
			"target":34962
		},
		{
			"buffer":0,
			"byteLength":48,
			"byteOffset":123624,
			"target":34962
		},
		{
			"buffer":0,
			"byteLength":32,
			"byteOffset":123672,
			"target":34962
		},
		{
			"buffer":0,
			"byteLength":64,
			"byteOffset":123704,
			"target":34962
		},
		{
			"buffer":0,
			"byteLength":48,
			"byteOffset":123768,
			"target":34962
		},
		{
			"buffer":0,
			"byteLength":48,
			"byteOffset":123816,
			"target":34962
		},
		{
			"buffer":0,
			"byteLength":32,
			"byteOffset":123864,
			"target":34962
		},
		{
			"buffer":0,
			"byteLength":64,
			"byteOffset":123896,
			"target":34962
		},
		{
			"buffer":0,
			"byteLength":384,
			"byteOffset":123960,
			"target":34962
		},
		{
			"buffer":0,
			"byteLength":384,
			"byteOffset":124344,
			"target":34962
		},
		{
			"buffer":0,
			"byteLength":256,
			"byteOffset":124728,
			"target":34962
		},
		{
			"buffer":0,
			"byteLength":512,
			"byteOffset":124984,
			"target":34962
		}
	],
	"samplers":[
		{
			"magFilter":9728,
			"minFilter":9984
		}
	],
	"buffers":[
		{
			"byteLength":125496,
			"uri":"Infernus-d1c98e7d062129a6f3e51c17df2235f6.bin"
		}
	]
}
