{
	"asset":{
		"generator":"Khronos glTF Blender I/O v4.0.44",
		"version":"2.0"
	},
	"extensionsUsed":[
		"KHR_materials_unlit"
	],
	"scene":0,
	"scenes":[
		{
			"name":"Scene",
			"nodes":[
				29
			]
		}
	],
	"nodes":[
		{
			"mesh":1,
			"name":"Eye",
			"rotation":[
				-0.006811507977545261,
				-1.2024227658002928e-07,
				-1.8461617790066498e-09,
				0.9999768137931824
			],
			"scale":[
				1,
				1,
				0.9999998807907104
			],
			"translation":[
				-2.5717007190451113e-08,
				0.20171095430850983,
				0.11438755691051483
			]
		},
		{
			"children":[
				0
			],
			"name":"Head",
			"rotation":[
				-0.016340654343366623,
				1.1665171228969484e-07,
				-4.492055172278242e-09,
				0.9998664855957031
			],
			"scale":[
				1,
				0.9999999403953552,
				0.9999999403953552
			],
			"translation":[
				1.5265566588595902e-16,
				0.3368076980113983,
				3.725290298461914e-09
			]
		},
		{
			"name":"PointerB.r",
			"rotation":[
				-0.05138159915804863,
				0.00704225292429328,
				0.11763780564069748,
				0.9917014241218567
			],
			"scale":[
				0.9999999403953552,
				1,
				0.9999999403953552
			],
			"translation":[
				5.606852937489748e-08,
				0.06252238154411316,
				1.1641532182693481e-08
			]
		},
		{
			"children":[
				2
			],
			"name":"PointerA.r",
			"rotation":[
				0.1417756825685501,
				-0.002483236836269498,
				0.026607194915413857,
				0.9895380735397339
			],
			"scale":[
				0.9999999403953552,
				1,
				1.0000001192092896
			],
			"translation":[
				-8.270964713119611e-08,
				0.06676479429006577,
				0.01631837710738182
			]
		},
		{
			"name":"PinkyB.r",
			"rotation":[
				0.02741018310189247,
				-0.007173261605203152,
				0.16956622898578644,
				0.9851114749908447
			],
			"scale":[
				0.9999998807907104,
				0.9999999403953552,
				0.9999998211860657
			],
			"translation":[
				4.353933036327362e-08,
				0.06499606370925903,
				3.725290298461914e-09
			]
		},
		{
			"children":[
				4
			],
			"name":"PinkyA.r",
			"rotation":[
				0.04583917185664177,
				-0.005378203000873327,
				0.025454306975007057,
				0.9986100196838379
			],
			"scale":[
				0.9999999403953552,
				0.9999998807907104,
				1
			],
			"translation":[
				-9.696304203998807e-08,
				0.07163567841053009,
				-0.01919621042907238
			]
		},
		{
			"name":"ThumbB.r",
			"rotation":[
				-0.14751173555850983,
				0.052609678357839584,
				0.04807037115097046,
				0.9864895939826965
			],
			"translation":[
				-7.916241884231567e-08,
				0.03575678914785385,
				-1.30385160446167e-08
			]
		},
		{
			"children":[
				6
			],
			"name":"ThumbA.r",
			"rotation":[
				0.27244675159454346,
				-0.03415586054325104,
				0.17865724861621857,
				0.9448215961456299
			],
			"scale":[
				0.9999998807907104,
				1,
				0.9999999403953552
			],
			"translation":[
				-7.034689986085141e-08,
				0.03315344825387001,
				0.04712209850549698
			]
		},
		{
			"children":[
				3,
				5,
				7
			],
			"name":"Hand.r",
			"rotation":[
				-0.06149129197001457,
				-1.1749519543066689e-12,
				2.4699106759840106e-08,
				0.9981076717376709
			],
			"scale":[
				0.9999999403953552,
				1,
				1
			],
			"translation":[
				-1.2500821355843073e-07,
				0.21482063829898834,
				1.6311787476297468e-09
			]
		},
		{
			"children":[
				8
			],
			"name":"Forearm.r",
			"rotation":[
				-0.005644724704325199,
				2.019489329541102e-06,
				-0.0003596497408580035,
				0.9999840259552002
			],
			"translation":[
				-8.599466383429899e-08,
				0.30791541934013367,
				1.079356160005318e-09
			]
		},
		{
			"children":[
				9
			],
			"name":"UpperArm.r",
			"rotation":[
				-0.016364099457859993,
				0.016375869512557983,
				0.7071714997291565,
				0.7066630125045776
			],
			"scale":[
				0.9999998211860657,
				0.9999999403953552,
				0.9999999403953552
			],
			"translation":[
				-0.20125184953212738,
				0.2759492099285126,
				-0.026461323723196983
			]
		},
		{
			"name":"PointerB.l",
			"rotation":[
				-0.05138159915804863,
				-0.007042252458631992,
				-0.11763780564069748,
				0.9917014241218567
			],
			"scale":[
				0.9999999403953552,
				1,
				0.9999999403953552
			],
			"translation":[
				-5.6035787565633655e-08,
				0.06252241134643555,
				1.932494342327118e-08
			]
		},
		{
			"children":[
				11
			],
			"name":"PointerA.l",
			"rotation":[
				0.1417756825685501,
				0.002483236836269498,
				-0.026607194915413857,
				0.9895380735397339
			],
			"scale":[
				0.9999999403953552,
				1,
				1.0000001192092896
			],
			"translation":[
				8.270964002576875e-08,
				0.06676482409238815,
				0.016318371519446373
			]
		},
		{
			"name":"PinkyB.l",
			"rotation":[
				0.02741018310189247,
				0.007173261605203152,
				-0.16956619918346405,
				0.9851114749908447
			],
			"scale":[
				0.9999998807907104,
				0.9999999403953552,
				0.9999998211860657
			],
			"translation":[
				-4.348112270236015e-08,
				0.06499603390693665,
				2.7939677238464355e-09
			]
		},
		{
			"children":[
				13
			],
			"name":"PinkyA.l",
			"rotation":[
				0.04583917185664177,
				0.005378203000873327,
				-0.025454306975007057,
				0.9986100196838379
			],
			"scale":[
				0.9999999403953552,
				0.9999998807907104,
				1
			],
			"translation":[
				9.696303493456071e-08,
				0.07163570076227188,
				-0.01919621415436268
			]
		},
		{
			"name":"ThumbB.l",
			"rotation":[
				-0.14751173555850983,
				-0.05260968580842018,
				-0.04807036742568016,
				0.9864895939826965
			],
			"scale":[
				1,
				1.0000001192092896,
				1
			],
			"translation":[
				7.962808012962341e-08,
				0.03575678542256355,
				-2.7939677238464355e-08
			]
		},
		{
			"children":[
				15
			],
			"name":"ThumbA.l",
			"rotation":[
				0.27244675159454346,
				0.03415586054325104,
				-0.17865724861621857,
				0.9448215961456299
			],
			"scale":[
				0.9999998807907104,
				1,
				0.9999999403953552
			],
			"translation":[
				7.034689986085141e-08,
				0.0331534743309021,
				0.04712209478020668
			]
		},
		{
			"children":[
				12,
				14,
				16
			],
			"name":"Hand.l",
			"rotation":[
				-0.06149129197001457,
				1.6222189607242865e-12,
				-2.4699076561773836e-08,
				0.9981076717376709
			],
			"scale":[
				0.9999999403953552,
				1,
				1
			],
			"translation":[
				1.25008199347576e-07,
				0.21482060849666595,
				6.032223609508947e-10
			]
		},
		{
			"children":[
				17
			],
			"name":"Forearm.l",
			"rotation":[
				-0.00564472284168005,
				-2.019517069129506e-06,
				0.0003596548631321639,
				0.9999840259552002
			],
			"translation":[
				8.084325031632034e-08,
				0.30791541934013367,
				-5.940015146421729e-10
			]
		},
		{
			"children":[
				18
			],
			"name":"UpperArm.l",
			"rotation":[
				-0.016364095732569695,
				-0.01637587510049343,
				-0.7071714997291565,
				0.7066630125045776
			],
			"scale":[
				0.9999998211860657,
				0.9999999403953552,
				0.9999999403953552
			],
			"translation":[
				0.20125184953212738,
				0.2759492099285126,
				-0.026461323723196983
			]
		},
		{
			"children":[
				1,
				10,
				19
			],
			"name":"Body",
			"rotation":[
				-0.6883838772773743,
				-9.112938641919754e-06,
				-8.757422619964927e-06,
				0.725346565246582
			],
			"translation":[
				-2.0741351344777392e-12,
				0.17457818984985352,
				6.247139339166097e-08
			]
		},
		{
			"name":"Foot.r",
			"rotation":[
				0.6542072296142578,
				0.002165348269045353,
				0.00667336443439126,
				0.7562828063964844
			],
			"translation":[
				4.212779458612204e-09,
				0.39588233828544617,
				-2.494175532774534e-09
			]
		},
		{
			"children":[
				21
			],
			"name":"Leg.r",
			"rotation":[
				0.0065543027594685555,
				0.0017297797603532672,
				0.09548381716012955,
				0.9954079389572144
			],
			"scale":[
				0.9999998807907104,
				0.9999999403953552,
				1
			],
			"translation":[
				1.1928932508453727e-08,
				0.3758108913898468,
				-2.6775524020195007e-09
			]
		},
		{
			"children":[
				22
			],
			"name":"Thigh.r",
			"rotation":[
				-0.07067068666219711,
				0.6966665387153625,
				0.710561990737915,
				0.06901524215936661
			],
			"scale":[
				1,
				1.0000001192092896,
				0.9999999403953552
			],
			"translation":[
				-0.07446476817131042,
				0.16697226464748383,
				0.06319118291139603
			]
		},
		{
			"name":"Foot.l",
			"rotation":[
				0.6542073488235474,
				-0.0021653391886502504,
				-0.006673354189842939,
				0.7562827467918396
			],
			"scale":[
				1,
				0.9999999403953552,
				0.9999999403953552
			],
			"translation":[
				2.5043846108019352e-08,
				0.3958824574947357,
				-6.879190550534986e-10
			]
		},
		{
			"children":[
				24
			],
			"name":"Leg.l",
			"rotation":[
				0.006554304156452417,
				-0.0017297490267083049,
				-0.09548377245664597,
				0.9954079389572144
			],
			"scale":[
				1,
				1,
				1.0000001192092896
			],
			"translation":[
				1.0270014172419906e-08,
				0.3758109211921692,
				-4.0745362639427185e-09
			]
		},
		{
			"children":[
				25
			],
			"name":"Thigh.l",
			"rotation":[
				-0.07065288722515106,
				-0.696668267250061,
				-0.7105638384819031,
				0.0689975693821907
			],
			"scale":[
				1,
				0.999999463558197,
				0.9999998807907104
			],
			"translation":[
				0.07446156442165375,
				0.16697226464748383,
				0.06319494545459747
			]
		},
		{
			"children":[
				20,
				23,
				26
			],
			"name":"Base",
			"rotation":[
				0.70499187707901,
				8.912811608752236e-06,
				8.966183486336377e-06,
				0.7092154622077942
			],
			"scale":[
				1,
				0.9999999403953552,
				1
			],
			"translation":[
				2.733640158680828e-08,
				0.8631766438484192,
				-0.18104080855846405
			]
		},
		{
			"mesh":0,
			"name":"Skeleton",
			"skin":0
		},
		{
			"children":[
				28,
				27
			],
			"name":"Armature",
			"scale":[
				0.8487027883529663,
				0.8487027883529663,
				0.8487027883529663
			]
		}
	],
	"materials":[
		{
			"doubleSided":true,
			"name":"Bone",
			"pbrMetallicRoughness":{
				"metallicFactor":0,
				"roughnessFactor":0.5
			}
		},
		{
			"doubleSided":true,
			"name":"Cloth",
			"pbrMetallicRoughness":{
				"baseColorFactor":[
					0.5222943425178528,
					0.24715888500213623,
					0.8000473976135254,
					1
				],
				"metallicFactor":0
			}
		},
		{
			"doubleSided":true,
			"name":"Leather",
			"pbrMetallicRoughness":{
				"baseColorFactor":[
					0.18867969512939453,
					0.05559011548757553,
					0.03801973536610603,
					1
				],
				"metallicFactor":0,
				"roughnessFactor":0.5
			}
		},
		{
			"doubleSided":true,
			"name":"Ribs",
			"pbrMetallicRoughness":{
				"metallicFactor":0
			}
		},
		{
			"doubleSided":true,
			"extensions":{
				"KHR_materials_unlit":{}
			},
			"name":"Dark",
			"pbrMetallicRoughness":{
				"baseColorFactor":[
					0.00619935616850853,
					0,
					0.017388733103871346,
					1
				],
				"metallicFactor":0,
				"roughnessFactor":0.9
			}
		},
		{
			"doubleSided":true,
			"name":"Eye",
			"pbrMetallicRoughness":{
				"baseColorFactor":[
					0.8001194596290588,
					0,
					0.5713019967079163,
					1
				],
				"metallicFactor":0
			}
		}
	],
	"meshes":[
		{
			"name":"Cube",
			"primitives":[
				{
					"attributes":{
						"POSITION":0,
						"NORMAL":1,
						"TEXCOORD_0":2,
						"TANGENT":3,
						"JOINTS_0":4,
						"WEIGHTS_0":5
					},
					"indices":6,
					"material":0
				},
				{
					"attributes":{
						"POSITION":7,
						"NORMAL":8,
						"TEXCOORD_0":9,
						"TANGENT":10,
						"JOINTS_0":11,
						"WEIGHTS_0":12
					},
					"indices":13,
					"material":1
				},
				{
					"attributes":{
						"POSITION":14,
						"NORMAL":15,
						"TEXCOORD_0":16,
						"TANGENT":17,
						"JOINTS_0":18,
						"WEIGHTS_0":19
					},
					"indices":20,
					"material":2
				},
				{
					"attributes":{
						"POSITION":21,
						"NORMAL":22,
						"TEXCOORD_0":23,
						"TANGENT":24,
						"JOINTS_0":25,
						"WEIGHTS_0":26
					},
					"indices":27,
					"material":3
				},
				{
					"attributes":{
						"POSITION":28,
						"NORMAL":29,
						"TEXCOORD_0":30,
						"TANGENT":31,
						"JOINTS_0":32,
						"WEIGHTS_0":33
					},
					"indices":34,
					"material":4
				}
			]
		},
		{
			"name":"Plane",
			"primitives":[
				{
					"attributes":{
						"POSITION":36,
						"NORMAL":37,
						"TEXCOORD_0":38,
						"TANGENT":39
					},
					"indices":40,
					"material":5
				}
			]
		}
	],
	"skins":[
		{
			"inverseBindMatrices":35,
			"joints":[
				27,
				20,
				1,
				10,
				9,
				8,
				3,
				2,
				5,
				4,
				7,
				6,
				19,
				18,
				17,
				12,
				11,
				14,
				13,
				16,
				15,
				23,
				22,
				21,
				26,
				25,
				24
			],
			"name":"Armature"
		}
	],
	"accessors":[
		{
			"bufferView":0,
			"componentType":5126,
			"count":2304,
			"max":[
				0.6444266438484192,
				0.9916353821754456,
				0.03011988289654255
			],
			"min":[
				-0.6444266438484192,
				0.07608896493911743,
				-0.055317629128694534
			],
			"type":"VEC3"
		},
		{
			"bufferView":1,
			"componentType":5126,
			"count":2304,
			"type":"VEC3"
		},
		{
			"bufferView":2,
			"componentType":5126,
			"count":2304,
			"type":"VEC2"
		},
		{
			"bufferView":3,
			"componentType":5126,
			"count":2304,
			"type":"VEC4"
		},
		{
			"bufferView":4,
			"componentType":5121,
			"count":2304,
			"type":"VEC4"
		},
		{
			"bufferView":5,
			"componentType":5126,
			"count":2304,
			"type":"VEC4"
		},
		{
			"bufferView":6,
			"componentType":5123,
			"count":3456,
			"type":"SCALAR"
		},
		{
			"bufferView":7,
			"componentType":5126,
			"count":168,
			"max":[
				0.1802716851234436,
				1.3875428438186646,
				0.1463848352432251
			],
			"min":[
				-0.1802716851234436,
				0.962630033493042,
				-0.15868458151817322
			],
			"type":"VEC3"
		},
		{
			"bufferView":8,
			"componentType":5126,
			"count":168,
			"type":"VEC3"
		},
		{
			"bufferView":9,
			"componentType":5126,
			"count":168,
			"type":"VEC2"
		},
		{
			"bufferView":10,
			"componentType":5126,
			"count":168,
			"type":"VEC4"
		},
		{
			"bufferView":11,
			"componentType":5121,
			"count":168,
			"type":"VEC4"
		},
		{
			"bufferView":12,
			"componentType":5126,
			"count":168,
			"type":"VEC4"
		},
		{
			"bufferView":13,
			"componentType":5123,
			"count":252,
			"type":"SCALAR"
		},
		{
			"bufferView":14,
			"componentType":5126,
			"count":836,
			"max":[
				0.779105544090271,
				0.9994536638259888,
				0.10064609348773956
			],
			"min":[
				-0.779105544090271,
				0,
				-0.08232969790697098
			],
			"type":"VEC3"
		},
		{
			"bufferView":15,
			"componentType":5126,
			"count":836,
			"type":"VEC3"
		},
		{
			"bufferView":16,
			"componentType":5126,
			"count":836,
			"type":"VEC2"
		},
		{
			"bufferView":17,
			"componentType":5126,
			"count":836,
			"type":"VEC4"
		},
		{
			"bufferView":18,
			"componentType":5121,
			"count":836,
			"type":"VEC4"
		},
		{
			"bufferView":19,
			"componentType":5126,
			"count":836,
			"type":"VEC4"
		},
		{
			"bufferView":20,
			"componentType":5123,
			"count":1236,
			"type":"SCALAR"
		},
		{
			"bufferView":21,
			"componentType":5126,
			"count":231,
			"max":[
				0.15286311507225037,
				1.0452412366867065,
				0.11064715683460236
			],
			"min":[
				-0.15286311507225037,
				0.722228467464447,
				-0.11092855781316757
			],
			"type":"VEC3"
		},
		{
			"bufferView":22,
			"componentType":5126,
			"count":231,
			"type":"VEC3"
		},
		{
			"bufferView":23,
			"componentType":5126,
			"count":231,
			"type":"VEC2"
		},
		{
			"bufferView":24,
			"componentType":5126,
			"count":231,
			"type":"VEC4"
		},
		{
			"bufferView":25,
			"componentType":5121,
			"count":231,
			"type":"VEC4"
		},
		{
			"bufferView":26,
			"componentType":5126,
			"count":231,
			"type":"VEC4"
		},
		{
			"bufferView":27,
			"componentType":5123,
			"count":360,
			"type":"SCALAR"
		},
		{
			"bufferView":28,
			"componentType":5126,
			"count":48,
			"max":[
				0.16086916625499725,
				1.3414232730865479,
				0.07078032940626144
			],
			"min":[
				-0.16086916625499725,
				1.0614246129989624,
				-0.11895396560430527
			],
			"type":"VEC3"
		},
		{
			"bufferView":29,
			"componentType":5126,
			"count":48,
			"type":"VEC3"
		},
		{
			"bufferView":30,
			"componentType":5126,
			"count":48,
			"type":"VEC2"
		},
		{
			"bufferView":31,
			"componentType":5126,
			"count":48,
			"type":"VEC4"
		},
		{
			"bufferView":32,
			"componentType":5121,
			"count":48,
			"type":"VEC4"
		},
		{
			"bufferView":33,
			"componentType":5126,
			"count":48,
			"type":"VEC4"
		},
		{
			"bufferView":34,
			"componentType":5123,
			"count":72,
			"type":"SCALAR"
		},
		{
			"bufferView":35,
			"componentType":5126,
			"count":27,
			"type":"MAT4"
		},
		{
			"bufferView":36,
			"componentType":5126,
			"count":4,
			"max":[
				0.15688617527484894,
				0.15688617527484894,
				1.1844576874864288e-08
			],
			"min":[
				-0.15688617527484894,
				-0.15688617527484894,
				-1.1844576874864288e-08
			],
			"type":"VEC3"
		},
		{
			"bufferView":37,
			"componentType":5126,
			"count":4,
			"type":"VEC3"
		},
		{
			"bufferView":38,
			"componentType":5126,
			"count":4,
			"type":"VEC2"
		},
		{
			"bufferView":39,
			"componentType":5126,
			"count":4,
			"type":"VEC4"
		},
		{
			"bufferView":40,
			"componentType":5123,
			"count":6,
			"type":"SCALAR"
		}
	],
	"bufferViews":[
		{
			"buffer":0,
			"byteLength":27648,
			"byteOffset":0,
			"target":34962
		},
		{
			"buffer":0,
			"byteLength":27648,
			"byteOffset":27648,
			"target":34962
		},
		{
			"buffer":0,
			"byteLength":18432,
			"byteOffset":55296,
			"target":34962
		},
		{
			"buffer":0,
			"byteLength":36864,
			"byteOffset":73728,
			"target":34962
		},
		{
			"buffer":0,
			"byteLength":9216,
			"byteOffset":110592,
			"target":34962
		},
		{
			"buffer":0,
			"byteLength":36864,
			"byteOffset":119808,
			"target":34962
		},
		{
			"buffer":0,
			"byteLength":6912,
			"byteOffset":156672,
			"target":34963
		},
		{
			"buffer":0,
			"byteLength":2016,
			"byteOffset":163584,
			"target":34962
		},
		{
			"buffer":0,
			"byteLength":2016,
			"byteOffset":165600,
			"target":34962
		},
		{
			"buffer":0,
			"byteLength":1344,
			"byteOffset":167616,
			"target":34962
		},
		{
			"buffer":0,
			"byteLength":2688,
			"byteOffset":168960,
			"target":34962
		},
		{
			"buffer":0,
			"byteLength":672,
			"byteOffset":171648,
			"target":34962
		},
		{
			"buffer":0,
			"byteLength":2688,
			"byteOffset":172320,
			"target":34962
		},
		{
			"buffer":0,
			"byteLength":504,
			"byteOffset":175008,
			"target":34963
		},
		{
			"buffer":0,
			"byteLength":10032,
			"byteOffset":175512,
			"target":34962
		},
		{
			"buffer":0,
			"byteLength":10032,
			"byteOffset":185544,
			"target":34962
		},
		{
			"buffer":0,
			"byteLength":6688,
			"byteOffset":195576,
			"target":34962
		},
		{
			"buffer":0,
			"byteLength":13376,
			"byteOffset":202264,
			"target":34962
		},
		{
			"buffer":0,
			"byteLength":3344,
			"byteOffset":215640,
			"target":34962
		},
		{
			"buffer":0,
			"byteLength":13376,
			"byteOffset":218984,
			"target":34962
		},
		{
			"buffer":0,
			"byteLength":2472,
			"byteOffset":232360,
			"target":34963
		},
		{
			"buffer":0,
			"byteLength":2772,
			"byteOffset":234832,
			"target":34962
		},
		{
			"buffer":0,
			"byteLength":2772,
			"byteOffset":237604,
			"target":34962
		},
		{
			"buffer":0,
			"byteLength":1848,
			"byteOffset":240376,
			"target":34962
		},
		{
			"buffer":0,
			"byteLength":3696,
			"byteOffset":242224,
			"target":34962
		},
		{
			"buffer":0,
			"byteLength":924,
			"byteOffset":245920,
			"target":34962
		},
		{
			"buffer":0,
			"byteLength":3696,
			"byteOffset":246844,
			"target":34962
		},
		{
			"buffer":0,
			"byteLength":720,
			"byteOffset":250540,
			"target":34963
		},
		{
			"buffer":0,
			"byteLength":576,
			"byteOffset":251260,
			"target":34962
		},
		{
			"buffer":0,
			"byteLength":576,
			"byteOffset":251836,
			"target":34962
		},
		{
			"buffer":0,
			"byteLength":384,
			"byteOffset":252412,
			"target":34962
		},
		{
			"buffer":0,
			"byteLength":768,
			"byteOffset":252796,
			"target":34962
		},
		{
			"buffer":0,
			"byteLength":192,
			"byteOffset":253564,
			"target":34962
		},
		{
			"buffer":0,
			"byteLength":768,
			"byteOffset":253756,
			"target":34962
		},
		{
			"buffer":0,
			"byteLength":144,
			"byteOffset":254524,
			"target":34963
		},
		{
			"buffer":0,
			"byteLength":1728,
			"byteOffset":254668
		},
		{
			"buffer":0,
			"byteLength":48,
			"byteOffset":256396,
			"target":34962
		},
		{
			"buffer":0,
			"byteLength":48,
			"byteOffset":256444,
			"target":34962
		},
		{
			"buffer":0,
			"byteLength":32,
			"byteOffset":256492,
			"target":34962
		},
		{
			"buffer":0,
			"byteLength":64,
			"byteOffset":256524,
			"target":34962
		},
		{
			"buffer":0,
			"byteLength":12,
			"byteOffset":256588,
			"target":34963
		}
	],
	"buffers":[
		{
			"byteLength":256600,
			"uri":"mdl_skeleton-62f0080f338feb7c00c8396ba9469d04.bin"
		}
	]
}
