{
	"asset":{
		"generator":"Khronos glTF Blender I/O v4.2.57",
		"version":"2.0"
	},
	"extensionsUsed":[
		"KHR_materials_clearcoat"
	],
	"scene":0,
	"scenes":[
		{
			"name":"Scene",
			"nodes":[
				4
			]
		}
	],
	"nodes":[
		{
			"mesh":0,
			"name":"Wrench.001",
			"translation":[
				0,
				0,
				0.0058648958802223206
			]
		},
		{
			"mesh":1,
			"name":"Wrench.002",
			"rotation":[
				0,
				-0.8660253882408142,
				0,
				0.4999999701976776
			],
			"translation":[
				-0.0050791478715837,
				0,
				-0.002932448172941804
			]
		},
		{
			"mesh":2,
			"name":"Wrench.003",
			"rotation":[
				0,
				0.8660253882408142,
				0,
				0.4999999701976776
			],
			"translation":[
				0.0050791478715837,
				0,
				-0.002932448172941804
			]
		},
		{
			"children":[
				0,
				1,
				2
			],
			"name":"Wrenches"
		},
		{
			"children":[
				3
			],
			"mesh":3,
			"name":"Body"
		}
	],
	"materials":[
		{
			"doubleSided":true,
			"extensions":{
				"KHR_materials_clearcoat":{
					"clearcoatRoughnessFactor":1
				}
			},
			"name":"Main.001",
			"pbrMetallicRoughness":{
				"metallicFactor":0
			}
		},
		{
			"doubleSided":true,
			"name":"Trim",
			"pbrMetallicRoughness":{
				"baseColorFactor":[
					1,
					0.3908064365386963,
					0,
					1
				],
				"roughnessFactor":0.21568629145622253
			}
		},
		{
			"doubleSided":true,
			"extensions":{
				"KHR_materials_clearcoat":{
					"clearcoatRoughnessFactor":1
				}
			},
			"name":"Accent",
			"pbrMetallicRoughness":{
				"metallicFactor":0
			}
		},
		{
			"doubleSided":true,
			"name":"WarpTrim",
			"pbrMetallicRoughness":{
				"baseColorFactor":[
					1,
					0.04379783198237419,
					0.7726187705993652,
					1
				],
				"roughnessFactor":0.21568629145622253
			}
		}
	],
	"meshes":[
		{
			"name":"Cube",
			"primitives":[
				{
					"attributes":{
						"POSITION":0,
						"NORMAL":1,
						"TEXCOORD_0":2,
						"TANGENT":3
					},
					"indices":4,
					"material":0
				},
				{
					"attributes":{
						"POSITION":5,
						"NORMAL":6,
						"TEXCOORD_0":7,
						"TANGENT":8
					},
					"indices":9,
					"material":1
				},
				{
					"attributes":{
						"POSITION":10,
						"NORMAL":11,
						"TEXCOORD_0":12,
						"TANGENT":13
					},
					"indices":14,
					"material":2
				}
			]
		},
		{
			"name":"Cube.007",
			"primitives":[
				{
					"attributes":{
						"POSITION":15,
						"NORMAL":16,
						"TEXCOORD_0":17,
						"TANGENT":18
					},
					"indices":4,
					"material":0
				},
				{
					"attributes":{
						"POSITION":19,
						"NORMAL":20,
						"TEXCOORD_0":21,
						"TANGENT":22
					},
					"indices":9,
					"material":1
				},
				{
					"attributes":{
						"POSITION":23,
						"NORMAL":24,
						"TEXCOORD_0":25,
						"TANGENT":26
					},
					"indices":14,
					"material":2
				}
			]
		},
		{
			"name":"Cube.008",
			"primitives":[
				{
					"attributes":{
						"POSITION":27,
						"NORMAL":28,
						"TEXCOORD_0":29,
						"TANGENT":30
					},
					"indices":4,
					"material":0
				},
				{
					"attributes":{
						"POSITION":31,
						"NORMAL":32,
						"TEXCOORD_0":33,
						"TANGENT":34
					},
					"indices":9,
					"material":1
				},
				{
					"attributes":{
						"POSITION":35,
						"NORMAL":36,
						"TEXCOORD_0":37,
						"TANGENT":38
					},
					"indices":39,
					"material":2
				}
			]
		},
		{
			"name":"Cube.001",
			"primitives":[
				{
					"attributes":{
						"POSITION":40,
						"NORMAL":41,
						"TEXCOORD_0":42,
						"TANGENT":43
					},
					"indices":44,
					"material":2
				},
				{
					"attributes":{
						"POSITION":45,
						"NORMAL":46,
						"TEXCOORD_0":47,
						"TANGENT":48
					},
					"indices":49,
					"material":1
				},
				{
					"attributes":{
						"POSITION":50,
						"NORMAL":51,
						"TEXCOORD_0":52,
						"TANGENT":53
					},
					"indices":54,
					"material":3
				}
			]
		}
	],
	"accessors":[
		{
			"bufferView":0,
			"componentType":5126,
			"count":50,
			"max":[
				0.015670068562030792,
				0.0031876363791525364,
				0.06054065376520157
			],
			"min":[
				-0.015670068562030792,
				-0.0031876363791525364,
				0
			],
			"type":"VEC3"
		},
		{
			"bufferView":1,
			"componentType":5126,
			"count":50,
			"type":"VEC3"
		},
		{
			"bufferView":2,
			"componentType":5126,
			"count":50,
			"type":"VEC2"
		},
		{
			"bufferView":3,
			"componentType":5126,
			"count":50,
			"type":"VEC4"
		},
		{
			"bufferView":4,
			"componentType":5123,
			"count":84,
			"type":"SCALAR"
		},
		{
			"bufferView":5,
			"componentType":5126,
			"count":59,
			"max":[
				0.010543974116444588,
				0.0033675236627459526,
				0.07040907442569733
			],
			"min":[
				-0.010543974116444588,
				-0.0033675236627459526,
				0.06054065376520157
			],
			"type":"VEC3"
		},
		{
			"bufferView":6,
			"componentType":5126,
			"count":59,
			"type":"VEC3"
		},
		{
			"bufferView":7,
			"componentType":5126,
			"count":59,
			"type":"VEC2"
		},
		{
			"bufferView":8,
			"componentType":5126,
			"count":59,
			"type":"VEC4"
		},
		{
			"bufferView":9,
			"componentType":5123,
			"count":108,
			"type":"SCALAR"
		},
		{
			"bufferView":10,
			"componentType":5126,
			"count":140,
			"max":[
				0.023085063323378563,
				0.0031876363791525364,
				0.11056499183177948
			],
			"min":[
				-0.023085063323378563,
				-0.0031876363791525364,
				0.004248656332492828
			],
			"type":"VEC3"
		},
		{
			"bufferView":11,
			"componentType":5126,
			"count":140,
			"type":"VEC3"
		},
		{
			"bufferView":12,
			"componentType":5126,
			"count":140,
			"type":"VEC2"
		},
		{
			"bufferView":13,
			"componentType":5126,
			"count":140,
			"type":"VEC4"
		},
		{
			"bufferView":14,
			"componentType":5123,
			"count":216,
			"type":"SCALAR"
		},
		{
			"bufferView":15,
			"componentType":5126,
			"count":50,
			"max":[
				0.015670068562030792,
				0.0031876363791525364,
				0.06054065376520157
			],
			"min":[
				-0.015670068562030792,
				-0.0031876363791525364,
				0
			],
			"type":"VEC3"
		},
		{
			"bufferView":16,
			"componentType":5126,
			"count":50,
			"type":"VEC3"
		},
		{
			"bufferView":17,
			"componentType":5126,
			"count":50,
			"type":"VEC2"
		},
		{
			"bufferView":18,
			"componentType":5126,
			"count":50,
			"type":"VEC4"
		},
		{
			"bufferView":19,
			"componentType":5126,
			"count":59,
			"max":[
				0.010543974116444588,
				0.0033675236627459526,
				0.07040907442569733
			],
			"min":[
				-0.010543974116444588,
				-0.0033675236627459526,
				0.06054065376520157
			],
			"type":"VEC3"
		},
		{
			"bufferView":20,
			"componentType":5126,
			"count":59,
			"type":"VEC3"
		},
		{
			"bufferView":21,
			"componentType":5126,
			"count":59,
			"type":"VEC2"
		},
		{
			"bufferView":22,
			"componentType":5126,
			"count":59,
			"type":"VEC4"
		},
		{
			"bufferView":23,
			"componentType":5126,
			"count":140,
			"max":[
				0.023085063323378563,
				0.0031876363791525364,
				0.12061881273984909
			],
			"min":[
				-0.023085063323378563,
				-0.0031876363791525364,
				0.004248658195137978
			],
			"type":"VEC3"
		},
		{
			"bufferView":24,
			"componentType":5126,
			"count":140,
			"type":"VEC3"
		},
		{
			"bufferView":25,
			"componentType":5126,
			"count":140,
			"type":"VEC2"
		},
		{
			"bufferView":26,
			"componentType":5126,
			"count":140,
			"type":"VEC4"
		},
		{
			"bufferView":27,
			"componentType":5126,
			"count":50,
			"max":[
				0.015670068562030792,
				0.0031876363791525364,
				0.06054065376520157
			],
			"min":[
				-0.015670068562030792,
				-0.0031876363791525364,
				0
			],
			"type":"VEC3"
		},
		{
			"bufferView":28,
			"componentType":5126,
			"count":50,
			"type":"VEC3"
		},
		{
			"bufferView":29,
			"componentType":5126,
			"count":50,
			"type":"VEC2"
		},
		{
			"bufferView":30,
			"componentType":5126,
			"count":50,
			"type":"VEC4"
		},
		{
			"bufferView":31,
			"componentType":5126,
			"count":59,
			"max":[
				0.010543974116444588,
				0.0033675236627459526,
				0.07040907442569733
			],
			"min":[
				-0.010543974116444588,
				-0.0033675236627459526,
				0.06054065376520157
			],
			"type":"VEC3"
		},
		{
			"bufferView":32,
			"componentType":5126,
			"count":59,
			"type":"VEC3"
		},
		{
			"bufferView":33,
			"componentType":5126,
			"count":59,
			"type":"VEC2"
		},
		{
			"bufferView":34,
			"componentType":5126,
			"count":59,
			"type":"VEC4"
		},
		{
			"bufferView":35,
			"componentType":5126,
			"count":94,
			"max":[
				0.013665241189301014,
				0.0031876363791525364,
				0.11738551408052444
			],
			"min":[
				-0.013665241189301014,
				-0.0031876363791525364,
				0.004248658195137978
			],
			"type":"VEC3"
		},
		{
			"bufferView":36,
			"componentType":5126,
			"count":94,
			"type":"VEC3"
		},
		{
			"bufferView":37,
			"componentType":5126,
			"count":94,
			"type":"VEC2"
		},
		{
			"bufferView":38,
			"componentType":5126,
			"count":94,
			"type":"VEC4"
		},
		{
			"bufferView":39,
			"componentType":5123,
			"count":156,
			"type":"SCALAR"
		},
		{
			"bufferView":40,
			"componentType":5126,
			"count":64,
			"max":[
				0.022910447791218758,
				0.0019238867098465562,
				0.022682396695017815
			],
			"min":[
				-0.022911004722118378,
				-0.0019238867098465562,
				-0.022682396695017815
			],
			"type":"VEC3"
		},
		{
			"bufferView":41,
			"componentType":5126,
			"count":64,
			"type":"VEC3"
		},
		{
			"bufferView":42,
			"componentType":5126,
			"count":64,
			"type":"VEC2"
		},
		{
			"bufferView":43,
			"componentType":5126,
			"count":64,
			"type":"VEC4"
		},
		{
			"bufferView":44,
			"componentType":5123,
			"count":96,
			"type":"SCALAR"
		},
		{
			"bufferView":45,
			"componentType":5126,
			"count":256,
			"max":[
				0.024334732443094254,
				0.0038266058545559645,
				0.024338407441973686
			],
			"min":[
				-0.024337638169527054,
				-0.0038266058545559645,
				-0.024338407441973686
			],
			"type":"VEC3"
		},
		{
			"bufferView":46,
			"componentType":5126,
			"count":256,
			"type":"VEC3"
		},
		{
			"bufferView":47,
			"componentType":5126,
			"count":256,
			"type":"VEC2"
		},
		{
			"bufferView":48,
			"componentType":5126,
			"count":256,
			"type":"VEC4"
		},
		{
			"bufferView":49,
			"componentType":5123,
			"count":384,
			"type":"SCALAR"
		},
		{
			"bufferView":50,
			"componentType":5126,
			"count":96,
			"max":[
				0.022089680656790733,
				0.0066595315001904964,
				0.02208995819091797
			],
			"min":[
				-0.0220902431756258,
				-0.0066595315001904964,
				-0.02208995819091797
			],
			"type":"VEC3"
		},
		{
			"bufferView":51,
			"componentType":5126,
			"count":96,
			"type":"VEC3"
		},
		{
			"bufferView":52,
			"componentType":5126,
			"count":96,
			"type":"VEC2"
		},
		{
			"bufferView":53,
			"componentType":5126,
			"count":96,
			"type":"VEC4"
		},
		{
			"bufferView":54,
			"componentType":5123,
			"count":144,
			"type":"SCALAR"
		}
	],
	"bufferViews":[
		{
			"buffer":0,
			"byteLength":600,
			"byteOffset":0,
			"target":34962
		},
		{
			"buffer":0,
			"byteLength":600,
			"byteOffset":600,
			"target":34962
		},
		{
			"buffer":0,
			"byteLength":400,
			"byteOffset":1200,
			"target":34962
		},
		{
			"buffer":0,
			"byteLength":800,
			"byteOffset":1600,
			"target":34962
		},
		{
			"buffer":0,
			"byteLength":168,
			"byteOffset":2400,
			"target":34963
		},
		{
			"buffer":0,
			"byteLength":708,
			"byteOffset":2568,
			"target":34962
		},
		{
			"buffer":0,
			"byteLength":708,
			"byteOffset":3276,
			"target":34962
		},
		{
			"buffer":0,
			"byteLength":472,
			"byteOffset":3984,
			"target":34962
		},
		{
			"buffer":0,
			"byteLength":944,
			"byteOffset":4456,
			"target":34962
		},
		{
			"buffer":0,
			"byteLength":216,
			"byteOffset":5400,
			"target":34963
		},
		{
			"buffer":0,
			"byteLength":1680,
			"byteOffset":5616,
			"target":34962
		},
		{
			"buffer":0,
			"byteLength":1680,
			"byteOffset":7296,
			"target":34962
		},
		{
			"buffer":0,
			"byteLength":1120,
			"byteOffset":8976,
			"target":34962
		},
		{
			"buffer":0,
			"byteLength":2240,
			"byteOffset":10096,
			"target":34962
		},
		{
			"buffer":0,
			"byteLength":432,
			"byteOffset":12336,
			"target":34963
		},
		{
			"buffer":0,
			"byteLength":600,
			"byteOffset":12768,
			"target":34962
		},
		{
			"buffer":0,
			"byteLength":600,
			"byteOffset":13368,
			"target":34962
		},
		{
			"buffer":0,
			"byteLength":400,
			"byteOffset":13968,
			"target":34962
		},
		{
			"buffer":0,
			"byteLength":800,
			"byteOffset":14368,
			"target":34962
		},
		{
			"buffer":0,
			"byteLength":708,
			"byteOffset":15168,
			"target":34962
		},
		{
			"buffer":0,
			"byteLength":708,
			"byteOffset":15876,
			"target":34962
		},
		{
			"buffer":0,
			"byteLength":472,
			"byteOffset":16584,
			"target":34962
		},
		{
			"buffer":0,
			"byteLength":944,
			"byteOffset":17056,
			"target":34962
		},
		{
			"buffer":0,
			"byteLength":1680,
			"byteOffset":18000,
			"target":34962
		},
		{
			"buffer":0,
			"byteLength":1680,
			"byteOffset":19680,
			"target":34962
		},
		{
			"buffer":0,
			"byteLength":1120,
			"byteOffset":21360,
			"target":34962
		},
		{
			"buffer":0,
			"byteLength":2240,
			"byteOffset":22480,
			"target":34962
		},
		{
			"buffer":0,
			"byteLength":600,
			"byteOffset":24720,
			"target":34962
		},
		{
			"buffer":0,
			"byteLength":600,
			"byteOffset":25320,
			"target":34962
		},
		{
			"buffer":0,
			"byteLength":400,
			"byteOffset":25920,
			"target":34962
		},
		{
			"buffer":0,
			"byteLength":800,
			"byteOffset":26320,
			"target":34962
		},
		{
			"buffer":0,
			"byteLength":708,
			"byteOffset":27120,
			"target":34962
		},
		{
			"buffer":0,
			"byteLength":708,
			"byteOffset":27828,
			"target":34962
		},
		{
			"buffer":0,
			"byteLength":472,
			"byteOffset":28536,
			"target":34962
		},
		{
			"buffer":0,
			"byteLength":944,
			"byteOffset":29008,
			"target":34962
		},
		{
			"buffer":0,
			"byteLength":1128,
			"byteOffset":29952,
			"target":34962
		},
		{
			"buffer":0,
			"byteLength":1128,
			"byteOffset":31080,
			"target":34962
		},
		{
			"buffer":0,
			"byteLength":752,
			"byteOffset":32208,
			"target":34962
		},
		{
			"buffer":0,
			"byteLength":1504,
			"byteOffset":32960,
			"target":34962
		},
		{
			"buffer":0,
			"byteLength":312,
			"byteOffset":34464,
			"target":34963
		},
		{
			"buffer":0,
			"byteLength":768,
			"byteOffset":34776,
			"target":34962
		},
		{
			"buffer":0,
			"byteLength":768,
			"byteOffset":35544,
			"target":34962
		},
		{
			"buffer":0,
			"byteLength":512,
			"byteOffset":36312,
			"target":34962
		},
		{
			"buffer":0,
			"byteLength":1024,
			"byteOffset":36824,
			"target":34962
		},
		{
			"buffer":0,
			"byteLength":192,
			"byteOffset":37848,
			"target":34963
		},
		{
			"buffer":0,
			"byteLength":3072,
			"byteOffset":38040,
			"target":34962
		},
		{
			"buffer":0,
			"byteLength":3072,
			"byteOffset":41112,
			"target":34962
		},
		{
			"buffer":0,
			"byteLength":2048,
			"byteOffset":44184,
			"target":34962
		},
		{
			"buffer":0,
			"byteLength":4096,
			"byteOffset":46232,
			"target":34962
		},
		{
			"buffer":0,
			"byteLength":768,
			"byteOffset":50328,
			"target":34963
		},
		{
			"buffer":0,
			"byteLength":1152,
			"byteOffset":51096,
			"target":34962
		},
		{
			"buffer":0,
			"byteLength":1152,
			"byteOffset":52248,
			"target":34962
		},
		{
			"buffer":0,
			"byteLength":768,
			"byteOffset":53400,
			"target":34962
		},
		{
			"buffer":0,
			"byteLength":1536,
			"byteOffset":54168,
			"target":34962
		},
		{
			"buffer":0,
			"byteLength":288,
			"byteOffset":55704,
			"target":34963
		}
	],
	"buffers":[
		{
			"byteLength":55992,
			"uri":"mdl_square-39f966927e6d0221dbc182d63708cdbb.bin"
		}
	]
}
