{
	"asset":{
		"generator":"Khronos glTF Blender I/O v4.2.57",
		"version":"2.0"
	},
	"extensionsUsed":[
		"KHR_materials_clearcoat",
		"KHR_materials_unlit"
	],
	"scene":0,
	"scenes":[
		{
			"name":"Scene",
			"nodes":[
				0,
				11
			]
		}
	],
	"nodes":[
		{
			"mesh":0,
			"name":"Plane"
		},
		{
			"mesh":1,
			"name":"Hammer",
			"translation":[
				-3.3974647521972656e-06,
				0.05451510101556778,
				-0.0555250346660614
			]
		},
		{
			"mesh":2,
			"name":"Fuses",
			"translation":[
				0,
				0,
				-0.010550029575824738
			]
		},
		{
			"children":[
				2
			],
			"mesh":3,
			"name":"Spinner",
			"translation":[
				0,
				0.037576720118522644,
				0.0063071176409721375
			]
		},
		{
			"mesh":4,
			"name":"Trigger",
			"rotation":[
				0,
				0,
				0.7071068286895752,
				0.7071068286895752
			],
			"translation":[
				0,
				0.008617420680820942,
				-0.02020147070288658
			]
		},
		{
			"mesh":5,
			"name":"WarpFuseL1",
			"rotation":[
				-0.6743798851966858,
				-0.21263068914413452,
				-0.674379825592041,
				0.21263070404529572
			],
			"scale":[
				-0.5752161145210266,
				-0.5752161145210266,
				-0.5752161145210266
			],
			"translation":[
				0.009963646531105042,
				0.047881077975034714,
				0.058207541704177856
			]
		},
		{
			"mesh":5,
			"name":"WarpFuseL2",
			"rotation":[
				-0.6743798851966858,
				-0.21263068914413452,
				-0.674379825592041,
				0.21263070404529572
			],
			"scale":[
				-0.5752161145210266,
				-0.5752161145210266,
				-0.5752161145210266
			],
			"translation":[
				0.009963646531105042,
				0.047881077975034714,
				0.06759956479072571
			]
		},
		{
			"mesh":5,
			"name":"WarpFuseL3",
			"rotation":[
				-0.6743798851966858,
				-0.21263068914413452,
				-0.674379825592041,
				0.21263070404529572
			],
			"scale":[
				-0.5752161145210266,
				-0.5752161145210266,
				-0.5752161145210266
			],
			"translation":[
				0.009963646531105042,
				0.047881077975034714,
				0.07678486406803131
			]
		},
		{
			"mesh":5,
			"name":"WarpFuseR1",
			"rotation":[
				0.21263070404529572,
				0.6743798851966858,
				-0.21263068914413452,
				0.674379825592041
			],
			"scale":[
				0.5752161145210266,
				0.5752161145210266,
				0.5752161145210266
			],
			"translation":[
				-0.009963646531105042,
				0.047881077975034714,
				0.058207541704177856
			]
		},
		{
			"mesh":5,
			"name":"WarpFuseR2",
			"rotation":[
				0.21263070404529572,
				0.6743798851966858,
				-0.21263068914413452,
				0.674379825592041
			],
			"scale":[
				0.5752161145210266,
				0.5752161145210266,
				0.5752161145210266
			],
			"translation":[
				-0.009963646531105042,
				0.047881077975034714,
				0.06759956479072571
			]
		},
		{
			"mesh":5,
			"name":"WarpFuseR3",
			"rotation":[
				0.21263070404529572,
				0.6743798851966858,
				-0.21263068914413452,
				0.674379825592041
			],
			"scale":[
				0.5752161145210266,
				0.5752161145210266,
				0.5752161145210266
			],
			"translation":[
				-0.009963646531105042,
				0.047881077975034714,
				0.07678486406803131
			]
		},
		{
			"children":[
				1,
				3,
				4,
				5,
				6,
				7,
				8,
				9,
				10
			],
			"mesh":6,
			"name":"Body",
			"translation":[
				-0.21427619457244873,
				0.009425870142877102,
				0.0427994579076767
			]
		}
	],
	"materials":[
		{
			"doubleSided":true,
			"extensions":{
				"KHR_materials_clearcoat":{
					"clearcoatRoughnessFactor":1
				}
			},
			"name":"Grip",
			"pbrMetallicRoughness":{
				"metallicFactor":0
			}
		},
		{
			"doubleSided":true,
			"extensions":{
				"KHR_materials_clearcoat":{
					"clearcoatRoughnessFactor":1
				}
			},
			"name":"Main.001",
			"pbrMetallicRoughness":{
				"metallicFactor":0
			}
		},
		{
			"doubleSided":true,
			"extensions":{
				"KHR_materials_clearcoat":{
					"clearcoatRoughnessFactor":1
				}
			},
			"name":"Accent",
			"pbrMetallicRoughness":{
				"metallicFactor":0
			}
		},
		{
			"doubleSided":true,
			"name":"Trim",
			"pbrMetallicRoughness":{
				"baseColorFactor":[
					1,
					0.3908064365386963,
					0,
					1
				],
				"roughnessFactor":0.21568629145622253
			}
		},
		{
			"doubleSided":true,
			"extensions":{
				"KHR_materials_unlit":{}
			},
			"name":"Hole",
			"pbrMetallicRoughness":{
				"metallicFactor":0,
				"roughnessFactor":0.9
			}
		},
		{
			"doubleSided":true,
			"name":"WarpTrim",
			"pbrMetallicRoughness":{
				"baseColorFactor":[
					1,
					0.04379783198237419,
					0.7726187705993652,
					1
				],
				"roughnessFactor":0.21568629145622253
			}
		}
	],
	"meshes":[
		{
			"name":"Plane",
			"primitives":[
				{
					"attributes":{
						"POSITION":0,
						"NORMAL":1,
						"TEXCOORD_0":2,
						"TANGENT":3
					},
					"indices":4,
					"material":0
				},
				{
					"attributes":{
						"POSITION":5,
						"NORMAL":6,
						"TEXCOORD_0":7,
						"TANGENT":8
					},
					"indices":9,
					"material":1
				},
				{
					"attributes":{
						"POSITION":10,
						"NORMAL":11,
						"TEXCOORD_0":12,
						"TANGENT":13
					},
					"indices":14,
					"material":2
				}
			]
		},
		{
			"name":"Cylinder",
			"primitives":[
				{
					"attributes":{
						"POSITION":15,
						"NORMAL":16,
						"TEXCOORD_0":17
					},
					"indices":18,
					"material":2
				},
				{
					"attributes":{
						"POSITION":19,
						"NORMAL":20,
						"TEXCOORD_0":21
					},
					"indices":22,
					"material":3
				}
			]
		},
		{
			"name":"Cylinder.002",
			"primitives":[
				{
					"attributes":{
						"POSITION":23,
						"NORMAL":24,
						"TEXCOORD_0":25,
						"TANGENT":26
					},
					"indices":27,
					"material":3
				},
				{
					"attributes":{
						"POSITION":28,
						"NORMAL":29,
						"TEXCOORD_0":30,
						"TANGENT":31
					},
					"indices":32,
					"material":4
				}
			]
		},
		{
			"name":"Cylinder.001",
			"primitives":[
				{
					"attributes":{
						"POSITION":33,
						"NORMAL":34,
						"TEXCOORD_0":35
					},
					"indices":36,
					"material":2
				},
				{
					"attributes":{
						"POSITION":37,
						"NORMAL":38,
						"TEXCOORD_0":39
					},
					"indices":40,
					"material":3
				}
			]
		},
		{
			"name":"Cylinder.003",
			"primitives":[
				{
					"attributes":{
						"POSITION":41,
						"NORMAL":42,
						"TEXCOORD_0":43,
						"TANGENT":44
					},
					"indices":45,
					"material":2
				}
			]
		},
		{
			"name":"Cylinder.011",
			"primitives":[
				{
					"attributes":{
						"POSITION":46,
						"NORMAL":47,
						"TEXCOORD_0":48,
						"TANGENT":49
					},
					"indices":50,
					"material":5
				},
				{
					"attributes":{
						"POSITION":51,
						"NORMAL":52,
						"TEXCOORD_0":53,
						"TANGENT":54
					},
					"indices":55,
					"material":4
				}
			]
		},
		{
			"name":"Body",
			"primitives":[
				{
					"attributes":{
						"POSITION":56,
						"NORMAL":57,
						"TEXCOORD_0":58
					},
					"indices":59,
					"material":1
				},
				{
					"attributes":{
						"POSITION":60,
						"NORMAL":61,
						"TEXCOORD_0":62
					},
					"indices":63,
					"material":0
				},
				{
					"attributes":{
						"POSITION":64,
						"NORMAL":65,
						"TEXCOORD_0":66
					},
					"indices":67,
					"material":2
				},
				{
					"attributes":{
						"POSITION":68,
						"NORMAL":69,
						"TEXCOORD_0":70
					},
					"indices":71,
					"material":3
				}
			]
		}
	],
	"accessors":[
		{
			"bufferView":0,
			"componentType":5126,
			"count":224,
			"max":[
				0.015782490372657776,
				0.034465182572603226,
				0.001902259886264801
			],
			"min":[
				-0.015782490372657776,
				-0.029824137687683105,
				-0.09911978989839554
			],
			"type":"VEC3"
		},
		{
			"bufferView":1,
			"componentType":5126,
			"count":224,
			"type":"VEC3"
		},
		{
			"bufferView":2,
			"componentType":5126,
			"count":224,
			"type":"VEC2"
		},
		{
			"bufferView":3,
			"componentType":5126,
			"count":224,
			"type":"VEC4"
		},
		{
			"bufferView":4,
			"componentType":5123,
			"count":336,
			"type":"SCALAR"
		},
		{
			"bufferView":5,
			"componentType":5126,
			"count":288,
			"max":[
				0.012511021457612514,
				0.03869624435901642,
				0.19666129350662231
			],
			"min":[
				-0.012511021457612514,
				0.0033294372260570526,
				0.001902252435684204
			],
			"type":"VEC3"
		},
		{
			"bufferView":6,
			"componentType":5126,
			"count":288,
			"type":"VEC3"
		},
		{
			"bufferView":7,
			"componentType":5126,
			"count":288,
			"type":"VEC2"
		},
		{
			"bufferView":8,
			"componentType":5126,
			"count":288,
			"type":"VEC4"
		},
		{
			"bufferView":9,
			"componentType":5123,
			"count":432,
			"type":"SCALAR"
		},
		{
			"bufferView":10,
			"componentType":5126,
			"count":96,
			"max":[
				0.0029312027618288994,
				0.05840950831770897,
				0.1932581514120102
			],
			"min":[
				-0.0029312027618288994,
				0.03700520470738411,
				0.18598373234272003
			],
			"type":"VEC3"
		},
		{
			"bufferView":11,
			"componentType":5126,
			"count":96,
			"type":"VEC3"
		},
		{
			"bufferView":12,
			"componentType":5126,
			"count":96,
			"type":"VEC2"
		},
		{
			"bufferView":13,
			"componentType":5126,
			"count":96,
			"type":"VEC4"
		},
		{
			"bufferView":14,
			"componentType":5123,
			"count":144,
			"type":"SCALAR"
		},
		{
			"bufferView":15,
			"componentType":5126,
			"count":204,
			"max":[
				0.005854970309883356,
				0.012465888634324074,
				0.01680055633187294
			],
			"min":[
				-0.00584816699847579,
				-0.016948845237493515,
				-0.012599416077136993
			],
			"type":"VEC3"
		},
		{
			"bufferView":16,
			"componentType":5126,
			"count":204,
			"type":"VEC3"
		},
		{
			"bufferView":17,
			"componentType":5126,
			"count":204,
			"type":"VEC2"
		},
		{
			"bufferView":18,
			"componentType":5123,
			"count":312,
			"type":"SCALAR"
		},
		{
			"bufferView":19,
			"componentType":5126,
			"count":148,
			"max":[
				0.0006243382813408971,
				0.013509630225598812,
				0.01761983148753643
			],
			"min":[
				-0.0006175347371026874,
				-0.01795973815023899,
				-0.013629907742142677
			],
			"type":"VEC3"
		},
		{
			"bufferView":20,
			"componentType":5126,
			"count":148,
			"type":"VEC3"
		},
		{
			"bufferView":21,
			"componentType":5126,
			"count":148,
			"type":"VEC2"
		},
		{
			"bufferView":22,
			"componentType":5123,
			"count":324,
			"type":"SCALAR"
		},
		{
			"bufferView":23,
			"componentType":5126,
			"count":504,
			"max":[
				0.017637059092521667,
				0.020366832613945007,
				0.00974266231060028
			],
			"min":[
				-0.017638280987739563,
				-0.02036718837916851,
				-0.019222944974899292
			],
			"type":"VEC3"
		},
		{
			"bufferView":24,
			"componentType":5126,
			"count":504,
			"type":"VEC3"
		},
		{
			"bufferView":25,
			"componentType":5126,
			"count":504,
			"type":"VEC2"
		},
		{
			"bufferView":26,
			"componentType":5126,
			"count":504,
			"type":"VEC4"
		},
		{
			"bufferView":27,
			"componentType":5123,
			"count":756,
			"type":"SCALAR"
		},
		{
			"bufferView":28,
			"componentType":5126,
			"count":24,
			"max":[
				0.01536424271762371,
				0.017741095274686813,
				-0.0167451910674572
			],
			"min":[
				-0.01536424458026886,
				-0.017741098999977112,
				-0.016778448596596718
			],
			"type":"VEC3"
		},
		{
			"bufferView":29,
			"componentType":5126,
			"count":24,
			"type":"VEC3"
		},
		{
			"bufferView":30,
			"componentType":5126,
			"count":24,
			"type":"VEC2"
		},
		{
			"bufferView":31,
			"componentType":5126,
			"count":24,
			"type":"VEC4"
		},
		{
			"bufferView":32,
			"componentType":5123,
			"count":36,
			"type":"SCALAR"
		},
		{
			"bufferView":33,
			"componentType":5126,
			"count":36,
			"max":[
				0.021650634706020355,
				0.024281123653054237,
				0.024001378566026688
			],
			"min":[
				-0.021650634706020355,
				-0.024281123653054237,
				-0.024001378566026688
			],
			"type":"VEC3"
		},
		{
			"bufferView":34,
			"componentType":5126,
			"count":36,
			"type":"VEC3"
		},
		{
			"bufferView":35,
			"componentType":5126,
			"count":36,
			"type":"VEC2"
		},
		{
			"bufferView":36,
			"componentType":5123,
			"count":60,
			"type":"SCALAR"
		},
		{
			"bufferView":37,
			"componentType":5126,
			"count":252,
			"max":[
				0.022652070969343185,
				0.025324257090687752,
				0.024825504049658775
			],
			"min":[
				-0.022652070969343185,
				-0.025324257090687752,
				-0.024825504049658775
			],
			"type":"VEC3"
		},
		{
			"bufferView":38,
			"componentType":5126,
			"count":252,
			"type":"VEC3"
		},
		{
			"bufferView":39,
			"componentType":5126,
			"count":252,
			"type":"VEC2"
		},
		{
			"bufferView":40,
			"componentType":5123,
			"count":360,
			"type":"SCALAR"
		},
		{
			"bufferView":41,
			"componentType":5126,
			"count":40,
			"max":[
				0.013744493946433067,
				0.005000000353902578,
				0.016067814081907272
			],
			"min":[
				-0.02029508352279663,
				-0.004999999888241291,
				-0.010035178624093533
			],
			"type":"VEC3"
		},
		{
			"bufferView":42,
			"componentType":5126,
			"count":40,
			"type":"VEC3"
		},
		{
			"bufferView":43,
			"componentType":5126,
			"count":40,
			"type":"VEC2"
		},
		{
			"bufferView":44,
			"componentType":5126,
			"count":40,
			"type":"VEC4"
		},
		{
			"bufferView":45,
			"componentType":5123,
			"count":60,
			"type":"SCALAR"
		},
		{
			"bufferView":46,
			"componentType":5126,
			"count":100,
			"max":[
				0.008329055272042751,
				0.008329054340720177,
				0.015000000596046448
			],
			"min":[
				-0.0083290571346879,
				-0.008329055272042751,
				-0.01902955397963524
			],
			"type":"VEC3"
		},
		{
			"bufferView":47,
			"componentType":5126,
			"count":100,
			"type":"VEC3"
		},
		{
			"bufferView":48,
			"componentType":5126,
			"count":100,
			"type":"VEC2"
		},
		{
			"bufferView":49,
			"componentType":5126,
			"count":100,
			"type":"VEC4"
		},
		{
			"bufferView":50,
			"componentType":5123,
			"count":150,
			"type":"SCALAR"
		},
		{
			"bufferView":51,
			"componentType":5126,
			"count":4,
			"max":[
				0.005038261879235506,
				0.005038260482251644,
				-0.015570157207548618
			],
			"min":[
				-0.005038263741880655,
				-0.005038260482251644,
				-0.015570157207548618
			],
			"type":"VEC3"
		},
		{
			"bufferView":52,
			"componentType":5126,
			"count":4,
			"type":"VEC3"
		},
		{
			"bufferView":53,
			"componentType":5126,
			"count":4,
			"type":"VEC2"
		},
		{
			"bufferView":54,
			"componentType":5126,
			"count":4,
			"type":"VEC4"
		},
		{
			"bufferView":55,
			"componentType":5123,
			"count":6,
			"type":"SCALAR"
		},
		{
			"bufferView":56,
			"componentType":5126,
			"count":488,
			"max":[
				0.014611381106078625,
				0.06661411374807358,
				0.08565951138734818
			],
			"min":[
				-0.014611381106078625,
				-0.03065236285328865,
				-0.063865065574646
			],
			"type":"VEC3"
		},
		{
			"bufferView":57,
			"componentType":5126,
			"count":488,
			"type":"VEC3"
		},
		{
			"bufferView":58,
			"componentType":5126,
			"count":488,
			"type":"VEC2"
		},
		{
			"bufferView":59,
			"componentType":5123,
			"count":756,
			"type":"SCALAR"
		},
		{
			"bufferView":60,
			"componentType":5126,
			"count":260,
			"max":[
				0.020114706829190254,
				0.034957922995090485,
				-0.03688109666109085
			],
			"min":[
				-0.020114706829190254,
				-0.07332779467105865,
				-0.11793696880340576
			],
			"type":"VEC3"
		},
		{
			"bufferView":61,
			"componentType":5126,
			"count":260,
			"type":"VEC3"
		},
		{
			"bufferView":62,
			"componentType":5126,
			"count":260,
			"type":"VEC2"
		},
		{
			"bufferView":63,
			"componentType":5123,
			"count":396,
			"type":"SCALAR"
		},
		{
			"bufferView":64,
			"componentType":5126,
			"count":254,
			"max":[
				0.016331946477293968,
				0.06001519411802292,
				0.11338656395673752
			],
			"min":[
				-0.016331946477293968,
				0.030344821512699127,
				-0.06666730344295502
			],
			"type":"VEC3"
		},
		{
			"bufferView":65,
			"componentType":5126,
			"count":254,
			"type":"VEC3"
		},
		{
			"bufferView":66,
			"componentType":5126,
			"count":254,
			"type":"VEC2"
		},
		{
			"bufferView":67,
			"componentType":5123,
			"count":438,
			"type":"SCALAR"
		},
		{
			"bufferView":68,
			"componentType":5126,
			"count":734,
			"max":[
				0.017696866765618324,
				0.067388616502285,
				0.10138601064682007
			],
			"min":[
				-0.017696866765618324,
				-0.03148302435874939,
				-0.05481285974383354
			],
			"type":"VEC3"
		},
		{
			"bufferView":69,
			"componentType":5126,
			"count":734,
			"type":"VEC3"
		},
		{
			"bufferView":70,
			"componentType":5126,
			"count":734,
			"type":"VEC2"
		},
		{
			"bufferView":71,
			"componentType":5123,
			"count":1092,
			"type":"SCALAR"
		}
	],
	"bufferViews":[
		{
			"buffer":0,
			"byteLength":2688,
			"byteOffset":0,
			"target":34962
		},
		{
			"buffer":0,
			"byteLength":2688,
			"byteOffset":2688,
			"target":34962
		},
		{
			"buffer":0,
			"byteLength":1792,
			"byteOffset":5376,
			"target":34962
		},
		{
			"buffer":0,
			"byteLength":3584,
			"byteOffset":7168,
			"target":34962
		},
		{
			"buffer":0,
			"byteLength":672,
			"byteOffset":10752,
			"target":34963
		},
		{
			"buffer":0,
			"byteLength":3456,
			"byteOffset":11424,
			"target":34962
		},
		{
			"buffer":0,
			"byteLength":3456,
			"byteOffset":14880,
			"target":34962
		},
		{
			"buffer":0,
			"byteLength":2304,
			"byteOffset":18336,
			"target":34962
		},
		{
			"buffer":0,
			"byteLength":4608,
			"byteOffset":20640,
			"target":34962
		},
		{
			"buffer":0,
			"byteLength":864,
			"byteOffset":25248,
			"target":34963
		},
		{
			"buffer":0,
			"byteLength":1152,
			"byteOffset":26112,
			"target":34962
		},
		{
			"buffer":0,
			"byteLength":1152,
			"byteOffset":27264,
			"target":34962
		},
		{
			"buffer":0,
			"byteLength":768,
			"byteOffset":28416,
			"target":34962
		},
		{
			"buffer":0,
			"byteLength":1536,
			"byteOffset":29184,
			"target":34962
		},
		{
			"buffer":0,
			"byteLength":288,
			"byteOffset":30720,
			"target":34963
		},
		{
			"buffer":0,
			"byteLength":2448,
			"byteOffset":31008,
			"target":34962
		},
		{
			"buffer":0,
			"byteLength":2448,
			"byteOffset":33456,
			"target":34962
		},
		{
			"buffer":0,
			"byteLength":1632,
			"byteOffset":35904,
			"target":34962
		},
		{
			"buffer":0,
			"byteLength":624,
			"byteOffset":37536,
			"target":34963
		},
		{
			"buffer":0,
			"byteLength":1776,
			"byteOffset":38160,
			"target":34962
		},
		{
			"buffer":0,
			"byteLength":1776,
			"byteOffset":39936,
			"target":34962
		},
		{
			"buffer":0,
			"byteLength":1184,
			"byteOffset":41712,
			"target":34962
		},
		{
			"buffer":0,
			"byteLength":648,
			"byteOffset":42896,
			"target":34963
		},
		{
			"buffer":0,
			"byteLength":6048,
			"byteOffset":43544,
			"target":34962
		},
		{
			"buffer":0,
			"byteLength":6048,
			"byteOffset":49592,
			"target":34962
		},
		{
			"buffer":0,
			"byteLength":4032,
			"byteOffset":55640,
			"target":34962
		},
		{
			"buffer":0,
			"byteLength":8064,
			"byteOffset":59672,
			"target":34962
		},
		{
			"buffer":0,
			"byteLength":1512,
			"byteOffset":67736,
			"target":34963
		},
		{
			"buffer":0,
			"byteLength":288,
			"byteOffset":69248,
			"target":34962
		},
		{
			"buffer":0,
			"byteLength":288,
			"byteOffset":69536,
			"target":34962
		},
		{
			"buffer":0,
			"byteLength":192,
			"byteOffset":69824,
			"target":34962
		},
		{
			"buffer":0,
			"byteLength":384,
			"byteOffset":70016,
			"target":34962
		},
		{
			"buffer":0,
			"byteLength":72,
			"byteOffset":70400,
			"target":34963
		},
		{
			"buffer":0,
			"byteLength":432,
			"byteOffset":70472,
			"target":34962
		},
		{
			"buffer":0,
			"byteLength":432,
			"byteOffset":70904,
			"target":34962
		},
		{
			"buffer":0,
			"byteLength":288,
			"byteOffset":71336,
			"target":34962
		},
		{
			"buffer":0,
			"byteLength":120,
			"byteOffset":71624,
			"target":34963
		},
		{
			"buffer":0,
			"byteLength":3024,
			"byteOffset":71744,
			"target":34962
		},
		{
			"buffer":0,
			"byteLength":3024,
			"byteOffset":74768,
			"target":34962
		},
		{
			"buffer":0,
			"byteLength":2016,
			"byteOffset":77792,
			"target":34962
		},
		{
			"buffer":0,
			"byteLength":720,
			"byteOffset":79808,
			"target":34963
		},
		{
			"buffer":0,
			"byteLength":480,
			"byteOffset":80528,
			"target":34962
		},
		{
			"buffer":0,
			"byteLength":480,
			"byteOffset":81008,
			"target":34962
		},
		{
			"buffer":0,
			"byteLength":320,
			"byteOffset":81488,
			"target":34962
		},
		{
			"buffer":0,
			"byteLength":640,
			"byteOffset":81808,
			"target":34962
		},
		{
			"buffer":0,
			"byteLength":120,
			"byteOffset":82448,
			"target":34963
		},
		{
			"buffer":0,
			"byteLength":1200,
			"byteOffset":82568,
			"target":34962
		},
		{
			"buffer":0,
			"byteLength":1200,
			"byteOffset":83768,
			"target":34962
		},
		{
			"buffer":0,
			"byteLength":800,
			"byteOffset":84968,
			"target":34962
		},
		{
			"buffer":0,
			"byteLength":1600,
			"byteOffset":85768,
			"target":34962
		},
		{
			"buffer":0,
			"byteLength":300,
			"byteOffset":87368,
			"target":34963
		},
		{
			"buffer":0,
			"byteLength":48,
			"byteOffset":87668,
			"target":34962
		},
		{
			"buffer":0,
			"byteLength":48,
			"byteOffset":87716,
			"target":34962
		},
		{
			"buffer":0,
			"byteLength":32,
			"byteOffset":87764,
			"target":34962
		},
		{
			"buffer":0,
			"byteLength":64,
			"byteOffset":87796,
			"target":34962
		},
		{
			"buffer":0,
			"byteLength":12,
			"byteOffset":87860,
			"target":34963
		},
		{
			"buffer":0,
			"byteLength":5856,
			"byteOffset":87872,
			"target":34962
		},
		{
			"buffer":0,
			"byteLength":5856,
			"byteOffset":93728,
			"target":34962
		},
		{
			"buffer":0,
			"byteLength":3904,
			"byteOffset":99584,
			"target":34962
		},
		{
			"buffer":0,
			"byteLength":1512,
			"byteOffset":103488,
			"target":34963
		},
		{
			"buffer":0,
			"byteLength":3120,
			"byteOffset":105000,
			"target":34962
		},
		{
			"buffer":0,
			"byteLength":3120,
			"byteOffset":108120,
			"target":34962
		},
		{
			"buffer":0,
			"byteLength":2080,
			"byteOffset":111240,
			"target":34962
		},
		{
			"buffer":0,
			"byteLength":792,
			"byteOffset":113320,
			"target":34963
		},
		{
			"buffer":0,
			"byteLength":3048,
			"byteOffset":114112,
			"target":34962
		},
		{
			"buffer":0,
			"byteLength":3048,
			"byteOffset":117160,
			"target":34962
		},
		{
			"buffer":0,
			"byteLength":2032,
			"byteOffset":120208,
			"target":34962
		},
		{
			"buffer":0,
			"byteLength":876,
			"byteOffset":122240,
			"target":34963
		},
		{
			"buffer":0,
			"byteLength":8808,
			"byteOffset":123116,
			"target":34962
		},
		{
			"buffer":0,
			"byteLength":8808,
			"byteOffset":131924,
			"target":34962
		},
		{
			"buffer":0,
			"byteLength":5872,
			"byteOffset":140732,
			"target":34962
		},
		{
			"buffer":0,
			"byteLength":2184,
			"byteOffset":146604,
			"target":34963
		}
	],
	"buffers":[
		{
			"byteLength":148788,
			"uri":"mdl_revolver_old-f174a5a64f5676f96c83f5da5d524f8f.bin"
		}
	]
}
