{
	"asset":{
		"generator":"Khronos glTF Blender I/O v4.0.44",
		"version":"2.0"
	},
	"extensionsUsed":[
		"KHR_materials_unlit"
	],
	"scene":0,
	"scenes":[
		{
			"name":"Scene",
			"nodes":[
				10
			]
		}
	],
	"nodes":[
		{
			"mesh":0,
			"name":"Hammer",
			"translation":[
				-3.401665253477404e-06,
				0.05451510101556778,
				-0.0555250346660614
			]
		},
		{
			"mesh":1,
			"name":"Fuses",
			"translation":[
				0,
				0,
				-0.010550029575824738
			]
		},
		{
			"children":[
				1
			],
			"mesh":2,
			"name":"Spinner",
			"translation":[
				0,
				0.037576720118522644,
				0.0063071176409721375
			]
		},
		{
			"mesh":3,
			"name":"Trigger",
			"rotation":[
				0,
				0,
				0.7071068286895752,
				0.7071068286895752
			],
			"translation":[
				0,
				0.008617420680820942,
				-0.02020147070288658
			]
		},
		{
			"mesh":4,
			"name":"WarpFuseL1",
			"rotation":[
				-0.6743798851966858,
				-0.21263068914413452,
				-0.674379825592041,
				0.21263070404529572
			],
			"scale":[
				-0.5752161145210266,
				-0.5752161145210266,
				-0.5752161145210266
			],
			"translation":[
				0.009963641874492168,
				0.047881077975034714,
				0.058207541704177856
			]
		},
		{
			"mesh":4,
			"name":"WarpFuseL2",
			"rotation":[
				-0.6743798851966858,
				-0.21263068914413452,
				-0.674379825592041,
				0.21263070404529572
			],
			"scale":[
				-0.5752161145210266,
				-0.5752161145210266,
				-0.5752161145210266
			],
			"translation":[
				0.009963641874492168,
				0.047881077975034714,
				0.06759956479072571
			]
		},
		{
			"mesh":4,
			"name":"WarpFuseL3",
			"rotation":[
				-0.6743798851966858,
				-0.21263068914413452,
				-0.674379825592041,
				0.21263070404529572
			],
			"scale":[
				-0.5752161145210266,
				-0.5752161145210266,
				-0.5752161145210266
			],
			"translation":[
				0.009963641874492168,
				0.047881077975034714,
				0.07678486406803131
			]
		},
		{
			"mesh":4,
			"name":"WarpFuseR1",
			"rotation":[
				0.21263070404529572,
				0.6743798851966858,
				-0.21263068914413452,
				0.674379825592041
			],
			"scale":[
				0.5752161145210266,
				0.5752161145210266,
				0.5752161145210266
			],
			"translation":[
				-0.009963641874492168,
				0.047881077975034714,
				0.058207541704177856
			]
		},
		{
			"mesh":4,
			"name":"WarpFuseR2",
			"rotation":[
				0.21263070404529572,
				0.6743798851966858,
				-0.21263068914413452,
				0.674379825592041
			],
			"scale":[
				0.5752161145210266,
				0.5752161145210266,
				0.5752161145210266
			],
			"translation":[
				-0.009963641874492168,
				0.047881077975034714,
				0.06759956479072571
			]
		},
		{
			"mesh":4,
			"name":"WarpFuseR3",
			"rotation":[
				0.21263070404529572,
				0.6743798851966858,
				-0.21263068914413452,
				0.674379825592041
			],
			"scale":[
				0.5752161145210266,
				0.5752161145210266,
				0.5752161145210266
			],
			"translation":[
				-0.009963641874492168,
				0.047881077975034714,
				0.07678486406803131
			]
		},
		{
			"children":[
				0,
				2,
				3,
				4,
				5,
				6,
				7,
				8,
				9
			],
			"mesh":5,
			"name":"Body",
			"translation":[
				0,
				0.009425870142877102,
				0.0427994579076767
			]
		}
	],
	"materials":[
		{
			"doubleSided":true,
			"name":"Accent",
			"pbrMetallicRoughness":{
				"metallicFactor":0
			}
		},
		{
			"doubleSided":true,
			"name":"Trim",
			"pbrMetallicRoughness":{
				"baseColorFactor":[
					1,
					0.3908064365386963,
					0,
					1
				],
				"roughnessFactor":0.21568629145622253
			}
		},
		{
			"doubleSided":true,
			"extensions":{
				"KHR_materials_unlit":{}
			},
			"name":"Hole",
			"pbrMetallicRoughness":{
				"baseColorFactor":[
					0,
					0,
					0,
					1
				],
				"metallicFactor":0,
				"roughnessFactor":0.9
			}
		},
		{
			"doubleSided":true,
			"name":"WarpTrim",
			"pbrMetallicRoughness":{
				"baseColorFactor":[
					1,
					0.04379783198237419,
					0.7726187705993652,
					1
				],
				"roughnessFactor":0.21568629145622253
			}
		},
		{
			"doubleSided":true,
			"name":"Main.001",
			"pbrMetallicRoughness":{
				"metallicFactor":0
			}
		},
		{
			"doubleSided":true,
			"name":"Grip",
			"pbrMetallicRoughness":{
				"metallicFactor":0
			}
		}
	],
	"meshes":[
		{
			"name":"Cylinder",
			"primitives":[
				{
					"attributes":{
						"POSITION":0,
						"NORMAL":1,
						"TEXCOORD_0":2
					},
					"indices":3,
					"material":0
				},
				{
					"attributes":{
						"POSITION":4,
						"NORMAL":5,
						"TEXCOORD_0":6
					},
					"indices":7,
					"material":1
				}
			]
		},
		{
			"name":"Cylinder.002",
			"primitives":[
				{
					"attributes":{
						"POSITION":8,
						"NORMAL":9,
						"TEXCOORD_0":10,
						"TANGENT":11
					},
					"indices":12,
					"material":1
				},
				{
					"attributes":{
						"POSITION":13,
						"NORMAL":14,
						"TEXCOORD_0":15,
						"TANGENT":16
					},
					"indices":17,
					"material":2
				}
			]
		},
		{
			"name":"Cylinder.001",
			"primitives":[
				{
					"attributes":{
						"POSITION":18,
						"NORMAL":19,
						"TEXCOORD_0":20
					},
					"indices":21,
					"material":0
				},
				{
					"attributes":{
						"POSITION":22,
						"NORMAL":23,
						"TEXCOORD_0":24
					},
					"indices":25,
					"material":1
				}
			]
		},
		{
			"name":"Cylinder.003",
			"primitives":[
				{
					"attributes":{
						"POSITION":26,
						"NORMAL":27,
						"TEXCOORD_0":28,
						"TANGENT":29
					},
					"indices":30,
					"material":0
				}
			]
		},
		{
			"name":"Cylinder.011",
			"primitives":[
				{
					"attributes":{
						"POSITION":31,
						"NORMAL":32,
						"TEXCOORD_0":33,
						"TANGENT":34
					},
					"indices":35,
					"material":3
				},
				{
					"attributes":{
						"POSITION":36,
						"NORMAL":37,
						"TEXCOORD_0":38,
						"TANGENT":39
					},
					"indices":40,
					"material":2
				}
			]
		},
		{
			"name":"Body",
			"primitives":[
				{
					"attributes":{
						"POSITION":41,
						"NORMAL":42,
						"TEXCOORD_0":43
					},
					"indices":44,
					"material":4
				},
				{
					"attributes":{
						"POSITION":45,
						"NORMAL":46,
						"TEXCOORD_0":47
					},
					"indices":48,
					"material":5
				},
				{
					"attributes":{
						"POSITION":49,
						"NORMAL":50,
						"TEXCOORD_0":51
					},
					"indices":52,
					"material":0
				},
				{
					"attributes":{
						"POSITION":53,
						"NORMAL":54,
						"TEXCOORD_0":55
					},
					"indices":56,
					"material":1
				}
			]
		}
	],
	"accessors":[
		{
			"bufferView":0,
			"componentType":5126,
			"count":204,
			"max":[
				0.005854970309883356,
				0.012465888634324074,
				0.01680055633187294
			],
			"min":[
				-0.00584816699847579,
				-0.016948845237493515,
				-0.012599416077136993
			],
			"type":"VEC3"
		},
		{
			"bufferView":1,
			"componentType":5126,
			"count":204,
			"type":"VEC3"
		},
		{
			"bufferView":2,
			"componentType":5126,
			"count":204,
			"type":"VEC2"
		},
		{
			"bufferView":3,
			"componentType":5123,
			"count":312,
			"type":"SCALAR"
		},
		{
			"bufferView":4,
			"componentType":5126,
			"count":148,
			"max":[
				0.0006243382813408971,
				0.013509630225598812,
				0.01761983148753643
			],
			"min":[
				-0.0006175347371026874,
				-0.01795973815023899,
				-0.013629907742142677
			],
			"type":"VEC3"
		},
		{
			"bufferView":5,
			"componentType":5126,
			"count":148,
			"type":"VEC3"
		},
		{
			"bufferView":6,
			"componentType":5126,
			"count":148,
			"type":"VEC2"
		},
		{
			"bufferView":7,
			"componentType":5123,
			"count":324,
			"type":"SCALAR"
		},
		{
			"bufferView":8,
			"componentType":5126,
			"count":504,
			"max":[
				0.017637059092521667,
				0.020366832613945007,
				0.00974266231060028
			],
			"min":[
				-0.017638280987739563,
				-0.02036718837916851,
				-0.019222944974899292
			],
			"type":"VEC3"
		},
		{
			"bufferView":9,
			"componentType":5126,
			"count":504,
			"type":"VEC3"
		},
		{
			"bufferView":10,
			"componentType":5126,
			"count":504,
			"type":"VEC2"
		},
		{
			"bufferView":11,
			"componentType":5126,
			"count":504,
			"type":"VEC4"
		},
		{
			"bufferView":12,
			"componentType":5123,
			"count":756,
			"type":"SCALAR"
		},
		{
			"bufferView":13,
			"componentType":5126,
			"count":24,
			"max":[
				0.01536424271762371,
				0.017741095274686813,
				-0.0167451910674572
			],
			"min":[
				-0.01536424458026886,
				-0.017741098999977112,
				-0.016778448596596718
			],
			"type":"VEC3"
		},
		{
			"bufferView":14,
			"componentType":5126,
			"count":24,
			"type":"VEC3"
		},
		{
			"bufferView":15,
			"componentType":5126,
			"count":24,
			"type":"VEC2"
		},
		{
			"bufferView":16,
			"componentType":5126,
			"count":24,
			"type":"VEC4"
		},
		{
			"bufferView":17,
			"componentType":5123,
			"count":36,
			"type":"SCALAR"
		},
		{
			"bufferView":18,
			"componentType":5126,
			"count":36,
			"max":[
				0.021650634706020355,
				0.024281123653054237,
				0.024001378566026688
			],
			"min":[
				-0.021650634706020355,
				-0.024281123653054237,
				-0.024001378566026688
			],
			"type":"VEC3"
		},
		{
			"bufferView":19,
			"componentType":5126,
			"count":36,
			"type":"VEC3"
		},
		{
			"bufferView":20,
			"componentType":5126,
			"count":36,
			"type":"VEC2"
		},
		{
			"bufferView":21,
			"componentType":5123,
			"count":60,
			"type":"SCALAR"
		},
		{
			"bufferView":22,
			"componentType":5126,
			"count":252,
			"max":[
				0.022652070969343185,
				0.025324257090687752,
				0.024825504049658775
			],
			"min":[
				-0.022652070969343185,
				-0.025324257090687752,
				-0.024825504049658775
			],
			"type":"VEC3"
		},
		{
			"bufferView":23,
			"componentType":5126,
			"count":252,
			"type":"VEC3"
		},
		{
			"bufferView":24,
			"componentType":5126,
			"count":252,
			"type":"VEC2"
		},
		{
			"bufferView":25,
			"componentType":5123,
			"count":360,
			"type":"SCALAR"
		},
		{
			"bufferView":26,
			"componentType":5126,
			"count":40,
			"max":[
				0.013744493946433067,
				0.005000000353902578,
				0.016067814081907272
			],
			"min":[
				-0.02029508352279663,
				-0.004999999888241291,
				-0.010035178624093533
			],
			"type":"VEC3"
		},
		{
			"bufferView":27,
			"componentType":5126,
			"count":40,
			"type":"VEC3"
		},
		{
			"bufferView":28,
			"componentType":5126,
			"count":40,
			"type":"VEC2"
		},
		{
			"bufferView":29,
			"componentType":5126,
			"count":40,
			"type":"VEC4"
		},
		{
			"bufferView":30,
			"componentType":5123,
			"count":60,
			"type":"SCALAR"
		},
		{
			"bufferView":31,
			"componentType":5126,
			"count":100,
			"max":[
				0.008329055272042751,
				0.008329054340720177,
				0.015000000596046448
			],
			"min":[
				-0.0083290571346879,
				-0.008329055272042751,
				-0.01902955397963524
			],
			"type":"VEC3"
		},
		{
			"bufferView":32,
			"componentType":5126,
			"count":100,
			"type":"VEC3"
		},
		{
			"bufferView":33,
			"componentType":5126,
			"count":100,
			"type":"VEC2"
		},
		{
			"bufferView":34,
			"componentType":5126,
			"count":100,
			"type":"VEC4"
		},
		{
			"bufferView":35,
			"componentType":5123,
			"count":150,
			"type":"SCALAR"
		},
		{
			"bufferView":36,
			"componentType":5126,
			"count":4,
			"max":[
				0.005038261879235506,
				0.005038260482251644,
				-0.015570157207548618
			],
			"min":[
				-0.005038263741880655,
				-0.005038260482251644,
				-0.015570157207548618
			],
			"type":"VEC3"
		},
		{
			"bufferView":37,
			"componentType":5126,
			"count":4,
			"type":"VEC3"
		},
		{
			"bufferView":38,
			"componentType":5126,
			"count":4,
			"type":"VEC2"
		},
		{
			"bufferView":39,
			"componentType":5126,
			"count":4,
			"type":"VEC4"
		},
		{
			"bufferView":40,
			"componentType":5123,
			"count":6,
			"type":"SCALAR"
		},
		{
			"bufferView":41,
			"componentType":5126,
			"count":488,
			"max":[
				0.014611381106078625,
				0.06661411374807358,
				0.08565951138734818
			],
			"min":[
				-0.014611381106078625,
				-0.03065236285328865,
				-0.063865065574646
			],
			"type":"VEC3"
		},
		{
			"bufferView":42,
			"componentType":5126,
			"count":488,
			"type":"VEC3"
		},
		{
			"bufferView":43,
			"componentType":5126,
			"count":488,
			"type":"VEC2"
		},
		{
			"bufferView":44,
			"componentType":5123,
			"count":756,
			"type":"SCALAR"
		},
		{
			"bufferView":45,
			"componentType":5126,
			"count":260,
			"max":[
				0.020114706829190254,
				0.034957922995090485,
				-0.03688109666109085
			],
			"min":[
				-0.020114706829190254,
				-0.07332779467105865,
				-0.11793696880340576
			],
			"type":"VEC3"
		},
		{
			"bufferView":46,
			"componentType":5126,
			"count":260,
			"type":"VEC3"
		},
		{
			"bufferView":47,
			"componentType":5126,
			"count":260,
			"type":"VEC2"
		},
		{
			"bufferView":48,
			"componentType":5123,
			"count":396,
			"type":"SCALAR"
		},
		{
			"bufferView":49,
			"componentType":5126,
			"count":254,
			"max":[
				0.016331946477293968,
				0.06001519411802292,
				0.11338656395673752
			],
			"min":[
				-0.016331946477293968,
				0.030344821512699127,
				-0.06666730344295502
			],
			"type":"VEC3"
		},
		{
			"bufferView":50,
			"componentType":5126,
			"count":254,
			"type":"VEC3"
		},
		{
			"bufferView":51,
			"componentType":5126,
			"count":254,
			"type":"VEC2"
		},
		{
			"bufferView":52,
			"componentType":5123,
			"count":438,
			"type":"SCALAR"
		},
		{
			"bufferView":53,
			"componentType":5126,
			"count":734,
			"max":[
				0.017696866765618324,
				0.067388616502285,
				0.10138601064682007
			],
			"min":[
				-0.017696866765618324,
				-0.03148302435874939,
				-0.05481285974383354
			],
			"type":"VEC3"
		},
		{
			"bufferView":54,
			"componentType":5126,
			"count":734,
			"type":"VEC3"
		},
		{
			"bufferView":55,
			"componentType":5126,
			"count":734,
			"type":"VEC2"
		},
		{
			"bufferView":56,
			"componentType":5123,
			"count":1092,
			"type":"SCALAR"
		}
	],
	"bufferViews":[
		{
			"buffer":0,
			"byteLength":2448,
			"byteOffset":0,
			"target":34962
		},
		{
			"buffer":0,
			"byteLength":2448,
			"byteOffset":2448,
			"target":34962
		},
		{
			"buffer":0,
			"byteLength":1632,
			"byteOffset":4896,
			"target":34962
		},
		{
			"buffer":0,
			"byteLength":624,
			"byteOffset":6528,
			"target":34963
		},
		{
			"buffer":0,
			"byteLength":1776,
			"byteOffset":7152,
			"target":34962
		},
		{
			"buffer":0,
			"byteLength":1776,
			"byteOffset":8928,
			"target":34962
		},
		{
			"buffer":0,
			"byteLength":1184,
			"byteOffset":10704,
			"target":34962
		},
		{
			"buffer":0,
			"byteLength":648,
			"byteOffset":11888,
			"target":34963
		},
		{
			"buffer":0,
			"byteLength":6048,
			"byteOffset":12536,
			"target":34962
		},
		{
			"buffer":0,
			"byteLength":6048,
			"byteOffset":18584,
			"target":34962
		},
		{
			"buffer":0,
			"byteLength":4032,
			"byteOffset":24632,
			"target":34962
		},
		{
			"buffer":0,
			"byteLength":8064,
			"byteOffset":28664,
			"target":34962
		},
		{
			"buffer":0,
			"byteLength":1512,
			"byteOffset":36728,
			"target":34963
		},
		{
			"buffer":0,
			"byteLength":288,
			"byteOffset":38240,
			"target":34962
		},
		{
			"buffer":0,
			"byteLength":288,
			"byteOffset":38528,
			"target":34962
		},
		{
			"buffer":0,
			"byteLength":192,
			"byteOffset":38816,
			"target":34962
		},
		{
			"buffer":0,
			"byteLength":384,
			"byteOffset":39008,
			"target":34962
		},
		{
			"buffer":0,
			"byteLength":72,
			"byteOffset":39392,
			"target":34963
		},
		{
			"buffer":0,
			"byteLength":432,
			"byteOffset":39464,
			"target":34962
		},
		{
			"buffer":0,
			"byteLength":432,
			"byteOffset":39896,
			"target":34962
		},
		{
			"buffer":0,
			"byteLength":288,
			"byteOffset":40328,
			"target":34962
		},
		{
			"buffer":0,
			"byteLength":120,
			"byteOffset":40616,
			"target":34963
		},
		{
			"buffer":0,
			"byteLength":3024,
			"byteOffset":40736,
			"target":34962
		},
		{
			"buffer":0,
			"byteLength":3024,
			"byteOffset":43760,
			"target":34962
		},
		{
			"buffer":0,
			"byteLength":2016,
			"byteOffset":46784,
			"target":34962
		},
		{
			"buffer":0,
			"byteLength":720,
			"byteOffset":48800,
			"target":34963
		},
		{
			"buffer":0,
			"byteLength":480,
			"byteOffset":49520,
			"target":34962
		},
		{
			"buffer":0,
			"byteLength":480,
			"byteOffset":50000,
			"target":34962
		},
		{
			"buffer":0,
			"byteLength":320,
			"byteOffset":50480,
			"target":34962
		},
		{
			"buffer":0,
			"byteLength":640,
			"byteOffset":50800,
			"target":34962
		},
		{
			"buffer":0,
			"byteLength":120,
			"byteOffset":51440,
			"target":34963
		},
		{
			"buffer":0,
			"byteLength":1200,
			"byteOffset":51560,
			"target":34962
		},
		{
			"buffer":0,
			"byteLength":1200,
			"byteOffset":52760,
			"target":34962
		},
		{
			"buffer":0,
			"byteLength":800,
			"byteOffset":53960,
			"target":34962
		},
		{
			"buffer":0,
			"byteLength":1600,
			"byteOffset":54760,
			"target":34962
		},
		{
			"buffer":0,
			"byteLength":300,
			"byteOffset":56360,
			"target":34963
		},
		{
			"buffer":0,
			"byteLength":48,
			"byteOffset":56660,
			"target":34962
		},
		{
			"buffer":0,
			"byteLength":48,
			"byteOffset":56708,
			"target":34962
		},
		{
			"buffer":0,
			"byteLength":32,
			"byteOffset":56756,
			"target":34962
		},
		{
			"buffer":0,
			"byteLength":64,
			"byteOffset":56788,
			"target":34962
		},
		{
			"buffer":0,
			"byteLength":12,
			"byteOffset":56852,
			"target":34963
		},
		{
			"buffer":0,
			"byteLength":5856,
			"byteOffset":56864,
			"target":34962
		},
		{
			"buffer":0,
			"byteLength":5856,
			"byteOffset":62720,
			"target":34962
		},
		{
			"buffer":0,
			"byteLength":3904,
			"byteOffset":68576,
			"target":34962
		},
		{
			"buffer":0,
			"byteLength":1512,
			"byteOffset":72480,
			"target":34963
		},
		{
			"buffer":0,
			"byteLength":3120,
			"byteOffset":73992,
			"target":34962
		},
		{
			"buffer":0,
			"byteLength":3120,
			"byteOffset":77112,
			"target":34962
		},
		{
			"buffer":0,
			"byteLength":2080,
			"byteOffset":80232,
			"target":34962
		},
		{
			"buffer":0,
			"byteLength":792,
			"byteOffset":82312,
			"target":34963
		},
		{
			"buffer":0,
			"byteLength":3048,
			"byteOffset":83104,
			"target":34962
		},
		{
			"buffer":0,
			"byteLength":3048,
			"byteOffset":86152,
			"target":34962
		},
		{
			"buffer":0,
			"byteLength":2032,
			"byteOffset":89200,
			"target":34962
		},
		{
			"buffer":0,
			"byteLength":876,
			"byteOffset":91232,
			"target":34963
		},
		{
			"buffer":0,
			"byteLength":8808,
			"byteOffset":92108,
			"target":34962
		},
		{
			"buffer":0,
			"byteLength":8808,
			"byteOffset":100916,
			"target":34962
		},
		{
			"buffer":0,
			"byteLength":5872,
			"byteOffset":109724,
			"target":34962
		},
		{
			"buffer":0,
			"byteLength":2184,
			"byteOffset":115596,
			"target":34963
		}
	],
	"buffers":[
		{
			"byteLength":117780,
			"uri":"mdl_revolver-50a3ad7f8cbc7c6ffd45a88f7774aa8e.bin"
		}
	]
}
