{
	"asset":{
		"generator":"Khronos glTF Blender I/O v4.0.44",
		"version":"2.0"
	},
	"scene":0,
	"scenes":[
		{
			"name":"Scene",
			"nodes":[
				0
			]
		}
	],
	"nodes":[
		{
			"mesh":0,
			"name":"Plane.044",
			"translation":[
				1,
				0,
				-4
			]
		}
	],
	"materials":[
		{
			"doubleSided":true,
			"name":"GrassLight",
			"pbrMetallicRoughness":{
				"baseColorFactor":[
					0.0008063187124207616,
					0.5866305232048035,
					0.006862538401037455,
					1
				],
				"metallicFactor":0,
				"roughnessFactor":0.5
			}
		},
		{
			"doubleSided":true,
			"name":"GrassDark",
			"pbrMetallicRoughness":{
				"baseColorFactor":[
					0.014148859307169914,
					0.32132214307785034,
					0.0900476723909378,
					1
				],
				"metallicFactor":0,
				"roughnessFactor":0.5
			}
		},
		{
			"doubleSided":true,
			"name":"Concrete",
			"pbrMetallicRoughness":{
				"baseColorFactor":[
					0.3994406759738922,
					0.3994406759738922,
					0.3994406759738922,
					1
				],
				"metallicFactor":0,
				"roughnessFactor":0.5
			}
		},
		{
			"doubleSided":true,
			"name":"Blacktop",
			"pbrMetallicRoughness":{
				"baseColorFactor":[
					0.023169085383415222,
					0.023169085383415222,
					0.023169085383415222,
					1
				],
				"metallicFactor":0,
				"roughnessFactor":0.5
			}
		},
		{
			"doubleSided":true,
			"name":"LightConcrete",
			"pbrMetallicRoughness":{
				"baseColorFactor":[
					0.9616422653198242,
					0.9616422653198242,
					0.9616422653198242,
					1
				],
				"metallicFactor":0,
				"roughnessFactor":0.5
			}
		},
		{
			"doubleSided":true,
			"name":"LightBlacktop",
			"pbrMetallicRoughness":{
				"baseColorFactor":[
					0.05554329976439476,
					0.05554329976439476,
					0.05554329976439476,
					1
				],
				"metallicFactor":0,
				"roughnessFactor":0.5
			}
		}
	],
	"meshes":[
		{
			"name":"Plane.044",
			"primitives":[
				{
					"attributes":{
						"POSITION":0,
						"NORMAL":1,
						"TEXCOORD_0":2,
						"TANGENT":3
					},
					"indices":4,
					"material":0
				},
				{
					"attributes":{
						"POSITION":5,
						"NORMAL":6,
						"TEXCOORD_0":7,
						"TANGENT":8
					},
					"indices":9,
					"material":1
				},
				{
					"attributes":{
						"POSITION":10,
						"NORMAL":11,
						"TEXCOORD_0":12,
						"TANGENT":13
					},
					"indices":14,
					"material":2
				},
				{
					"attributes":{
						"POSITION":15,
						"NORMAL":16,
						"TEXCOORD_0":17,
						"TANGENT":18
					},
					"indices":19,
					"material":3
				},
				{
					"attributes":{
						"POSITION":20,
						"NORMAL":21,
						"TEXCOORD_0":22,
						"TANGENT":23
					},
					"indices":24,
					"material":4
				},
				{
					"attributes":{
						"POSITION":25,
						"NORMAL":26,
						"TEXCOORD_0":27,
						"TANGENT":28
					},
					"indices":29,
					"material":5
				}
			]
		}
	],
	"accessors":[
		{
			"bufferView":0,
			"componentType":5126,
			"count":92,
			"max":[
				1.5,
				0,
				8.5
			],
			"min":[
				-3.5,
				0,
				-0.5
			],
			"type":"VEC3"
		},
		{
			"bufferView":1,
			"componentType":5126,
			"count":92,
			"type":"VEC3"
		},
		{
			"bufferView":2,
			"componentType":5126,
			"count":92,
			"type":"VEC2"
		},
		{
			"bufferView":3,
			"componentType":5126,
			"count":92,
			"type":"VEC4"
		},
		{
			"bufferView":4,
			"componentType":5123,
			"count":138,
			"type":"SCALAR"
		},
		{
			"bufferView":5,
			"componentType":5126,
			"count":88,
			"max":[
				1.5,
				0,
				8.5
			],
			"min":[
				-3.5,
				0,
				-0.5
			],
			"type":"VEC3"
		},
		{
			"bufferView":6,
			"componentType":5126,
			"count":88,
			"type":"VEC3"
		},
		{
			"bufferView":7,
			"componentType":5126,
			"count":88,
			"type":"VEC2"
		},
		{
			"bufferView":8,
			"componentType":5126,
			"count":88,
			"type":"VEC4"
		},
		{
			"bufferView":9,
			"componentType":5123,
			"count":132,
			"type":"SCALAR"
		},
		{
			"bufferView":10,
			"componentType":5126,
			"count":136,
			"max":[
				1.5,
				0.0949012041091919,
				13.177017211914062
			],
			"min":[
				-3.5,
				0,
				-1.9529750347137451
			],
			"type":"VEC3"
		},
		{
			"bufferView":11,
			"componentType":5126,
			"count":136,
			"type":"VEC3"
		},
		{
			"bufferView":12,
			"componentType":5126,
			"count":136,
			"type":"VEC2"
		},
		{
			"bufferView":13,
			"componentType":5126,
			"count":136,
			"type":"VEC4"
		},
		{
			"bufferView":14,
			"componentType":5123,
			"count":252,
			"type":"SCALAR"
		},
		{
			"bufferView":15,
			"componentType":5126,
			"count":8,
			"max":[
				0.5,
				0,
				-1.9529750347137451
			],
			"min":[
				-2.5,
				0,
				-7.733141899108887
			],
			"type":"VEC3"
		},
		{
			"bufferView":16,
			"componentType":5126,
			"count":8,
			"type":"VEC3"
		},
		{
			"bufferView":17,
			"componentType":5126,
			"count":8,
			"type":"VEC2"
		},
		{
			"bufferView":18,
			"componentType":5126,
			"count":8,
			"type":"VEC4"
		},
		{
			"bufferView":19,
			"componentType":5123,
			"count":12,
			"type":"SCALAR"
		},
		{
			"bufferView":20,
			"componentType":5126,
			"count":49,
			"max":[
				1.5,
				0.0949012041091919,
				13.177017211914062
			],
			"min":[
				-3.5,
				0.09075073897838593,
				-1.9529750347137451
			],
			"type":"VEC3"
		},
		{
			"bufferView":21,
			"componentType":5126,
			"count":49,
			"type":"VEC3"
		},
		{
			"bufferView":22,
			"componentType":5126,
			"count":49,
			"type":"VEC2"
		},
		{
			"bufferView":23,
			"componentType":5126,
			"count":49,
			"type":"VEC4"
		},
		{
			"bufferView":24,
			"componentType":5123,
			"count":78,
			"type":"SCALAR"
		},
		{
			"bufferView":25,
			"componentType":5126,
			"count":12,
			"max":[
				1.5,
				0,
				-1.9529750347137451
			],
			"min":[
				-3.5,
				0,
				-7.733141899108887
			],
			"type":"VEC3"
		},
		{
			"bufferView":26,
			"componentType":5126,
			"count":12,
			"type":"VEC3"
		},
		{
			"bufferView":27,
			"componentType":5126,
			"count":12,
			"type":"VEC2"
		},
		{
			"bufferView":28,
			"componentType":5126,
			"count":12,
			"type":"VEC4"
		},
		{
			"bufferView":29,
			"componentType":5123,
			"count":18,
			"type":"SCALAR"
		}
	],
	"bufferViews":[
		{
			"buffer":0,
			"byteLength":1104,
			"byteOffset":0,
			"target":34962
		},
		{
			"buffer":0,
			"byteLength":1104,
			"byteOffset":1104,
			"target":34962
		},
		{
			"buffer":0,
			"byteLength":736,
			"byteOffset":2208,
			"target":34962
		},
		{
			"buffer":0,
			"byteLength":1472,
			"byteOffset":2944,
			"target":34962
		},
		{
			"buffer":0,
			"byteLength":276,
			"byteOffset":4416,
			"target":34963
		},
		{
			"buffer":0,
			"byteLength":1056,
			"byteOffset":4692,
			"target":34962
		},
		{
			"buffer":0,
			"byteLength":1056,
			"byteOffset":5748,
			"target":34962
		},
		{
			"buffer":0,
			"byteLength":704,
			"byteOffset":6804,
			"target":34962
		},
		{
			"buffer":0,
			"byteLength":1408,
			"byteOffset":7508,
			"target":34962
		},
		{
			"buffer":0,
			"byteLength":264,
			"byteOffset":8916,
			"target":34963
		},
		{
			"buffer":0,
			"byteLength":1632,
			"byteOffset":9180,
			"target":34962
		},
		{
			"buffer":0,
			"byteLength":1632,
			"byteOffset":10812,
			"target":34962
		},
		{
			"buffer":0,
			"byteLength":1088,
			"byteOffset":12444,
			"target":34962
		},
		{
			"buffer":0,
			"byteLength":2176,
			"byteOffset":13532,
			"target":34962
		},
		{
			"buffer":0,
			"byteLength":504,
			"byteOffset":15708,
			"target":34963
		},
		{
			"buffer":0,
			"byteLength":96,
			"byteOffset":16212,
			"target":34962
		},
		{
			"buffer":0,
			"byteLength":96,
			"byteOffset":16308,
			"target":34962
		},
		{
			"buffer":0,
			"byteLength":64,
			"byteOffset":16404,
			"target":34962
		},
		{
			"buffer":0,
			"byteLength":128,
			"byteOffset":16468,
			"target":34962
		},
		{
			"buffer":0,
			"byteLength":24,
			"byteOffset":16596,
			"target":34963
		},
		{
			"buffer":0,
			"byteLength":588,
			"byteOffset":16620,
			"target":34962
		},
		{
			"buffer":0,
			"byteLength":588,
			"byteOffset":17208,
			"target":34962
		},
		{
			"buffer":0,
			"byteLength":392,
			"byteOffset":17796,
			"target":34962
		},
		{
			"buffer":0,
			"byteLength":784,
			"byteOffset":18188,
			"target":34962
		},
		{
			"buffer":0,
			"byteLength":156,
			"byteOffset":18972,
			"target":34963
		},
		{
			"buffer":0,
			"byteLength":144,
			"byteOffset":19128,
			"target":34962
		},
		{
			"buffer":0,
			"byteLength":144,
			"byteOffset":19272,
			"target":34962
		},
		{
			"buffer":0,
			"byteLength":96,
			"byteOffset":19416,
			"target":34962
		},
		{
			"buffer":0,
			"byteLength":192,
			"byteOffset":19512,
			"target":34962
		},
		{
			"buffer":0,
			"byteLength":36,
			"byteOffset":19704,
			"target":34963
		}
	],
	"buffers":[
		{
			"byteLength":19740,
			"uri":"mdl_lawn-d891a3db31e2fe81df64017a143611e5.bin"
		}
	]
}
