{
	"asset":{
		"generator":"Khronos glTF Blender I/O v4.2.57",
		"version":"2.0"
	},
	"scene":0,
	"scenes":[
		{
			"name":"Scene",
			"nodes":[
				0,
				1
			]
		}
	],
	"nodes":[
		{
			"mesh":0,
			"name":"Goob"
		},
		{
			"mesh":1,
			"name":"Cylinder"
		}
	],
	"materials":[
		{
			"name":"Main",
			"pbrMetallicRoughness":{
				"baseColorFactor":[
					0.49927523732185364,
					0.3151054084300995,
					0.2455565333366394,
					1
				],
				"metallicFactor":0
			}
		},
		{
			"doubleSided":true,
			"name":"Base",
			"pbrMetallicRoughness":{
				"baseColorFactor":[
					0.3415762484073639,
					0.333083838224411,
					0.333083838224411,
					1
				],
				"metallicFactor":0
			}
		}
	],
	"meshes":[
		{
			"name":"Cube.001",
			"primitives":[
				{
					"attributes":{
						"POSITION":0,
						"NORMAL":1,
						"TEXCOORD_0":2,
						"TANGENT":3
					},
					"indices":4,
					"material":0
				}
			]
		},
		{
			"name":"Cylinder",
			"primitives":[
				{
					"attributes":{
						"POSITION":5,
						"NORMAL":6,
						"TEXCOORD_0":7,
						"TANGENT":8
					},
					"indices":9,
					"material":1
				}
			]
		}
	],
	"accessors":[
		{
			"bufferView":0,
			"componentType":5126,
			"count":432,
			"max":[
				0.22200506925582886,
				1.264427900314331,
				0.5010635852813721
			],
			"min":[
				-0.22200506925582886,
				-0.0053003448992967606,
				-0.3450165390968323
			],
			"type":"VEC3"
		},
		{
			"bufferView":1,
			"componentType":5126,
			"count":432,
			"type":"VEC3"
		},
		{
			"bufferView":2,
			"componentType":5126,
			"count":432,
			"type":"VEC2"
		},
		{
			"bufferView":3,
			"componentType":5126,
			"count":432,
			"type":"VEC4"
		},
		{
			"bufferView":4,
			"componentType":5123,
			"count":648,
			"type":"SCALAR"
		},
		{
			"bufferView":5,
			"componentType":5126,
			"count":96,
			"max":[
				0.25,
				0.10103903710842133,
				0.2690492272377014
			],
			"min":[
				-0.25,
				-0.013248886913061142,
				-0.23095077276229858
			],
			"type":"VEC3"
		},
		{
			"bufferView":6,
			"componentType":5126,
			"count":96,
			"type":"VEC3"
		},
		{
			"bufferView":7,
			"componentType":5126,
			"count":96,
			"type":"VEC2"
		},
		{
			"bufferView":8,
			"componentType":5126,
			"count":96,
			"type":"VEC4"
		},
		{
			"bufferView":9,
			"componentType":5123,
			"count":144,
			"type":"SCALAR"
		}
	],
	"bufferViews":[
		{
			"buffer":0,
			"byteLength":5184,
			"byteOffset":0,
			"target":34962
		},
		{
			"buffer":0,
			"byteLength":5184,
			"byteOffset":5184,
			"target":34962
		},
		{
			"buffer":0,
			"byteLength":3456,
			"byteOffset":10368,
			"target":34962
		},
		{
			"buffer":0,
			"byteLength":6912,
			"byteOffset":13824,
			"target":34962
		},
		{
			"buffer":0,
			"byteLength":1296,
			"byteOffset":20736,
			"target":34963
		},
		{
			"buffer":0,
			"byteLength":1152,
			"byteOffset":22032,
			"target":34962
		},
		{
			"buffer":0,
			"byteLength":1152,
			"byteOffset":23184,
			"target":34962
		},
		{
			"buffer":0,
			"byteLength":768,
			"byteOffset":24336,
			"target":34962
		},
		{
			"buffer":0,
			"byteLength":1536,
			"byteOffset":25104,
			"target":34962
		},
		{
			"buffer":0,
			"byteLength":288,
			"byteOffset":26640,
			"target":34963
		}
	],
	"buffers":[
		{
			"byteLength":26928,
			"uri":"mdl_trainingDummy-58666c64d5384881f5ac719c56605893.bin"
		}
	]
}
