{
	"asset":{
		"generator":"Khronos glTF Blender I/O v4.0.44",
		"version":"2.0"
	},
	"scene":0,
	"scenes":[
		{
			"name":"Scene",
			"nodes":[
				10
			]
		}
	],
	"nodes":[
		{
			"mesh":0,
			"name":"Hammer",
			"translation":[
				-3.401665253477404e-06,
				0.05451510101556778,
				-0.0555250346660614
			]
		},
		{
			"mesh":1,
			"name":"Fuses",
			"translation":[
				0,
				0,
				-0.010550029575824738
			]
		},
		{
			"children":[
				1
			],
			"mesh":2,
			"name":"Spinner",
			"translation":[
				0,
				0.037576720118522644,
				0.0063071176409721375
			]
		},
		{
			"mesh":3,
			"name":"Trigger",
			"rotation":[
				0,
				0,
				0.7071068286895752,
				0.7071068286895752
			],
			"translation":[
				0,
				0.008617420680820942,
				-0.02020147070288658
			]
		},
		{
			"mesh":4,
			"name":"WarpFuseL1",
			"rotation":[
				-0.6743798851966858,
				-0.21263068914413452,
				-0.674379825592041,
				0.21263070404529572
			],
			"scale":[
				-0.5752161145210266,
				-0.5752161145210266,
				-0.5752161145210266
			],
			"translation":[
				0.009963641874492168,
				0.047881077975034714,
				0.058207541704177856
			]
		},
		{
			"mesh":5,
			"name":"WarpFuseL2",
			"rotation":[
				-0.6743798851966858,
				-0.21263068914413452,
				-0.674379825592041,
				0.21263070404529572
			],
			"scale":[
				-0.5752161145210266,
				-0.5752161145210266,
				-0.5752161145210266
			],
			"translation":[
				0.009963641874492168,
				0.047881077975034714,
				0.06759956479072571
			]
		},
		{
			"mesh":6,
			"name":"WarpFuseL3",
			"rotation":[
				-0.6743798851966858,
				-0.21263068914413452,
				-0.674379825592041,
				0.21263070404529572
			],
			"scale":[
				-0.5752161145210266,
				-0.5752161145210266,
				-0.5752161145210266
			],
			"translation":[
				0.009963641874492168,
				0.047881077975034714,
				0.07678486406803131
			]
		},
		{
			"mesh":7,
			"name":"WarpFuseR1",
			"rotation":[
				0.21263070404529572,
				0.6743798851966858,
				-0.21263068914413452,
				0.674379825592041
			],
			"scale":[
				0.5752161145210266,
				0.5752161145210266,
				0.5752161145210266
			],
			"translation":[
				-0.009963641874492168,
				0.047881077975034714,
				0.058207541704177856
			]
		},
		{
			"mesh":8,
			"name":"WarpFuseR2",
			"rotation":[
				0.21263070404529572,
				0.6743798851966858,
				-0.21263068914413452,
				0.674379825592041
			],
			"scale":[
				0.5752161145210266,
				0.5752161145210266,
				0.5752161145210266
			],
			"translation":[
				-0.009963641874492168,
				0.047881077975034714,
				0.06759956479072571
			]
		},
		{
			"mesh":9,
			"name":"WarpFuseR3",
			"rotation":[
				0.21263070404529572,
				0.6743798851966858,
				-0.21263068914413452,
				0.674379825592041
			],
			"scale":[
				0.5752161145210266,
				0.5752161145210266,
				0.5752161145210266
			],
			"translation":[
				-0.009963641874492168,
				0.047881077975034714,
				0.07678486406803131
			]
		},
		{
			"children":[
				0,
				2,
				3,
				4,
				5,
				6,
				7,
				8,
				9
			],
			"mesh":10,
			"name":"Body",
			"translation":[
				0,
				0.009425870142877102,
				0.0427994579076767
			]
		}
	],
	"materials":[
		{
			"doubleSided":true,
			"name":"Accent",
			"pbrMetallicRoughness":{
				"metallicFactor":0
			}
		},
		{
			"doubleSided":true,
			"name":"Trim",
			"pbrMetallicRoughness":{
				"baseColorFactor":[
					1,
					0.3908064365386963,
					0,
					1
				],
				"roughnessFactor":0.21568629145622253
			}
		},
		{
			"doubleSided":true,
			"name":"Fuse",
			"pbrMetallicRoughness":{
				"metallicFactor":0
			}
		},
		{
			"doubleSided":true,
			"name":"WarpFuse",
			"pbrMetallicRoughness":{
				"metallicFactor":0
			}
		},
		{
			"doubleSided":true,
			"name":"Main.001",
			"pbrMetallicRoughness":{
				"metallicFactor":0
			}
		},
		{
			"doubleSided":true,
			"name":"Grip",
			"pbrMetallicRoughness":{
				"metallicFactor":0
			}
		}
	],
	"meshes":[
		{
			"name":"Cylinder",
			"primitives":[
				{
					"attributes":{
						"POSITION":0,
						"NORMAL":1,
						"TEXCOORD_0":2
					},
					"indices":3,
					"material":0
				},
				{
					"attributes":{
						"POSITION":4,
						"NORMAL":5,
						"TEXCOORD_0":6
					},
					"indices":7,
					"material":1
				}
			]
		},
		{
			"name":"Cylinder.002",
			"primitives":[
				{
					"attributes":{
						"POSITION":8,
						"NORMAL":9,
						"TEXCOORD_0":10,
						"TANGENT":11
					},
					"indices":12,
					"material":2
				}
			]
		},
		{
			"name":"Cylinder.001",
			"primitives":[
				{
					"attributes":{
						"POSITION":13,
						"NORMAL":14,
						"TEXCOORD_0":15
					},
					"indices":16,
					"material":0
				},
				{
					"attributes":{
						"POSITION":17,
						"NORMAL":18,
						"TEXCOORD_0":19
					},
					"indices":20,
					"material":1
				}
			]
		},
		{
			"name":"Cylinder.003",
			"primitives":[
				{
					"attributes":{
						"POSITION":21,
						"NORMAL":22,
						"TEXCOORD_0":23,
						"TANGENT":24
					},
					"indices":25,
					"material":0
				}
			]
		},
		{
			"name":"Cylinder.009",
			"primitives":[
				{
					"attributes":{
						"POSITION":26,
						"NORMAL":27,
						"TEXCOORD_0":28,
						"TANGENT":29
					},
					"indices":30,
					"material":3
				}
			]
		},
		{
			"name":"Cylinder.008",
			"primitives":[
				{
					"attributes":{
						"POSITION":31,
						"NORMAL":32,
						"TEXCOORD_0":33,
						"TANGENT":34
					},
					"indices":30,
					"material":3
				}
			]
		},
		{
			"name":"Cylinder.006",
			"primitives":[
				{
					"attributes":{
						"POSITION":35,
						"NORMAL":36,
						"TEXCOORD_0":37,
						"TANGENT":38
					},
					"indices":30,
					"material":3
				}
			]
		},
		{
			"name":"Cylinder.012",
			"primitives":[
				{
					"attributes":{
						"POSITION":39,
						"NORMAL":40,
						"TEXCOORD_0":41,
						"TANGENT":42
					},
					"indices":30,
					"material":3
				}
			]
		},
		{
			"name":"Cylinder.011",
			"primitives":[
				{
					"attributes":{
						"POSITION":43,
						"NORMAL":44,
						"TEXCOORD_0":45,
						"TANGENT":46
					},
					"indices":30,
					"material":3
				}
			]
		},
		{
			"name":"Cylinder.010",
			"primitives":[
				{
					"attributes":{
						"POSITION":47,
						"NORMAL":48,
						"TEXCOORD_0":49,
						"TANGENT":50
					},
					"indices":30,
					"material":3
				}
			]
		},
		{
			"name":"Body",
			"primitives":[
				{
					"attributes":{
						"POSITION":51,
						"NORMAL":52,
						"TEXCOORD_0":53
					},
					"indices":54,
					"material":4
				},
				{
					"attributes":{
						"POSITION":55,
						"NORMAL":56,
						"TEXCOORD_0":57
					},
					"indices":58,
					"material":5
				},
				{
					"attributes":{
						"POSITION":59,
						"NORMAL":60,
						"TEXCOORD_0":61
					},
					"indices":62,
					"material":0
				},
				{
					"attributes":{
						"POSITION":63,
						"NORMAL":64,
						"TEXCOORD_0":65
					},
					"indices":66,
					"material":1
				}
			]
		}
	],
	"accessors":[
		{
			"bufferView":0,
			"componentType":5126,
			"count":204,
			"max":[
				0.005854970309883356,
				0.012465888634324074,
				0.01680055633187294
			],
			"min":[
				-0.00584816699847579,
				-0.016948845237493515,
				-0.012599416077136993
			],
			"type":"VEC3"
		},
		{
			"bufferView":1,
			"componentType":5126,
			"count":204,
			"type":"VEC3"
		},
		{
			"bufferView":2,
			"componentType":5126,
			"count":204,
			"type":"VEC2"
		},
		{
			"bufferView":3,
			"componentType":5123,
			"count":312,
			"type":"SCALAR"
		},
		{
			"bufferView":4,
			"componentType":5126,
			"count":148,
			"max":[
				0.0006243382813408971,
				0.013509630225598812,
				0.01761983148753643
			],
			"min":[
				-0.0006175347371026874,
				-0.01795973815023899,
				-0.013629907742142677
			],
			"type":"VEC3"
		},
		{
			"bufferView":5,
			"componentType":5126,
			"count":148,
			"type":"VEC3"
		},
		{
			"bufferView":6,
			"componentType":5126,
			"count":148,
			"type":"VEC2"
		},
		{
			"bufferView":7,
			"componentType":5123,
			"count":324,
			"type":"SCALAR"
		},
		{
			"bufferView":8,
			"componentType":5126,
			"count":144,
			"max":[
				0.01806727424263954,
				0.020862288773059845,
				0.015000000596046448
			],
			"min":[
				-0.01806727424263954,
				-0.020862288773059845,
				-0.015000000596046448
			],
			"type":"VEC3"
		},
		{
			"bufferView":9,
			"componentType":5126,
			"count":144,
			"type":"VEC3"
		},
		{
			"bufferView":10,
			"componentType":5126,
			"count":144,
			"type":"VEC2"
		},
		{
			"bufferView":11,
			"componentType":5126,
			"count":144,
			"type":"VEC4"
		},
		{
			"bufferView":12,
			"componentType":5123,
			"count":216,
			"type":"SCALAR"
		},
		{
			"bufferView":13,
			"componentType":5126,
			"count":36,
			"max":[
				0.021650634706020355,
				0.024281123653054237,
				0.024001378566026688
			],
			"min":[
				-0.021650634706020355,
				-0.024281123653054237,
				-0.024001378566026688
			],
			"type":"VEC3"
		},
		{
			"bufferView":14,
			"componentType":5126,
			"count":36,
			"type":"VEC3"
		},
		{
			"bufferView":15,
			"componentType":5126,
			"count":36,
			"type":"VEC2"
		},
		{
			"bufferView":16,
			"componentType":5123,
			"count":60,
			"type":"SCALAR"
		},
		{
			"bufferView":17,
			"componentType":5126,
			"count":252,
			"max":[
				0.022652070969343185,
				0.025324257090687752,
				0.024825504049658775
			],
			"min":[
				-0.022652070969343185,
				-0.025324257090687752,
				-0.024825504049658775
			],
			"type":"VEC3"
		},
		{
			"bufferView":18,
			"componentType":5126,
			"count":252,
			"type":"VEC3"
		},
		{
			"bufferView":19,
			"componentType":5126,
			"count":252,
			"type":"VEC2"
		},
		{
			"bufferView":20,
			"componentType":5123,
			"count":360,
			"type":"SCALAR"
		},
		{
			"bufferView":21,
			"componentType":5126,
			"count":40,
			"max":[
				0.013744493946433067,
				0.005000000353902578,
				0.016067814081907272
			],
			"min":[
				-0.02029508352279663,
				-0.004999999888241291,
				-0.010035178624093533
			],
			"type":"VEC3"
		},
		{
			"bufferView":22,
			"componentType":5126,
			"count":40,
			"type":"VEC3"
		},
		{
			"bufferView":23,
			"componentType":5126,
			"count":40,
			"type":"VEC2"
		},
		{
			"bufferView":24,
			"componentType":5126,
			"count":40,
			"type":"VEC4"
		},
		{
			"bufferView":25,
			"componentType":5123,
			"count":60,
			"type":"SCALAR"
		},
		{
			"bufferView":26,
			"componentType":5126,
			"count":24,
			"max":[
				0.0070440201088786125,
				0.007044017314910889,
				0.015000000596046448
			],
			"min":[
				-0.007044019177556038,
				-0.007044018246233463,
				-0.015000000596046448
			],
			"type":"VEC3"
		},
		{
			"bufferView":27,
			"componentType":5126,
			"count":24,
			"type":"VEC3"
		},
		{
			"bufferView":28,
			"componentType":5126,
			"count":24,
			"type":"VEC2"
		},
		{
			"bufferView":29,
			"componentType":5126,
			"count":24,
			"type":"VEC4"
		},
		{
			"bufferView":30,
			"componentType":5123,
			"count":36,
			"type":"SCALAR"
		},
		{
			"bufferView":31,
			"componentType":5126,
			"count":24,
			"max":[
				0.0070440201088786125,
				0.007044017314910889,
				0.015000000596046448
			],
			"min":[
				-0.007044019177556038,
				-0.007044018246233463,
				-0.015000000596046448
			],
			"type":"VEC3"
		},
		{
			"bufferView":32,
			"componentType":5126,
			"count":24,
			"type":"VEC3"
		},
		{
			"bufferView":33,
			"componentType":5126,
			"count":24,
			"type":"VEC2"
		},
		{
			"bufferView":34,
			"componentType":5126,
			"count":24,
			"type":"VEC4"
		},
		{
			"bufferView":35,
			"componentType":5126,
			"count":24,
			"max":[
				0.0070440201088786125,
				0.007044017314910889,
				0.015000000596046448
			],
			"min":[
				-0.007044019177556038,
				-0.007044018246233463,
				-0.015000000596046448
			],
			"type":"VEC3"
		},
		{
			"bufferView":36,
			"componentType":5126,
			"count":24,
			"type":"VEC3"
		},
		{
			"bufferView":37,
			"componentType":5126,
			"count":24,
			"type":"VEC2"
		},
		{
			"bufferView":38,
			"componentType":5126,
			"count":24,
			"type":"VEC4"
		},
		{
			"bufferView":39,
			"componentType":5126,
			"count":24,
			"max":[
				0.0070440201088786125,
				0.007044017314910889,
				0.015000000596046448
			],
			"min":[
				-0.007044019177556038,
				-0.007044018246233463,
				-0.015000000596046448
			],
			"type":"VEC3"
		},
		{
			"bufferView":40,
			"componentType":5126,
			"count":24,
			"type":"VEC3"
		},
		{
			"bufferView":41,
			"componentType":5126,
			"count":24,
			"type":"VEC2"
		},
		{
			"bufferView":42,
			"componentType":5126,
			"count":24,
			"type":"VEC4"
		},
		{
			"bufferView":43,
			"componentType":5126,
			"count":24,
			"max":[
				0.0070440201088786125,
				0.007044017314910889,
				0.015000000596046448
			],
			"min":[
				-0.007044019177556038,
				-0.007044018246233463,
				-0.015000000596046448
			],
			"type":"VEC3"
		},
		{
			"bufferView":44,
			"componentType":5126,
			"count":24,
			"type":"VEC3"
		},
		{
			"bufferView":45,
			"componentType":5126,
			"count":24,
			"type":"VEC2"
		},
		{
			"bufferView":46,
			"componentType":5126,
			"count":24,
			"type":"VEC4"
		},
		{
			"bufferView":47,
			"componentType":5126,
			"count":24,
			"max":[
				0.0070440201088786125,
				0.007044017314910889,
				0.015000000596046448
			],
			"min":[
				-0.007044019177556038,
				-0.007044018246233463,
				-0.015000000596046448
			],
			"type":"VEC3"
		},
		{
			"bufferView":48,
			"componentType":5126,
			"count":24,
			"type":"VEC3"
		},
		{
			"bufferView":49,
			"componentType":5126,
			"count":24,
			"type":"VEC2"
		},
		{
			"bufferView":50,
			"componentType":5126,
			"count":24,
			"type":"VEC4"
		},
		{
			"bufferView":51,
			"componentType":5126,
			"count":488,
			"max":[
				0.014611381106078625,
				0.06661411374807358,
				0.08565951138734818
			],
			"min":[
				-0.014611381106078625,
				-0.03065236285328865,
				-0.063865065574646
			],
			"type":"VEC3"
		},
		{
			"bufferView":52,
			"componentType":5126,
			"count":488,
			"type":"VEC3"
		},
		{
			"bufferView":53,
			"componentType":5126,
			"count":488,
			"type":"VEC2"
		},
		{
			"bufferView":54,
			"componentType":5123,
			"count":756,
			"type":"SCALAR"
		},
		{
			"bufferView":55,
			"componentType":5126,
			"count":260,
			"max":[
				0.020114706829190254,
				0.034957922995090485,
				-0.03688109666109085
			],
			"min":[
				-0.020114706829190254,
				-0.07332779467105865,
				-0.11793696880340576
			],
			"type":"VEC3"
		},
		{
			"bufferView":56,
			"componentType":5126,
			"count":260,
			"type":"VEC3"
		},
		{
			"bufferView":57,
			"componentType":5126,
			"count":260,
			"type":"VEC2"
		},
		{
			"bufferView":58,
			"componentType":5123,
			"count":396,
			"type":"SCALAR"
		},
		{
			"bufferView":59,
			"componentType":5126,
			"count":254,
			"max":[
				0.016331946477293968,
				0.06001519411802292,
				0.11338656395673752
			],
			"min":[
				-0.016331946477293968,
				0.030344821512699127,
				-0.06666730344295502
			],
			"type":"VEC3"
		},
		{
			"bufferView":60,
			"componentType":5126,
			"count":254,
			"type":"VEC3"
		},
		{
			"bufferView":61,
			"componentType":5126,
			"count":254,
			"type":"VEC2"
		},
		{
			"bufferView":62,
			"componentType":5123,
			"count":438,
			"type":"SCALAR"
		},
		{
			"bufferView":63,
			"componentType":5126,
			"count":734,
			"max":[
				0.017696866765618324,
				0.067388616502285,
				0.10138601064682007
			],
			"min":[
				-0.017696866765618324,
				-0.03148302435874939,
				-0.05481285974383354
			],
			"type":"VEC3"
		},
		{
			"bufferView":64,
			"componentType":5126,
			"count":734,
			"type":"VEC3"
		},
		{
			"bufferView":65,
			"componentType":5126,
			"count":734,
			"type":"VEC2"
		},
		{
			"bufferView":66,
			"componentType":5123,
			"count":1092,
			"type":"SCALAR"
		}
	],
	"bufferViews":[
		{
			"buffer":0,
			"byteLength":2448,
			"byteOffset":0,
			"target":34962
		},
		{
			"buffer":0,
			"byteLength":2448,
			"byteOffset":2448,
			"target":34962
		},
		{
			"buffer":0,
			"byteLength":1632,
			"byteOffset":4896,
			"target":34962
		},
		{
			"buffer":0,
			"byteLength":624,
			"byteOffset":6528,
			"target":34963
		},
		{
			"buffer":0,
			"byteLength":1776,
			"byteOffset":7152,
			"target":34962
		},
		{
			"buffer":0,
			"byteLength":1776,
			"byteOffset":8928,
			"target":34962
		},
		{
			"buffer":0,
			"byteLength":1184,
			"byteOffset":10704,
			"target":34962
		},
		{
			"buffer":0,
			"byteLength":648,
			"byteOffset":11888,
			"target":34963
		},
		{
			"buffer":0,
			"byteLength":1728,
			"byteOffset":12536,
			"target":34962
		},
		{
			"buffer":0,
			"byteLength":1728,
			"byteOffset":14264,
			"target":34962
		},
		{
			"buffer":0,
			"byteLength":1152,
			"byteOffset":15992,
			"target":34962
		},
		{
			"buffer":0,
			"byteLength":2304,
			"byteOffset":17144,
			"target":34962
		},
		{
			"buffer":0,
			"byteLength":432,
			"byteOffset":19448,
			"target":34963
		},
		{
			"buffer":0,
			"byteLength":432,
			"byteOffset":19880,
			"target":34962
		},
		{
			"buffer":0,
			"byteLength":432,
			"byteOffset":20312,
			"target":34962
		},
		{
			"buffer":0,
			"byteLength":288,
			"byteOffset":20744,
			"target":34962
		},
		{
			"buffer":0,
			"byteLength":120,
			"byteOffset":21032,
			"target":34963
		},
		{
			"buffer":0,
			"byteLength":3024,
			"byteOffset":21152,
			"target":34962
		},
		{
			"buffer":0,
			"byteLength":3024,
			"byteOffset":24176,
			"target":34962
		},
		{
			"buffer":0,
			"byteLength":2016,
			"byteOffset":27200,
			"target":34962
		},
		{
			"buffer":0,
			"byteLength":720,
			"byteOffset":29216,
			"target":34963
		},
		{
			"buffer":0,
			"byteLength":480,
			"byteOffset":29936,
			"target":34962
		},
		{
			"buffer":0,
			"byteLength":480,
			"byteOffset":30416,
			"target":34962
		},
		{
			"buffer":0,
			"byteLength":320,
			"byteOffset":30896,
			"target":34962
		},
		{
			"buffer":0,
			"byteLength":640,
			"byteOffset":31216,
			"target":34962
		},
		{
			"buffer":0,
			"byteLength":120,
			"byteOffset":31856,
			"target":34963
		},
		{
			"buffer":0,
			"byteLength":288,
			"byteOffset":31976,
			"target":34962
		},
		{
			"buffer":0,
			"byteLength":288,
			"byteOffset":32264,
			"target":34962
		},
		{
			"buffer":0,
			"byteLength":192,
			"byteOffset":32552,
			"target":34962
		},
		{
			"buffer":0,
			"byteLength":384,
			"byteOffset":32744,
			"target":34962
		},
		{
			"buffer":0,
			"byteLength":72,
			"byteOffset":33128,
			"target":34963
		},
		{
			"buffer":0,
			"byteLength":288,
			"byteOffset":33200,
			"target":34962
		},
		{
			"buffer":0,
			"byteLength":288,
			"byteOffset":33488,
			"target":34962
		},
		{
			"buffer":0,
			"byteLength":192,
			"byteOffset":33776,
			"target":34962
		},
		{
			"buffer":0,
			"byteLength":384,
			"byteOffset":33968,
			"target":34962
		},
		{
			"buffer":0,
			"byteLength":288,
			"byteOffset":34352,
			"target":34962
		},
		{
			"buffer":0,
			"byteLength":288,
			"byteOffset":34640,
			"target":34962
		},
		{
			"buffer":0,
			"byteLength":192,
			"byteOffset":34928,
			"target":34962
		},
		{
			"buffer":0,
			"byteLength":384,
			"byteOffset":35120,
			"target":34962
		},
		{
			"buffer":0,
			"byteLength":288,
			"byteOffset":35504,
			"target":34962
		},
		{
			"buffer":0,
			"byteLength":288,
			"byteOffset":35792,
			"target":34962
		},
		{
			"buffer":0,
			"byteLength":192,
			"byteOffset":36080,
			"target":34962
		},
		{
			"buffer":0,
			"byteLength":384,
			"byteOffset":36272,
			"target":34962
		},
		{
			"buffer":0,
			"byteLength":288,
			"byteOffset":36656,
			"target":34962
		},
		{
			"buffer":0,
			"byteLength":288,
			"byteOffset":36944,
			"target":34962
		},
		{
			"buffer":0,
			"byteLength":192,
			"byteOffset":37232,
			"target":34962
		},
		{
			"buffer":0,
			"byteLength":384,
			"byteOffset":37424,
			"target":34962
		},
		{
			"buffer":0,
			"byteLength":288,
			"byteOffset":37808,
			"target":34962
		},
		{
			"buffer":0,
			"byteLength":288,
			"byteOffset":38096,
			"target":34962
		},
		{
			"buffer":0,
			"byteLength":192,
			"byteOffset":38384,
			"target":34962
		},
		{
			"buffer":0,
			"byteLength":384,
			"byteOffset":38576,
			"target":34962
		},
		{
			"buffer":0,
			"byteLength":5856,
			"byteOffset":38960,
			"target":34962
		},
		{
			"buffer":0,
			"byteLength":5856,
			"byteOffset":44816,
			"target":34962
		},
		{
			"buffer":0,
			"byteLength":3904,
			"byteOffset":50672,
			"target":34962
		},
		{
			"buffer":0,
			"byteLength":1512,
			"byteOffset":54576,
			"target":34963
		},
		{
			"buffer":0,
			"byteLength":3120,
			"byteOffset":56088,
			"target":34962
		},
		{
			"buffer":0,
			"byteLength":3120,
			"byteOffset":59208,
			"target":34962
		},
		{
			"buffer":0,
			"byteLength":2080,
			"byteOffset":62328,
			"target":34962
		},
		{
			"buffer":0,
			"byteLength":792,
			"byteOffset":64408,
			"target":34963
		},
		{
			"buffer":0,
			"byteLength":3048,
			"byteOffset":65200,
			"target":34962
		},
		{
			"buffer":0,
			"byteLength":3048,
			"byteOffset":68248,
			"target":34962
		},
		{
			"buffer":0,
			"byteLength":2032,
			"byteOffset":71296,
			"target":34962
		},
		{
			"buffer":0,
			"byteLength":876,
			"byteOffset":73328,
			"target":34963
		},
		{
			"buffer":0,
			"byteLength":8808,
			"byteOffset":74204,
			"target":34962
		},
		{
			"buffer":0,
			"byteLength":8808,
			"byteOffset":83012,
			"target":34962
		},
		{
			"buffer":0,
			"byteLength":5872,
			"byteOffset":91820,
			"target":34962
		},
		{
			"buffer":0,
			"byteLength":2184,
			"byteOffset":97692,
			"target":34963
		}
	],
	"buffers":[
		{
			"byteLength":99876,
			"uri":"mdl_revolver-50a3ad7f8cbc7c6ffd45a88f7774aa8e.bin"
		}
	]
}
