{
	"asset":{
		"generator":"Khronos glTF Blender I/O v4.1.63",
		"version":"2.0"
	},
	"scene":0,
	"scenes":[
		{
			"name":"Scene",
			"nodes":[
				0,
				1
			]
		}
	],
	"nodes":[
		{
			"mesh":0,
			"name":"Goob"
		},
		{
			"mesh":1,
			"name":"Circle",
			"rotation":[
				-0.015345843508839607,
				0,
				0,
				0.9998823404312134
			],
			"translation":[
				0,
				1.1160521507263184,
				0.029679931700229645
			]
		}
	],
	"materials":[
		{
			"name":"Main",
			"pbrMetallicRoughness":{
				"baseColorFactor":[
					0.39944082498550415,
					0,
					0.001807203865610063,
					1
				],
				"metallicFactor":0,
				"roughnessFactor":1
			}
		},
		{
			"name":"Cloth",
			"pbrMetallicRoughness":{
				"baseColorFactor":[
					0.15192505717277527,
					0.015508923679590225,
					0,
					1
				],
				"metallicFactor":0,
				"roughnessFactor":1
			}
		},
		{
			"name":"Eye",
			"pbrMetallicRoughness":{
				"baseColorFactor":[
					0.3145834505558014,
					0,
					0.008520197123289108,
					1
				],
				"metallicFactor":0,
				"roughnessFactor":1
			}
		}
	],
	"meshes":[
		{
			"name":"Cube.001",
			"primitives":[
				{
					"attributes":{
						"POSITION":0,
						"TEXCOORD_0":1
					},
					"indices":2,
					"material":0
				},
				{
					"attributes":{
						"POSITION":3,
						"TEXCOORD_0":4
					},
					"indices":5,
					"material":1
				},
				{
					"attributes":{
						"POSITION":6,
						"TEXCOORD_0":7
					},
					"indices":8,
					"material":2
				}
			]
		},
		{
			"name":"Circle",
			"primitives":[
				{
					"attributes":{
						"POSITION":9,
						"TEXCOORD_0":10
					},
					"indices":11,
					"material":1
				}
			]
		}
	],
	"accessors":[
		{
			"bufferView":0,
			"componentType":5126,
			"count":129,
			"max":[
				0.20223070681095123,
				1.2644281387329102,
				0.5010635852813721
			],
			"min":[
				-0.20223169028759003,
				-4.5750088162321845e-08,
				-0.3450165390968323
			],
			"type":"VEC3"
		},
		{
			"bufferView":1,
			"componentType":5126,
			"count":129,
			"type":"VEC2"
		},
		{
			"bufferView":2,
			"componentType":5123,
			"count":624,
			"type":"SCALAR"
		},
		{
			"bufferView":3,
			"componentType":5126,
			"count":34,
			"max":[
				0.2764379680156708,
				0.864202618598938,
				0.2841823697090149
			],
			"min":[
				-0.27643832564353943,
				0.4800395965576172,
				-0.2674044966697693
			],
			"type":"VEC3"
		},
		{
			"bufferView":4,
			"componentType":5126,
			"count":34,
			"type":"VEC2"
		},
		{
			"bufferView":5,
			"componentType":5123,
			"count":96,
			"type":"SCALAR"
		},
		{
			"bufferView":6,
			"componentType":5126,
			"count":18,
			"max":[
				0.22200420498847961,
				1.1939502954483032,
				0.18371175229549408
			],
			"min":[
				-0.22200506925582886,
				0.8730730414390564,
				-0.23702774941921234
			],
			"type":"VEC3"
		},
		{
			"bufferView":7,
			"componentType":5126,
			"count":18,
			"type":"VEC2"
		},
		{
			"bufferView":8,
			"componentType":5123,
			"count":48,
			"type":"SCALAR"
		},
		{
			"bufferView":9,
			"componentType":5126,
			"count":54,
			"max":[
				0.40881386399269104,
				0.22966909408569336,
				0.3743389844894409
			],
			"min":[
				-0.40881386399269104,
				-0.011675946414470673,
				-0.3848649859428406
			],
			"type":"VEC3"
		},
		{
			"bufferView":10,
			"componentType":5126,
			"count":54,
			"type":"VEC2"
		},
		{
			"bufferView":11,
			"componentType":5123,
			"count":312,
			"type":"SCALAR"
		}
	],
	"bufferViews":[
		{
			"buffer":0,
			"byteLength":1548,
			"byteOffset":0,
			"target":34962
		},
		{
			"buffer":0,
			"byteLength":1032,
			"byteOffset":1548,
			"target":34962
		},
		{
			"buffer":0,
			"byteLength":1248,
			"byteOffset":2580,
			"target":34963
		},
		{
			"buffer":0,
			"byteLength":408,
			"byteOffset":3828,
			"target":34962
		},
		{
			"buffer":0,
			"byteLength":272,
			"byteOffset":4236,
			"target":34962
		},
		{
			"buffer":0,
			"byteLength":192,
			"byteOffset":4508,
			"target":34963
		},
		{
			"buffer":0,
			"byteLength":216,
			"byteOffset":4700,
			"target":34962
		},
		{
			"buffer":0,
			"byteLength":144,
			"byteOffset":4916,
			"target":34962
		},
		{
			"buffer":0,
			"byteLength":96,
			"byteOffset":5060,
			"target":34963
		},
		{
			"buffer":0,
			"byteLength":648,
			"byteOffset":5156,
			"target":34962
		},
		{
			"buffer":0,
			"byteLength":432,
			"byteOffset":5804,
			"target":34962
		},
		{
			"buffer":0,
			"byteLength":624,
			"byteOffset":6236,
			"target":34963
		}
	],
	"buffers":[
		{
			"byteLength":6860,
			"uri":"mdl_bandit_studio-6be6cb5793b6ccd60e77b9ea86136f20.bin"
		}
	]
}
