{
	"asset":{
		"generator":"Khronos glTF Blender I/O v4.0.44",
		"version":"2.0"
	},
	"extensionsUsed":[
		"KHR_lights_punctual"
	],
	"extensionsRequired":[
		"KHR_lights_punctual"
	],
	"extensions":{
		"KHR_lights_punctual":{
			"lights":[
				{
					"color":[
						1,
						1,
						1
					],
					"intensity":17088.088912199168,
					"type":"point",
					"name":"Light"
				},
				{
					"color":[
						1,
						1,
						1
					],
					"intensity":14229.202594525566,
					"type":"point",
					"name":"Light.001"
				}
			]
		}
	},
	"scene":0,
	"scenes":[
		{
			"name":"Scene",
			"nodes":[
				0,
				1,
				4,
				5,
				8,
				11
			]
		}
	],
	"nodes":[
		{
			"extensions":{
				"KHR_lights_punctual":{
					"light":0
				}
			},
			"name":"Light",
			"rotation":[
				-0.7071068286895752,
				0,
				0,
				0.7071068286895752
			],
			"translation":[
				0.5961030125617981,
				0.47008979320526123,
				2.684957265853882
			]
		},
		{
			"camera":0,
			"name":"Camera",
			"rotation":[
				-0.5,
				-0.5,
				-0.5,
				0.5
			],
			"translation":[
				0,
				10,
				0
			]
		},
		{
			"mesh":0,
			"name":"Cube",
			"translation":[
				0,
				-0.04703967645764351,
				1.4605194330215454
			]
		},
		{
			"mesh":1,
			"name":"Cube.001",
			"scale":[
				0.5115762948989868,
				0.5115762948989868,
				0.5115762948989868
			],
			"translation":[
				-0.2483493685722351,
				-0.04703967645764351,
				1.1292693614959717
			]
		},
		{
			"children":[
				2,
				3
			],
			"mesh":2,
			"name":"HealthBar",
			"translation":[
				0,
				0,
				-0.13507118821144104
			]
		},
		{
			"extensions":{
				"KHR_lights_punctual":{
					"light":1
				}
			},
			"name":"Light.001",
			"rotation":[
				-0.7071068286895752,
				0,
				0,
				0.7071068286895752
			],
			"translation":[
				0.5552640557289124,
				1.0199310779571533,
				-1.5828073024749756
			]
		},
		{
			"mesh":3,
			"name":"Circle",
			"rotation":[
				0,
				-0.7071067094802856,
				0,
				0.7071068286895752
			],
			"scale":[
				0.869784951210022,
				0.869784951210022,
				0.869784951210022
			],
			"translation":[
				-0.9998651146888733,
				-0.06909540295600891,
				-0.3133321702480316
			]
		},
		{
			"mesh":4,
			"name":"Circle.001",
			"scale":[
				0.5196657180786133,
				0.5196657180786133,
				0.5196657180786133
			],
			"translation":[
				-0.4063940942287445,
				-0.14205747842788696,
				-0.2520841956138611
			]
		},
		{
			"children":[
				6,
				7
			],
			"mesh":5,
			"name":"PlayerHealthbar"
		},
		{
			"mesh":6,
			"name":"Circle.002",
			"rotation":[
				0,
				-0.5320320725440979,
				0,
				0.8467242121696472
			],
			"scale":[
				0.6532266736030579,
				0.6532267332077026,
				0.6532266736030579
			],
			"translation":[
				-0.4711318016052246,
				-0.08606088161468506,
				-0.32006850838661194
			]
		},
		{
			"mesh":7,
			"name":"Circle.003",
			"rotation":[
				0,
				0.43388375639915466,
				0,
				0.9009689092636108
			],
			"scale":[
				0.2779957056045532,
				0.27799567580223083,
				0.2779957056045532
			],
			"translation":[
				0.00986157450824976,
				-0.12509199976921082,
				0.32631728053092957
			]
		},
		{
			"children":[
				9,
				10
			],
			"mesh":8,
			"name":"PlayerHeatBar"
		}
	],
	"cameras":[
		{
			"name":"Camera",
			"orthographic":{
				"xmag":0.8999999761581421,
				"ymag":1.7999999523162842,
				"zfar":100,
				"znear":0.10000000149011612
			},
			"type":"orthographic"
		}
	],
	"animations":[
		{
			"channels":[
				{
					"sampler":0,
					"target":{
						"node":2,
						"path":"translation"
					}
				},
				{
					"sampler":1,
					"target":{
						"node":2,
						"path":"rotation"
					}
				},
				{
					"sampler":2,
					"target":{
						"node":2,
						"path":"scale"
					}
				}
			],
			"name":"CubeAction",
			"samplers":[
				{
					"input":48,
					"interpolation":"STEP",
					"output":49
				},
				{
					"input":50,
					"interpolation":"LINEAR",
					"output":51
				},
				{
					"input":48,
					"interpolation":"STEP",
					"output":52
				}
			]
		},
		{
			"channels":[
				{
					"sampler":0,
					"target":{
						"node":3,
						"path":"translation"
					}
				},
				{
					"sampler":1,
					"target":{
						"node":3,
						"path":"rotation"
					}
				},
				{
					"sampler":2,
					"target":{
						"node":3,
						"path":"scale"
					}
				}
			],
			"name":"Cube.001Action",
			"samplers":[
				{
					"input":48,
					"interpolation":"STEP",
					"output":53
				},
				{
					"input":50,
					"interpolation":"LINEAR",
					"output":54
				},
				{
					"input":48,
					"interpolation":"STEP",
					"output":55
				}
			]
		},
		{
			"channels":[
				{
					"sampler":0,
					"target":{
						"node":6,
						"path":"translation"
					}
				},
				{
					"sampler":1,
					"target":{
						"node":6,
						"path":"rotation"
					}
				},
				{
					"sampler":2,
					"target":{
						"node":6,
						"path":"scale"
					}
				}
			],
			"name":"CircleAction",
			"samplers":[
				{
					"input":48,
					"interpolation":"STEP",
					"output":56
				},
				{
					"input":50,
					"interpolation":"LINEAR",
					"output":57
				},
				{
					"input":48,
					"interpolation":"STEP",
					"output":58
				}
			]
		},
		{
			"channels":[
				{
					"sampler":0,
					"target":{
						"node":7,
						"path":"translation"
					}
				},
				{
					"sampler":1,
					"target":{
						"node":7,
						"path":"rotation"
					}
				},
				{
					"sampler":2,
					"target":{
						"node":7,
						"path":"scale"
					}
				}
			],
			"name":"CircleAction.001",
			"samplers":[
				{
					"input":48,
					"interpolation":"STEP",
					"output":59
				},
				{
					"input":50,
					"interpolation":"LINEAR",
					"output":60
				},
				{
					"input":48,
					"interpolation":"STEP",
					"output":61
				}
			]
		},
		{
			"channels":[
				{
					"sampler":0,
					"target":{
						"node":9,
						"path":"translation"
					}
				},
				{
					"sampler":1,
					"target":{
						"node":9,
						"path":"rotation"
					}
				},
				{
					"sampler":2,
					"target":{
						"node":9,
						"path":"scale"
					}
				}
			],
			"name":"Circle.002Action",
			"samplers":[
				{
					"input":48,
					"interpolation":"STEP",
					"output":62
				},
				{
					"input":50,
					"interpolation":"LINEAR",
					"output":63
				},
				{
					"input":48,
					"interpolation":"STEP",
					"output":64
				}
			]
		},
		{
			"channels":[
				{
					"sampler":0,
					"target":{
						"node":10,
						"path":"translation"
					}
				},
				{
					"sampler":1,
					"target":{
						"node":10,
						"path":"rotation"
					}
				},
				{
					"sampler":2,
					"target":{
						"node":10,
						"path":"scale"
					}
				}
			],
			"name":"Circle.003Action",
			"samplers":[
				{
					"input":48,
					"interpolation":"STEP",
					"output":65
				},
				{
					"input":50,
					"interpolation":"LINEAR",
					"output":66
				},
				{
					"input":48,
					"interpolation":"STEP",
					"output":67
				}
			]
		}
	],
	"materials":[
		{
			"doubleSided":true,
			"name":"Material.002",
			"pbrMetallicRoughness":{
				"baseColorFactor":[
					0.8075066804885864,
					0.20449869334697723,
					0,
					1
				],
				"baseColorTexture":{
					"index":0
				},
				"roughnessFactor":0.36614173650741577
			}
		},
		{
			"doubleSided":true,
			"name":"Material.001",
			"pbrMetallicRoughness":{
				"baseColorFactor":[
					0.43387356400489807,
					0.04283508285880089,
					0,
					1
				],
				"baseColorTexture":{
					"index":1
				}
			}
		},
		{
			"doubleSided":true,
			"name":"Material.003",
			"pbrMetallicRoughness":{
				"baseColorFactor":[
					1,
					0.9839946031570435,
					0.936845064163208,
					1
				],
				"baseColorTexture":{
					"index":2
				},
				"metallicFactor":0,
				"roughnessFactor":0.6318181753158569
			}
		}
	],
	"meshes":[
		{
			"name":"Cube",
			"primitives":[
				{
					"attributes":{
						"POSITION":0,
						"NORMAL":1,
						"TEXCOORD_0":2,
						"TANGENT":3
					},
					"indices":4,
					"material":0
				}
			]
		},
		{
			"name":"Cube.001",
			"primitives":[
				{
					"attributes":{
						"POSITION":5,
						"NORMAL":6,
						"TEXCOORD_0":7,
						"TANGENT":8
					},
					"indices":4,
					"material":0
				}
			]
		},
		{
			"name":"Cube.002",
			"primitives":[
				{
					"attributes":{
						"POSITION":9,
						"NORMAL":10,
						"TEXCOORD_0":11
					},
					"indices":12,
					"material":1
				},
				{
					"attributes":{
						"POSITION":13,
						"NORMAL":14,
						"TEXCOORD_0":15
					},
					"indices":16,
					"material":2
				}
			]
		},
		{
			"name":"Circle",
			"primitives":[
				{
					"attributes":{
						"POSITION":17,
						"NORMAL":18,
						"TEXCOORD_0":19,
						"TANGENT":20
					},
					"indices":21,
					"material":0
				}
			]
		},
		{
			"name":"Circle.001",
			"primitives":[
				{
					"attributes":{
						"POSITION":22,
						"NORMAL":23,
						"TEXCOORD_0":24,
						"TANGENT":25
					},
					"indices":21,
					"material":0
				}
			]
		},
		{
			"name":"Cube.003",
			"primitives":[
				{
					"attributes":{
						"POSITION":26,
						"NORMAL":27,
						"TEXCOORD_0":28
					},
					"indices":29,
					"material":1
				},
				{
					"attributes":{
						"POSITION":30,
						"NORMAL":31,
						"TEXCOORD_0":32
					},
					"indices":33,
					"material":2
				}
			]
		},
		{
			"name":"Circle.002",
			"primitives":[
				{
					"attributes":{
						"POSITION":34,
						"NORMAL":35,
						"TEXCOORD_0":36,
						"TANGENT":37
					},
					"indices":21,
					"material":0
				}
			]
		},
		{
			"name":"Circle.003",
			"primitives":[
				{
					"attributes":{
						"POSITION":38,
						"NORMAL":39,
						"TEXCOORD_0":40,
						"TANGENT":41
					},
					"indices":21,
					"material":0
				}
			]
		},
		{
			"name":"Cube.006",
			"primitives":[
				{
					"attributes":{
						"POSITION":42,
						"NORMAL":43,
						"TEXCOORD_0":44
					},
					"indices":29,
					"material":1
				},
				{
					"attributes":{
						"POSITION":45,
						"NORMAL":46,
						"TEXCOORD_0":47
					},
					"indices":33,
					"material":2
				}
			]
		}
	],
	"textures":[
		{
			"sampler":0,
			"source":0
		},
		{
			"sampler":0,
			"source":0
		},
		{
			"sampler":0,
			"source":0
		}
	],
	"images":[
		{
			"mimeType":"image/png",
			"name":"tex_noise.png",
			"uri":"../../Textures/Utility/tex_noise.png"
		}
	],
	"accessors":[
		{
			"bufferView":0,
			"componentType":5126,
			"count":378,
			"max":[
				0.3264597952365875,
				0.05280928313732147,
				0.3264597952365875
			],
			"min":[
				-0.3264597952365875,
				-0.05280928313732147,
				-0.3264597952365875
			],
			"type":"VEC3"
		},
		{
			"bufferView":1,
			"componentType":5126,
			"count":378,
			"type":"VEC3"
		},
		{
			"bufferView":2,
			"componentType":5126,
			"count":378,
			"type":"VEC2"
		},
		{
			"bufferView":3,
			"componentType":5126,
			"count":378,
			"type":"VEC4"
		},
		{
			"bufferView":4,
			"componentType":5123,
			"count":576,
			"type":"SCALAR"
		},
		{
			"bufferView":5,
			"componentType":5126,
			"count":378,
			"max":[
				0.3264597952365875,
				0.05280928313732147,
				0.3264597952365875
			],
			"min":[
				-0.3264597952365875,
				-0.05280928313732147,
				-0.3264597952365875
			],
			"type":"VEC3"
		},
		{
			"bufferView":6,
			"componentType":5126,
			"count":378,
			"type":"VEC3"
		},
		{
			"bufferView":7,
			"componentType":5126,
			"count":378,
			"type":"VEC2"
		},
		{
			"bufferView":8,
			"componentType":5126,
			"count":378,
			"type":"VEC4"
		},
		{
			"bufferView":9,
			"componentType":5126,
			"count":108,
			"max":[
				0.18414700031280518,
				0.13534559309482574,
				1.4605194330215454
			],
			"min":[
				-0.18414700031280518,
				-0.1413140743970871,
				-1.4605194330215454
			],
			"type":"VEC3"
		},
		{
			"bufferView":10,
			"componentType":5126,
			"count":108,
			"type":"VEC3"
		},
		{
			"bufferView":11,
			"componentType":5126,
			"count":108,
			"type":"VEC2"
		},
		{
			"bufferView":12,
			"componentType":5123,
			"count":222,
			"type":"SCALAR"
		},
		{
			"bufferView":13,
			"componentType":5126,
			"count":4,
			"max":[
				0.13105365633964539,
				0.09100344777107239,
				1.407426118850708
			],
			"min":[
				-0.13105365633964539,
				0.09100344777107239,
				-1.4074259996414185
			],
			"type":"VEC3"
		},
		{
			"bufferView":14,
			"componentType":5126,
			"count":4,
			"type":"VEC3"
		},
		{
			"bufferView":15,
			"componentType":5126,
			"count":4,
			"type":"VEC2"
		},
		{
			"bufferView":16,
			"componentType":5123,
			"count":6,
			"type":"SCALAR"
		},
		{
			"bufferView":17,
			"componentType":5126,
			"count":358,
			"max":[
				0.5985847115516663,
				0.0546041876077652,
				0.598584771156311
			],
			"min":[
				-0.598584771156311,
				-0.0546041801571846,
				-0.5985847115516663
			],
			"type":"VEC3"
		},
		{
			"bufferView":18,
			"componentType":5126,
			"count":358,
			"type":"VEC3"
		},
		{
			"bufferView":19,
			"componentType":5126,
			"count":358,
			"type":"VEC2"
		},
		{
			"bufferView":20,
			"componentType":5126,
			"count":358,
			"type":"VEC4"
		},
		{
			"bufferView":21,
			"componentType":5123,
			"count":576,
			"type":"SCALAR"
		},
		{
			"bufferView":22,
			"componentType":5126,
			"count":358,
			"max":[
				0.5985847115516663,
				0.0546041876077652,
				0.598584771156311
			],
			"min":[
				-0.598584771156311,
				-0.0546041801571846,
				-0.5985847115516663
			],
			"type":"VEC3"
		},
		{
			"bufferView":23,
			"componentType":5126,
			"count":358,
			"type":"VEC3"
		},
		{
			"bufferView":24,
			"componentType":5126,
			"count":358,
			"type":"VEC2"
		},
		{
			"bufferView":25,
			"componentType":5126,
			"count":358,
			"type":"VEC4"
		},
		{
			"bufferView":26,
			"componentType":5126,
			"count":125,
			"max":[
				1.7312157154083252,
				0.19400526583194733,
				0.3272286653518677
			],
			"min":[
				-1.7312157154083252,
				-0.19400526583194733,
				-0.3272286653518677
			],
			"type":"VEC3"
		},
		{
			"bufferView":27,
			"componentType":5126,
			"count":125,
			"type":"VEC3"
		},
		{
			"bufferView":28,
			"componentType":5126,
			"count":125,
			"type":"VEC2"
		},
		{
			"bufferView":29,
			"componentType":5123,
			"count":288,
			"type":"SCALAR"
		},
		{
			"bufferView":30,
			"componentType":5126,
			"count":10,
			"max":[
				1.5815759897232056,
				-0.019207417964935303,
				0.17758888006210327
			],
			"min":[
				-1.5815761089324951,
				-0.019207417964935303,
				-0.17758888006210327
			],
			"type":"VEC3"
		},
		{
			"bufferView":31,
			"componentType":5126,
			"count":10,
			"type":"VEC3"
		},
		{
			"bufferView":32,
			"componentType":5126,
			"count":10,
			"type":"VEC2"
		},
		{
			"bufferView":33,
			"componentType":5123,
			"count":24,
			"type":"SCALAR"
		},
		{
			"bufferView":34,
			"componentType":5126,
			"count":358,
			"max":[
				0.5985847115516663,
				0.0546041876077652,
				0.598584771156311
			],
			"min":[
				-0.598584771156311,
				-0.0546041801571846,
				-0.5985847115516663
			],
			"type":"VEC3"
		},
		{
			"bufferView":35,
			"componentType":5126,
			"count":358,
			"type":"VEC3"
		},
		{
			"bufferView":36,
			"componentType":5126,
			"count":358,
			"type":"VEC2"
		},
		{
			"bufferView":37,
			"componentType":5126,
			"count":358,
			"type":"VEC4"
		},
		{
			"bufferView":38,
			"componentType":5126,
			"count":358,
			"max":[
				0.5985847115516663,
				0.0546041876077652,
				0.598584771156311
			],
			"min":[
				-0.598584771156311,
				-0.0546041801571846,
				-0.5985847115516663
			],
			"type":"VEC3"
		},
		{
			"bufferView":39,
			"componentType":5126,
			"count":358,
			"type":"VEC3"
		},
		{
			"bufferView":40,
			"componentType":5126,
			"count":358,
			"type":"VEC2"
		},
		{
			"bufferView":41,
			"componentType":5126,
			"count":358,
			"type":"VEC4"
		},
		{
			"bufferView":42,
			"componentType":5126,
			"count":125,
			"max":[
				1.0627610683441162,
				0.19400526583194733,
				0.3272286057472229
			],
			"min":[
				-1.0627610683441162,
				-0.19400526583194733,
				-0.3272286057472229
			],
			"type":"VEC3"
		},
		{
			"bufferView":43,
			"componentType":5126,
			"count":125,
			"type":"VEC3"
		},
		{
			"bufferView":44,
			"componentType":5126,
			"count":125,
			"type":"VEC2"
		},
		{
			"bufferView":45,
			"componentType":5126,
			"count":10,
			"max":[
				0.9131212830543518,
				-0.019207417964935303,
				0.17758888006210327
			],
			"min":[
				-0.9131212830543518,
				-0.019207417964935303,
				-0.17758888006210327
			],
			"type":"VEC3"
		},
		{
			"bufferView":46,
			"componentType":5126,
			"count":10,
			"type":"VEC3"
		},
		{
			"bufferView":47,
			"componentType":5126,
			"count":10,
			"type":"VEC2"
		},
		{
			"bufferView":48,
			"componentType":5126,
			"count":2,
			"max":[
				0.3333333333333333
			],
			"min":[
				0.041666666666666664
			],
			"type":"SCALAR"
		},
		{
			"bufferView":49,
			"componentType":5126,
			"count":2,
			"type":"VEC3"
		},
		{
			"bufferView":50,
			"componentType":5126,
			"count":8,
			"max":[
				0.3333333333333333
			],
			"min":[
				0.041666666666666664
			],
			"type":"SCALAR"
		},
		{
			"bufferView":51,
			"componentType":5126,
			"count":8,
			"type":"VEC4"
		},
		{
			"bufferView":52,
			"componentType":5126,
			"count":2,
			"type":"VEC3"
		},
		{
			"bufferView":53,
			"componentType":5126,
			"count":2,
			"type":"VEC3"
		},
		{
			"bufferView":54,
			"componentType":5126,
			"count":8,
			"type":"VEC4"
		},
		{
			"bufferView":55,
			"componentType":5126,
			"count":2,
			"type":"VEC3"
		},
		{
			"bufferView":56,
			"componentType":5126,
			"count":2,
			"type":"VEC3"
		},
		{
			"bufferView":57,
			"componentType":5126,
			"count":8,
			"type":"VEC4"
		},
		{
			"bufferView":58,
			"componentType":5126,
			"count":2,
			"type":"VEC3"
		},
		{
			"bufferView":59,
			"componentType":5126,
			"count":2,
			"type":"VEC3"
		},
		{
			"bufferView":60,
			"componentType":5126,
			"count":8,
			"type":"VEC4"
		},
		{
			"bufferView":61,
			"componentType":5126,
			"count":2,
			"type":"VEC3"
		},
		{
			"bufferView":62,
			"componentType":5126,
			"count":2,
			"type":"VEC3"
		},
		{
			"bufferView":63,
			"componentType":5126,
			"count":8,
			"type":"VEC4"
		},
		{
			"bufferView":64,
			"componentType":5126,
			"count":2,
			"type":"VEC3"
		},
		{
			"bufferView":65,
			"componentType":5126,
			"count":2,
			"type":"VEC3"
		},
		{
			"bufferView":66,
			"componentType":5126,
			"count":8,
			"type":"VEC4"
		},
		{
			"bufferView":67,
			"componentType":5126,
			"count":2,
			"type":"VEC3"
		}
	],
	"bufferViews":[
		{
			"buffer":0,
			"byteLength":4536,
			"byteOffset":0,
			"target":34962
		},
		{
			"buffer":0,
			"byteLength":4536,
			"byteOffset":4536,
			"target":34962
		},
		{
			"buffer":0,
			"byteLength":3024,
			"byteOffset":9072,
			"target":34962
		},
		{
			"buffer":0,
			"byteLength":6048,
			"byteOffset":12096,
			"target":34962
		},
		{
			"buffer":0,
			"byteLength":1152,
			"byteOffset":18144,
			"target":34963
		},
		{
			"buffer":0,
			"byteLength":4536,
			"byteOffset":19296,
			"target":34962
		},
		{
			"buffer":0,
			"byteLength":4536,
			"byteOffset":23832,
			"target":34962
		},
		{
			"buffer":0,
			"byteLength":3024,
			"byteOffset":28368,
			"target":34962
		},
		{
			"buffer":0,
			"byteLength":6048,
			"byteOffset":31392,
			"target":34962
		},
		{
			"buffer":0,
			"byteLength":1296,
			"byteOffset":37440,
			"target":34962
		},
		{
			"buffer":0,
			"byteLength":1296,
			"byteOffset":38736,
			"target":34962
		},
		{
			"buffer":0,
			"byteLength":864,
			"byteOffset":40032,
			"target":34962
		},
		{
			"buffer":0,
			"byteLength":444,
			"byteOffset":40896,
			"target":34963
		},
		{
			"buffer":0,
			"byteLength":48,
			"byteOffset":41340,
			"target":34962
		},
		{
			"buffer":0,
			"byteLength":48,
			"byteOffset":41388,
			"target":34962
		},
		{
			"buffer":0,
			"byteLength":32,
			"byteOffset":41436,
			"target":34962
		},
		{
			"buffer":0,
			"byteLength":12,
			"byteOffset":41468,
			"target":34963
		},
		{
			"buffer":0,
			"byteLength":4296,
			"byteOffset":41480,
			"target":34962
		},
		{
			"buffer":0,
			"byteLength":4296,
			"byteOffset":45776,
			"target":34962
		},
		{
			"buffer":0,
			"byteLength":2864,
			"byteOffset":50072,
			"target":34962
		},
		{
			"buffer":0,
			"byteLength":5728,
			"byteOffset":52936,
			"target":34962
		},
		{
			"buffer":0,
			"byteLength":1152,
			"byteOffset":58664,
			"target":34963
		},
		{
			"buffer":0,
			"byteLength":4296,
			"byteOffset":59816,
			"target":34962
		},
		{
			"buffer":0,
			"byteLength":4296,
			"byteOffset":64112,
			"target":34962
		},
		{
			"buffer":0,
			"byteLength":2864,
			"byteOffset":68408,
			"target":34962
		},
		{
			"buffer":0,
			"byteLength":5728,
			"byteOffset":71272,
			"target":34962
		},
		{
			"buffer":0,
			"byteLength":1500,
			"byteOffset":77000,
			"target":34962
		},
		{
			"buffer":0,
			"byteLength":1500,
			"byteOffset":78500,
			"target":34962
		},
		{
			"buffer":0,
			"byteLength":1000,
			"byteOffset":80000,
			"target":34962
		},
		{
			"buffer":0,
			"byteLength":576,
			"byteOffset":81000,
			"target":34963
		},
		{
			"buffer":0,
			"byteLength":120,
			"byteOffset":81576,
			"target":34962
		},
		{
			"buffer":0,
			"byteLength":120,
			"byteOffset":81696,
			"target":34962
		},
		{
			"buffer":0,
			"byteLength":80,
			"byteOffset":81816,
			"target":34962
		},
		{
			"buffer":0,
			"byteLength":48,
			"byteOffset":81896,
			"target":34963
		},
		{
			"buffer":0,
			"byteLength":4296,
			"byteOffset":81944,
			"target":34962
		},
		{
			"buffer":0,
			"byteLength":4296,
			"byteOffset":86240,
			"target":34962
		},
		{
			"buffer":0,
			"byteLength":2864,
			"byteOffset":90536,
			"target":34962
		},
		{
			"buffer":0,
			"byteLength":5728,
			"byteOffset":93400,
			"target":34962
		},
		{
			"buffer":0,
			"byteLength":4296,
			"byteOffset":99128,
			"target":34962
		},
		{
			"buffer":0,
			"byteLength":4296,
			"byteOffset":103424,
			"target":34962
		},
		{
			"buffer":0,
			"byteLength":2864,
			"byteOffset":107720,
			"target":34962
		},
		{
			"buffer":0,
			"byteLength":5728,
			"byteOffset":110584,
			"target":34962
		},
		{
			"buffer":0,
			"byteLength":1500,
			"byteOffset":116312,
			"target":34962
		},
		{
			"buffer":0,
			"byteLength":1500,
			"byteOffset":117812,
			"target":34962
		},
		{
			"buffer":0,
			"byteLength":1000,
			"byteOffset":119312,
			"target":34962
		},
		{
			"buffer":0,
			"byteLength":120,
			"byteOffset":120312,
			"target":34962
		},
		{
			"buffer":0,
			"byteLength":120,
			"byteOffset":120432,
			"target":34962
		},
		{
			"buffer":0,
			"byteLength":80,
			"byteOffset":120552,
			"target":34962
		},
		{
			"buffer":0,
			"byteLength":8,
			"byteOffset":120632
		},
		{
			"buffer":0,
			"byteLength":24,
			"byteOffset":120640
		},
		{
			"buffer":0,
			"byteLength":32,
			"byteOffset":120664
		},
		{
			"buffer":0,
			"byteLength":128,
			"byteOffset":120696
		},
		{
			"buffer":0,
			"byteLength":24,
			"byteOffset":120824
		},
		{
			"buffer":0,
			"byteLength":24,
			"byteOffset":120848
		},
		{
			"buffer":0,
			"byteLength":128,
			"byteOffset":120872
		},
		{
			"buffer":0,
			"byteLength":24,
			"byteOffset":121000
		},
		{
			"buffer":0,
			"byteLength":24,
			"byteOffset":121024
		},
		{
			"buffer":0,
			"byteLength":128,
			"byteOffset":121048
		},
		{
			"buffer":0,
			"byteLength":24,
			"byteOffset":121176
		},
		{
			"buffer":0,
			"byteLength":24,
			"byteOffset":121200
		},
		{
			"buffer":0,
			"byteLength":128,
			"byteOffset":121224
		},
		{
			"buffer":0,
			"byteLength":24,
			"byteOffset":121352
		},
		{
			"buffer":0,
			"byteLength":24,
			"byteOffset":121376
		},
		{
			"buffer":0,
			"byteLength":128,
			"byteOffset":121400
		},
		{
			"buffer":0,
			"byteLength":24,
			"byteOffset":121528
		},
		{
			"buffer":0,
			"byteLength":24,
			"byteOffset":121552
		},
		{
			"buffer":0,
			"byteLength":128,
			"byteOffset":121576
		},
		{
			"buffer":0,
			"byteLength":24,
			"byteOffset":121704
		}
	],
	"samplers":[
		{
			"magFilter":9729,
			"minFilter":9987
		}
	],
	"buffers":[
		{
			"byteLength":121728,
			"uri":"mdl_healthBar-ae6f170ffff20e157bdac3353a8b0dd2.bin"
		}
	]
}
