{
	"asset":{
		"generator":"Khronos glTF Blender I/O v4.2.57",
		"version":"2.0"
	},
	"extensionsUsed":[
		"KHR_lights_punctual"
	],
	"extensionsRequired":[
		"KHR_lights_punctual"
	],
	"extensions":{
		"KHR_lights_punctual":{
			"lights":[
				{
					"color":[
						1,
						1,
						1
					],
					"intensity":116812.06757670452,
					"type":"point",
					"name":"Light"
				},
				{
					"color":[
						1,
						1,
						1
					],
					"intensity":35361.04128311216,
					"type":"point",
					"name":"Light.001"
				}
			]
		}
	},
	"scene":0,
	"scenes":[
		{
			"name":"Scene",
			"nodes":[
				0,
				1,
				2,
				3
			]
		}
	],
	"nodes":[
		{
			"mesh":0,
			"name":"Cube"
		},
		{
			"extensions":{
				"KHR_lights_punctual":{
					"light":0
				}
			},
			"name":"Light",
			"rotation":[
				-0.28416627645492554,
				0.7269423007965088,
				0.34203392267227173,
				0.5232754945755005
			],
			"translation":[
				-0.984426736831665,
				1.2261861562728882,
				-1.3419970273971558
			]
		},
		{
			"camera":0,
			"name":"Camera",
			"rotation":[
				-0.5000000596046448,
				0.5,
				0.5,
				0.5
			],
			"translation":[
				0,
				2.632582187652588,
				0
			]
		},
		{
			"extensions":{
				"KHR_lights_punctual":{
					"light":1
				}
			},
			"name":"Light.001",
			"rotation":[
				-0.28416627645492554,
				0.7269423007965088,
				0.34203392267227173,
				0.5232754945755005
			],
			"translation":[
				-1.8335766792297363,
				2.4727141857147217,
				-0.79645836353302
			]
		}
	],
	"cameras":[
		{
			"name":"Camera",
			"orthographic":{
				"xmag":1,
				"ymag":1,
				"zfar":100,
				"znear":0.10000000149011612
			},
			"type":"orthographic"
		}
	],
	"materials":[
		{
			"doubleSided":true,
			"name":"Material",
			"pbrMetallicRoughness":{
				"baseColorFactor":[
					0.04696382209658623,
					0.04696382209658623,
					0.04696382209658623,
					1
				],
				"baseColorTexture":{
					"index":0
				},
				"roughnessFactor":0.43137258291244507
			}
		},
		{
			"doubleSided":true,
			"name":"Material.004",
			"pbrMetallicRoughness":{
				"baseColorFactor":[
					0.30789485573768616,
					0.0718100517988205,
					0,
					1
				],
				"baseColorTexture":{
					"index":1
				},
				"roughnessFactor":0.323529452085495
			}
		},
		{
			"doubleSided":true,
			"name":"Material.005",
			"pbrMetallicRoughness":{
				"baseColorTexture":{
					"index":2
				},
				"roughnessFactor":0.1568627655506134
			}
		},
		{
			"doubleSided":true,
			"name":"Material.006",
			"pbrMetallicRoughness":{
				"baseColorFactor":[
					0.19595777988433838,
					0.10306624323129654,
					0,
					1
				],
				"baseColorTexture":{
					"index":3
				},
				"roughnessFactor":0.10784317553043365
			}
		}
	],
	"meshes":[
		{
			"name":"Cube",
			"primitives":[
				{
					"attributes":{
						"POSITION":0,
						"NORMAL":1,
						"TEXCOORD_0":2,
						"TANGENT":3
					},
					"indices":4,
					"material":0
				},
				{
					"attributes":{
						"POSITION":5,
						"NORMAL":6,
						"TEXCOORD_0":7,
						"TANGENT":8
					},
					"indices":9,
					"material":1
				},
				{
					"attributes":{
						"POSITION":10,
						"NORMAL":11,
						"TEXCOORD_0":12,
						"TANGENT":13
					},
					"indices":14,
					"material":2
				},
				{
					"attributes":{
						"POSITION":15,
						"NORMAL":16,
						"TEXCOORD_0":17,
						"TANGENT":18
					},
					"indices":19,
					"material":3
				}
			]
		}
	],
	"textures":[
		{
			"sampler":0,
			"source":0
		},
		{
			"sampler":0,
			"source":0
		},
		{
			"sampler":0,
			"source":0
		},
		{
			"sampler":0,
			"source":0
		}
	],
	"images":[
		{
			"mimeType":"image/png",
			"name":"tex_noise.png",
			"uri":"../../Textures/Utility/tex_noise.png"
		}
	],
	"accessors":[
		{
			"bufferView":0,
			"componentType":5126,
			"count":354,
			"max":[
				1,
				0.1226910948753357,
				1
			],
			"min":[
				-1,
				-0.0618460476398468,
				-1
			],
			"type":"VEC3"
		},
		{
			"bufferView":1,
			"componentType":5126,
			"count":354,
			"type":"VEC3"
		},
		{
			"bufferView":2,
			"componentType":5126,
			"count":354,
			"type":"VEC2"
		},
		{
			"bufferView":3,
			"componentType":5126,
			"count":354,
			"type":"VEC4"
		},
		{
			"bufferView":4,
			"componentType":5123,
			"count":1020,
			"type":"SCALAR"
		},
		{
			"bufferView":5,
			"componentType":5126,
			"count":1226,
			"max":[
				1,
				0.16934609413146973,
				0.9735952019691467
			],
			"min":[
				-1,
				0.0618460476398468,
				-0.8488106727600098
			],
			"type":"VEC3"
		},
		{
			"bufferView":6,
			"componentType":5126,
			"count":1226,
			"type":"VEC3"
		},
		{
			"bufferView":7,
			"componentType":5126,
			"count":1226,
			"type":"VEC2"
		},
		{
			"bufferView":8,
			"componentType":5126,
			"count":1226,
			"type":"VEC4"
		},
		{
			"bufferView":9,
			"componentType":5123,
			"count":2100,
			"type":"SCALAR"
		},
		{
			"bufferView":10,
			"componentType":5126,
			"count":48,
			"max":[
				0.17077606916427612,
				0.1226910948753357,
				0.6663260459899902
			],
			"min":[
				-0.1749783158302307,
				0.0618460476398468,
				-0.6663260459899902
			],
			"type":"VEC3"
		},
		{
			"bufferView":11,
			"componentType":5126,
			"count":48,
			"type":"VEC3"
		},
		{
			"bufferView":12,
			"componentType":5126,
			"count":48,
			"type":"VEC2"
		},
		{
			"bufferView":13,
			"componentType":5126,
			"count":48,
			"type":"VEC4"
		},
		{
			"bufferView":14,
			"componentType":5123,
			"count":72,
			"type":"SCALAR"
		},
		{
			"bufferView":15,
			"componentType":5126,
			"count":150,
			"max":[
				0.25,
				0.18159428238868713,
				1
			],
			"min":[
				-0.25,
				0.0618460476398468,
				-1
			],
			"type":"VEC3"
		},
		{
			"bufferView":16,
			"componentType":5126,
			"count":150,
			"type":"VEC3"
		},
		{
			"bufferView":17,
			"componentType":5126,
			"count":150,
			"type":"VEC2"
		},
		{
			"bufferView":18,
			"componentType":5126,
			"count":150,
			"type":"VEC4"
		},
		{
			"bufferView":19,
			"componentType":5123,
			"count":396,
			"type":"SCALAR"
		}
	],
	"bufferViews":[
		{
			"buffer":0,
			"byteLength":4248,
			"byteOffset":0,
			"target":34962
		},
		{
			"buffer":0,
			"byteLength":4248,
			"byteOffset":4248,
			"target":34962
		},
		{
			"buffer":0,
			"byteLength":2832,
			"byteOffset":8496,
			"target":34962
		},
		{
			"buffer":0,
			"byteLength":5664,
			"byteOffset":11328,
			"target":34962
		},
		{
			"buffer":0,
			"byteLength":2040,
			"byteOffset":16992,
			"target":34963
		},
		{
			"buffer":0,
			"byteLength":14712,
			"byteOffset":19032,
			"target":34962
		},
		{
			"buffer":0,
			"byteLength":14712,
			"byteOffset":33744,
			"target":34962
		},
		{
			"buffer":0,
			"byteLength":9808,
			"byteOffset":48456,
			"target":34962
		},
		{
			"buffer":0,
			"byteLength":19616,
			"byteOffset":58264,
			"target":34962
		},
		{
			"buffer":0,
			"byteLength":4200,
			"byteOffset":77880,
			"target":34963
		},
		{
			"buffer":0,
			"byteLength":576,
			"byteOffset":82080,
			"target":34962
		},
		{
			"buffer":0,
			"byteLength":576,
			"byteOffset":82656,
			"target":34962
		},
		{
			"buffer":0,
			"byteLength":384,
			"byteOffset":83232,
			"target":34962
		},
		{
			"buffer":0,
			"byteLength":768,
			"byteOffset":83616,
			"target":34962
		},
		{
			"buffer":0,
			"byteLength":144,
			"byteOffset":84384,
			"target":34963
		},
		{
			"buffer":0,
			"byteLength":1800,
			"byteOffset":84528,
			"target":34962
		},
		{
			"buffer":0,
			"byteLength":1800,
			"byteOffset":86328,
			"target":34962
		},
		{
			"buffer":0,
			"byteLength":1200,
			"byteOffset":88128,
			"target":34962
		},
		{
			"buffer":0,
			"byteLength":2400,
			"byteOffset":89328,
			"target":34962
		},
		{
			"buffer":0,
			"byteLength":792,
			"byteOffset":91728,
			"target":34963
		}
	],
	"samplers":[
		{
			"magFilter":9729,
			"minFilter":9987
		}
	],
	"buffers":[
		{
			"byteLength":92520,
			"uri":"mdl_door-609bca5a565b2a832403965b3092a05f.bin"
		}
	]
}
