{
	"asset":{
		"generator":"Khronos glTF Blender I/O v4.0.44",
		"version":"2.0"
	},
	"scene":0,
	"scenes":[
		{
			"name":"Scene",
			"nodes":[
				10
			]
		}
	],
	"nodes":[
		{
			"mesh":0,
			"name":"Hammer",
			"translation":[
				-3.401665253477404e-06,
				0.05451510101556778,
				-0.0555250346660614
			]
		},
		{
			"mesh":1,
			"name":"Fuses",
			"translation":[
				0,
				0,
				-0.010550029575824738
			]
		},
		{
			"children":[
				1
			],
			"mesh":2,
			"name":"Spinner",
			"translation":[
				0,
				0.037576720118522644,
				0.0063071176409721375
			]
		},
		{
			"mesh":3,
			"name":"Trigger",
			"rotation":[
				0,
				0,
				0.7071068286895752,
				0.7071068286895752
			],
			"translation":[
				0,
				0.008617420680820942,
				-0.02020147070288658
			]
		},
		{
			"mesh":4,
			"name":"WarpFuseL1",
			"rotation":[
				-0.6743798851966858,
				-0.21263068914413452,
				-0.674379825592041,
				0.21263070404529572
			],
			"scale":[
				-0.5752161145210266,
				-0.5752161145210266,
				-0.5752161145210266
			],
			"translation":[
				0.009963641874492168,
				0.047881077975034714,
				0.058207541704177856
			]
		},
		{
			"mesh":5,
			"name":"WarpFuseL2",
			"rotation":[
				-0.6743798851966858,
				-0.21263068914413452,
				-0.674379825592041,
				0.21263070404529572
			],
			"scale":[
				-0.5752161145210266,
				-0.5752161145210266,
				-0.5752161145210266
			],
			"translation":[
				0.009963641874492168,
				0.047881077975034714,
				0.06759956479072571
			]
		},
		{
			"mesh":6,
			"name":"WarpFuseL3",
			"rotation":[
				-0.6743798851966858,
				-0.21263068914413452,
				-0.674379825592041,
				0.21263070404529572
			],
			"scale":[
				-0.5752161145210266,
				-0.5752161145210266,
				-0.5752161145210266
			],
			"translation":[
				0.009963641874492168,
				0.047881077975034714,
				0.07678486406803131
			]
		},
		{
			"mesh":7,
			"name":"WarpFuseR1",
			"rotation":[
				0.21263070404529572,
				0.6743798851966858,
				-0.21263068914413452,
				0.674379825592041
			],
			"scale":[
				0.5752161145210266,
				0.5752161145210266,
				0.5752161145210266
			],
			"translation":[
				-0.009963641874492168,
				0.047881077975034714,
				0.058207541704177856
			]
		},
		{
			"mesh":8,
			"name":"WarpFuseR2",
			"rotation":[
				0.21263070404529572,
				0.6743798851966858,
				-0.21263068914413452,
				0.674379825592041
			],
			"scale":[
				0.5752161145210266,
				0.5752161145210266,
				0.5752161145210266
			],
			"translation":[
				-0.009963641874492168,
				0.047881077975034714,
				0.06759956479072571
			]
		},
		{
			"mesh":9,
			"name":"WarpFuseR3",
			"rotation":[
				0.21263070404529572,
				0.6743798851966858,
				-0.21263068914413452,
				0.674379825592041
			],
			"scale":[
				0.5752161145210266,
				0.5752161145210266,
				0.5752161145210266
			],
			"translation":[
				-0.009963641874492168,
				0.047881077975034714,
				0.07678486406803131
			]
		},
		{
			"children":[
				0,
				2,
				3,
				4,
				5,
				6,
				7,
				8,
				9
			],
			"mesh":10,
			"name":"Body",
			"translation":[
				0,
				0.009425870142877102,
				0.0427994579076767
			]
		}
	],
	"materials":[
		{
			"doubleSided":true,
			"name":"Accent",
			"pbrMetallicRoughness":{
				"metallicFactor":0
			}
		},
		{
			"doubleSided":true,
			"name":"Fuse",
			"pbrMetallicRoughness":{
				"metallicFactor":0
			}
		},
		{
			"doubleSided":true,
			"name":"WarpFuse",
			"pbrMetallicRoughness":{
				"metallicFactor":0
			}
		},
		{
			"doubleSided":true,
			"name":"Main.001",
			"pbrMetallicRoughness":{
				"metallicFactor":0
			}
		},
		{
			"doubleSided":true,
			"name":"Grip",
			"pbrMetallicRoughness":{
				"metallicFactor":0
			}
		}
	],
	"meshes":[
		{
			"name":"Cylinder",
			"primitives":[
				{
					"attributes":{
						"POSITION":0,
						"NORMAL":1,
						"TEXCOORD_0":2
					},
					"indices":3,
					"material":0
				}
			]
		},
		{
			"name":"Cylinder.002",
			"primitives":[
				{
					"attributes":{
						"POSITION":4,
						"NORMAL":5,
						"TEXCOORD_0":6,
						"TANGENT":7
					},
					"indices":8,
					"material":1
				}
			]
		},
		{
			"name":"Cylinder.001",
			"primitives":[
				{
					"attributes":{
						"POSITION":9,
						"NORMAL":10,
						"TEXCOORD_0":11
					},
					"indices":12,
					"material":0
				}
			]
		},
		{
			"name":"Cylinder.003",
			"primitives":[
				{
					"attributes":{
						"POSITION":13,
						"NORMAL":14,
						"TEXCOORD_0":15,
						"TANGENT":16
					},
					"indices":17,
					"material":0
				}
			]
		},
		{
			"name":"Cylinder.009",
			"primitives":[
				{
					"attributes":{
						"POSITION":18,
						"NORMAL":19,
						"TEXCOORD_0":20,
						"TANGENT":21
					},
					"indices":22,
					"material":2
				}
			]
		},
		{
			"name":"Cylinder.008",
			"primitives":[
				{
					"attributes":{
						"POSITION":23,
						"NORMAL":24,
						"TEXCOORD_0":25,
						"TANGENT":26
					},
					"indices":22,
					"material":2
				}
			]
		},
		{
			"name":"Cylinder.006",
			"primitives":[
				{
					"attributes":{
						"POSITION":27,
						"NORMAL":28,
						"TEXCOORD_0":29,
						"TANGENT":30
					},
					"indices":22,
					"material":2
				}
			]
		},
		{
			"name":"Cylinder.012",
			"primitives":[
				{
					"attributes":{
						"POSITION":31,
						"NORMAL":32,
						"TEXCOORD_0":33,
						"TANGENT":34
					},
					"indices":22,
					"material":2
				}
			]
		},
		{
			"name":"Cylinder.011",
			"primitives":[
				{
					"attributes":{
						"POSITION":35,
						"NORMAL":36,
						"TEXCOORD_0":37,
						"TANGENT":38
					},
					"indices":22,
					"material":2
				}
			]
		},
		{
			"name":"Cylinder.010",
			"primitives":[
				{
					"attributes":{
						"POSITION":39,
						"NORMAL":40,
						"TEXCOORD_0":41,
						"TANGENT":42
					},
					"indices":22,
					"material":2
				}
			]
		},
		{
			"name":"Body",
			"primitives":[
				{
					"attributes":{
						"POSITION":43,
						"NORMAL":44,
						"TEXCOORD_0":45
					},
					"indices":46,
					"material":3
				},
				{
					"attributes":{
						"POSITION":47,
						"NORMAL":48,
						"TEXCOORD_0":49
					},
					"indices":50,
					"material":4
				},
				{
					"attributes":{
						"POSITION":51,
						"NORMAL":52,
						"TEXCOORD_0":53
					},
					"indices":54,
					"material":0
				}
			]
		}
	],
	"accessors":[
		{
			"bufferView":0,
			"componentType":5126,
			"count":132,
			"max":[
				0.005854970309883356,
				0.012465888634324074,
				0.01680055633187294
			],
			"min":[
				-0.00584816699847579,
				-0.016948845237493515,
				-0.012599416077136993
			],
			"type":"VEC3"
		},
		{
			"bufferView":1,
			"componentType":5126,
			"count":132,
			"type":"VEC3"
		},
		{
			"bufferView":2,
			"componentType":5126,
			"count":132,
			"type":"VEC2"
		},
		{
			"bufferView":3,
			"componentType":5123,
			"count":204,
			"type":"SCALAR"
		},
		{
			"bufferView":4,
			"componentType":5126,
			"count":144,
			"max":[
				0.01806727424263954,
				0.020862288773059845,
				0.015000000596046448
			],
			"min":[
				-0.01806727424263954,
				-0.020862288773059845,
				-0.015000000596046448
			],
			"type":"VEC3"
		},
		{
			"bufferView":5,
			"componentType":5126,
			"count":144,
			"type":"VEC3"
		},
		{
			"bufferView":6,
			"componentType":5126,
			"count":144,
			"type":"VEC2"
		},
		{
			"bufferView":7,
			"componentType":5126,
			"count":144,
			"type":"VEC4"
		},
		{
			"bufferView":8,
			"componentType":5123,
			"count":216,
			"type":"SCALAR"
		},
		{
			"bufferView":9,
			"componentType":5126,
			"count":36,
			"max":[
				0.021650634706020355,
				0.02500000223517418,
				0.024001378566026688
			],
			"min":[
				-0.021650634706020355,
				-0.02500000223517418,
				-0.024001378566026688
			],
			"type":"VEC3"
		},
		{
			"bufferView":10,
			"componentType":5126,
			"count":36,
			"type":"VEC3"
		},
		{
			"bufferView":11,
			"componentType":5126,
			"count":36,
			"type":"VEC2"
		},
		{
			"bufferView":12,
			"componentType":5123,
			"count":60,
			"type":"SCALAR"
		},
		{
			"bufferView":13,
			"componentType":5126,
			"count":40,
			"max":[
				0.013744493946433067,
				0.005000000353902578,
				0.016067814081907272
			],
			"min":[
				-0.02029508352279663,
				-0.004999999888241291,
				-0.010035178624093533
			],
			"type":"VEC3"
		},
		{
			"bufferView":14,
			"componentType":5126,
			"count":40,
			"type":"VEC3"
		},
		{
			"bufferView":15,
			"componentType":5126,
			"count":40,
			"type":"VEC2"
		},
		{
			"bufferView":16,
			"componentType":5126,
			"count":40,
			"type":"VEC4"
		},
		{
			"bufferView":17,
			"componentType":5123,
			"count":60,
			"type":"SCALAR"
		},
		{
			"bufferView":18,
			"componentType":5126,
			"count":24,
			"max":[
				0.0070440201088786125,
				0.007044017314910889,
				0.015000000596046448
			],
			"min":[
				-0.007044019177556038,
				-0.007044018246233463,
				-0.015000000596046448
			],
			"type":"VEC3"
		},
		{
			"bufferView":19,
			"componentType":5126,
			"count":24,
			"type":"VEC3"
		},
		{
			"bufferView":20,
			"componentType":5126,
			"count":24,
			"type":"VEC2"
		},
		{
			"bufferView":21,
			"componentType":5126,
			"count":24,
			"type":"VEC4"
		},
		{
			"bufferView":22,
			"componentType":5123,
			"count":36,
			"type":"SCALAR"
		},
		{
			"bufferView":23,
			"componentType":5126,
			"count":24,
			"max":[
				0.0070440201088786125,
				0.007044017314910889,
				0.015000000596046448
			],
			"min":[
				-0.007044019177556038,
				-0.007044018246233463,
				-0.015000000596046448
			],
			"type":"VEC3"
		},
		{
			"bufferView":24,
			"componentType":5126,
			"count":24,
			"type":"VEC3"
		},
		{
			"bufferView":25,
			"componentType":5126,
			"count":24,
			"type":"VEC2"
		},
		{
			"bufferView":26,
			"componentType":5126,
			"count":24,
			"type":"VEC4"
		},
		{
			"bufferView":27,
			"componentType":5126,
			"count":24,
			"max":[
				0.0070440201088786125,
				0.007044017314910889,
				0.015000000596046448
			],
			"min":[
				-0.007044019177556038,
				-0.007044018246233463,
				-0.015000000596046448
			],
			"type":"VEC3"
		},
		{
			"bufferView":28,
			"componentType":5126,
			"count":24,
			"type":"VEC3"
		},
		{
			"bufferView":29,
			"componentType":5126,
			"count":24,
			"type":"VEC2"
		},
		{
			"bufferView":30,
			"componentType":5126,
			"count":24,
			"type":"VEC4"
		},
		{
			"bufferView":31,
			"componentType":5126,
			"count":24,
			"max":[
				0.0070440201088786125,
				0.007044017314910889,
				0.015000000596046448
			],
			"min":[
				-0.007044019177556038,
				-0.007044018246233463,
				-0.015000000596046448
			],
			"type":"VEC3"
		},
		{
			"bufferView":32,
			"componentType":5126,
			"count":24,
			"type":"VEC3"
		},
		{
			"bufferView":33,
			"componentType":5126,
			"count":24,
			"type":"VEC2"
		},
		{
			"bufferView":34,
			"componentType":5126,
			"count":24,
			"type":"VEC4"
		},
		{
			"bufferView":35,
			"componentType":5126,
			"count":24,
			"max":[
				0.0070440201088786125,
				0.007044017314910889,
				0.015000000596046448
			],
			"min":[
				-0.007044019177556038,
				-0.007044018246233463,
				-0.015000000596046448
			],
			"type":"VEC3"
		},
		{
			"bufferView":36,
			"componentType":5126,
			"count":24,
			"type":"VEC3"
		},
		{
			"bufferView":37,
			"componentType":5126,
			"count":24,
			"type":"VEC2"
		},
		{
			"bufferView":38,
			"componentType":5126,
			"count":24,
			"type":"VEC4"
		},
		{
			"bufferView":39,
			"componentType":5126,
			"count":24,
			"max":[
				0.0070440201088786125,
				0.007044017314910889,
				0.015000000596046448
			],
			"min":[
				-0.007044019177556038,
				-0.007044018246233463,
				-0.015000000596046448
			],
			"type":"VEC3"
		},
		{
			"bufferView":40,
			"componentType":5126,
			"count":24,
			"type":"VEC3"
		},
		{
			"bufferView":41,
			"componentType":5126,
			"count":24,
			"type":"VEC2"
		},
		{
			"bufferView":42,
			"componentType":5126,
			"count":24,
			"type":"VEC4"
		},
		{
			"bufferView":43,
			"componentType":5126,
			"count":506,
			"max":[
				0.014611381106078625,
				0.06694625318050385,
				0.08566045761108398
			],
			"min":[
				-0.014611381106078625,
				-0.031004648655653,
				-0.063865065574646
			],
			"type":"VEC3"
		},
		{
			"bufferView":44,
			"componentType":5126,
			"count":506,
			"type":"VEC3"
		},
		{
			"bufferView":45,
			"componentType":5126,
			"count":506,
			"type":"VEC2"
		},
		{
			"bufferView":46,
			"componentType":5123,
			"count":804,
			"type":"SCALAR"
		},
		{
			"bufferView":47,
			"componentType":5126,
			"count":196,
			"max":[
				0.020114706829190254,
				0.03523410111665726,
				-0.03677557036280632
			],
			"min":[
				-0.020114706829190254,
				-0.07339482009410858,
				-0.11799623817205429
			],
			"type":"VEC3"
		},
		{
			"bufferView":48,
			"componentType":5126,
			"count":196,
			"type":"VEC3"
		},
		{
			"bufferView":49,
			"componentType":5126,
			"count":196,
			"type":"VEC2"
		},
		{
			"bufferView":50,
			"componentType":5123,
			"count":300,
			"type":"SCALAR"
		},
		{
			"bufferView":51,
			"componentType":5126,
			"count":145,
			"max":[
				0.016331946477293968,
				0.06001519411802292,
				0.11338750272989273
			],
			"min":[
				-0.016331946477293968,
				0.030344821512699127,
				-0.06666739284992218
			],
			"type":"VEC3"
		},
		{
			"bufferView":52,
			"componentType":5126,
			"count":145,
			"type":"VEC3"
		},
		{
			"bufferView":53,
			"componentType":5126,
			"count":145,
			"type":"VEC2"
		},
		{
			"bufferView":54,
			"componentType":5123,
			"count":252,
			"type":"SCALAR"
		}
	],
	"bufferViews":[
		{
			"buffer":0,
			"byteLength":1584,
			"byteOffset":0,
			"target":34962
		},
		{
			"buffer":0,
			"byteLength":1584,
			"byteOffset":1584,
			"target":34962
		},
		{
			"buffer":0,
			"byteLength":1056,
			"byteOffset":3168,
			"target":34962
		},
		{
			"buffer":0,
			"byteLength":408,
			"byteOffset":4224,
			"target":34963
		},
		{
			"buffer":0,
			"byteLength":1728,
			"byteOffset":4632,
			"target":34962
		},
		{
			"buffer":0,
			"byteLength":1728,
			"byteOffset":6360,
			"target":34962
		},
		{
			"buffer":0,
			"byteLength":1152,
			"byteOffset":8088,
			"target":34962
		},
		{
			"buffer":0,
			"byteLength":2304,
			"byteOffset":9240,
			"target":34962
		},
		{
			"buffer":0,
			"byteLength":432,
			"byteOffset":11544,
			"target":34963
		},
		{
			"buffer":0,
			"byteLength":432,
			"byteOffset":11976,
			"target":34962
		},
		{
			"buffer":0,
			"byteLength":432,
			"byteOffset":12408,
			"target":34962
		},
		{
			"buffer":0,
			"byteLength":288,
			"byteOffset":12840,
			"target":34962
		},
		{
			"buffer":0,
			"byteLength":120,
			"byteOffset":13128,
			"target":34963
		},
		{
			"buffer":0,
			"byteLength":480,
			"byteOffset":13248,
			"target":34962
		},
		{
			"buffer":0,
			"byteLength":480,
			"byteOffset":13728,
			"target":34962
		},
		{
			"buffer":0,
			"byteLength":320,
			"byteOffset":14208,
			"target":34962
		},
		{
			"buffer":0,
			"byteLength":640,
			"byteOffset":14528,
			"target":34962
		},
		{
			"buffer":0,
			"byteLength":120,
			"byteOffset":15168,
			"target":34963
		},
		{
			"buffer":0,
			"byteLength":288,
			"byteOffset":15288,
			"target":34962
		},
		{
			"buffer":0,
			"byteLength":288,
			"byteOffset":15576,
			"target":34962
		},
		{
			"buffer":0,
			"byteLength":192,
			"byteOffset":15864,
			"target":34962
		},
		{
			"buffer":0,
			"byteLength":384,
			"byteOffset":16056,
			"target":34962
		},
		{
			"buffer":0,
			"byteLength":72,
			"byteOffset":16440,
			"target":34963
		},
		{
			"buffer":0,
			"byteLength":288,
			"byteOffset":16512,
			"target":34962
		},
		{
			"buffer":0,
			"byteLength":288,
			"byteOffset":16800,
			"target":34962
		},
		{
			"buffer":0,
			"byteLength":192,
			"byteOffset":17088,
			"target":34962
		},
		{
			"buffer":0,
			"byteLength":384,
			"byteOffset":17280,
			"target":34962
		},
		{
			"buffer":0,
			"byteLength":288,
			"byteOffset":17664,
			"target":34962
		},
		{
			"buffer":0,
			"byteLength":288,
			"byteOffset":17952,
			"target":34962
		},
		{
			"buffer":0,
			"byteLength":192,
			"byteOffset":18240,
			"target":34962
		},
		{
			"buffer":0,
			"byteLength":384,
			"byteOffset":18432,
			"target":34962
		},
		{
			"buffer":0,
			"byteLength":288,
			"byteOffset":18816,
			"target":34962
		},
		{
			"buffer":0,
			"byteLength":288,
			"byteOffset":19104,
			"target":34962
		},
		{
			"buffer":0,
			"byteLength":192,
			"byteOffset":19392,
			"target":34962
		},
		{
			"buffer":0,
			"byteLength":384,
			"byteOffset":19584,
			"target":34962
		},
		{
			"buffer":0,
			"byteLength":288,
			"byteOffset":19968,
			"target":34962
		},
		{
			"buffer":0,
			"byteLength":288,
			"byteOffset":20256,
			"target":34962
		},
		{
			"buffer":0,
			"byteLength":192,
			"byteOffset":20544,
			"target":34962
		},
		{
			"buffer":0,
			"byteLength":384,
			"byteOffset":20736,
			"target":34962
		},
		{
			"buffer":0,
			"byteLength":288,
			"byteOffset":21120,
			"target":34962
		},
		{
			"buffer":0,
			"byteLength":288,
			"byteOffset":21408,
			"target":34962
		},
		{
			"buffer":0,
			"byteLength":192,
			"byteOffset":21696,
			"target":34962
		},
		{
			"buffer":0,
			"byteLength":384,
			"byteOffset":21888,
			"target":34962
		},
		{
			"buffer":0,
			"byteLength":6072,
			"byteOffset":22272,
			"target":34962
		},
		{
			"buffer":0,
			"byteLength":6072,
			"byteOffset":28344,
			"target":34962
		},
		{
			"buffer":0,
			"byteLength":4048,
			"byteOffset":34416,
			"target":34962
		},
		{
			"buffer":0,
			"byteLength":1608,
			"byteOffset":38464,
			"target":34963
		},
		{
			"buffer":0,
			"byteLength":2352,
			"byteOffset":40072,
			"target":34962
		},
		{
			"buffer":0,
			"byteLength":2352,
			"byteOffset":42424,
			"target":34962
		},
		{
			"buffer":0,
			"byteLength":1568,
			"byteOffset":44776,
			"target":34962
		},
		{
			"buffer":0,
			"byteLength":600,
			"byteOffset":46344,
			"target":34963
		},
		{
			"buffer":0,
			"byteLength":1740,
			"byteOffset":46944,
			"target":34962
		},
		{
			"buffer":0,
			"byteLength":1740,
			"byteOffset":48684,
			"target":34962
		},
		{
			"buffer":0,
			"byteLength":1160,
			"byteOffset":50424,
			"target":34962
		},
		{
			"buffer":0,
			"byteLength":504,
			"byteOffset":51584,
			"target":34963
		}
	],
	"buffers":[
		{
			"byteLength":52088,
			"uri":"Novalver-457db983a1fe3fdedbe0181367dd3d7b.bin"
		}
	]
}
