{
	"asset":{
		"generator":"Khronos glTF Blender I/O v4.0.44",
		"version":"2.0"
	},
	"extensionsUsed":[
		"KHR_materials_unlit"
	],
	"scene":0,
	"scenes":[
		{
			"name":"Scene",
			"nodes":[
				6
			]
		}
	],
	"nodes":[
		{
			"mesh":0,
			"name":"SmallRing",
			"rotation":[
				0,
				-1,
				0,
				7.549790836947068e-08
			],
			"translation":[
				0,
				0,
				0.028489530086517334
			]
		},
		{
			"children":[
				0
			],
			"mesh":1,
			"name":"BigRing",
			"rotation":[
				0,
				-1,
				0,
				7.549790126404332e-08
			],
			"translation":[
				0,
				0.037165094166994095,
				0.3052457869052887
			]
		},
		{
			"mesh":2,
			"name":"Cube",
			"translation":[
				0,
				0.005811607465147972,
				0.015820398926734924
			]
		},
		{
			"mesh":3,
			"name":"Fuse.001",
			"rotation":[
				0,
				1,
				0,
				4.3303820973505935e-08
			],
			"scale":[
				0.8751048445701599,
				0.8751049041748047,
				0.8751049041748047
			]
		},
		{
			"children":[
				3
			],
			"mesh":4,
			"name":"Fuse",
			"rotation":[
				0,
				0.9238795638084412,
				-0.3826833963394165,
				6.975097477379677e-08
			],
			"translation":[
				0,
				0.05849491059780121,
				0.11423473060131073
			]
		},
		{
			"mesh":5,
			"name":"Pump",
			"rotation":[
				0,
				-1,
				0,
				7.549790126404332e-08
			],
			"translation":[
				0,
				0.00980162713676691,
				0.23476533591747284
			]
		},
		{
			"children":[
				1,
				2,
				4,
				5
			],
			"mesh":6,
			"name":"Body",
			"rotation":[
				0,
				-1,
				0,
				7.549790126404332e-08
			]
		}
	],
	"materials":[
		{
			"doubleSided":true,
			"name":"Trim",
			"pbrMetallicRoughness":{
				"baseColorFactor":[
					0.801181435585022,
					0.33077898621559143,
					0,
					1
				],
				"roughnessFactor":0.23762330412864685
			}
		},
		{
			"doubleSided":true,
			"name":"Accent",
			"pbrMetallicRoughness":{
				"baseColorFactor":[
					0.11972691118717194,
					0.11972691118717194,
					0.11972691118717194,
					1
				],
				"roughnessFactor":0.5905511379241943
			}
		},
		{
			"doubleSided":true,
			"emissiveFactor":[
				1,
				0,
				0
			],
			"name":"FuseEmission",
			"pbrMetallicRoughness":{
				"baseColorFactor":[
					0.8005210161209106,
					0,
					0.014114323072135448,
					1
				],
				"metallicFactor":0
			}
		},
		{
			"extensions":{
				"KHR_materials_unlit":{}
			},
			"name":"Hole.001",
			"pbrMetallicRoughness":{
				"baseColorFactor":[
					1,
					0.36098381876945496,
					0.4375039339065552,
					1
				],
				"metallicFactor":0,
				"roughnessFactor":0.9
			}
		},
		{
			"doubleSided":true,
			"name":"Grip",
			"pbrMetallicRoughness":{
				"baseColorFactor":[
					0.25853320956230164,
					0.071839340031147,
					0.06897550821304321,
					1
				],
				"metallicFactor":0,
				"roughnessFactor":0.6692913174629211
			}
		},
		{
			"doubleSided":true,
			"name":"Metal",
			"pbrMetallicRoughness":{
				"roughnessFactor":0.5433070659637451
			}
		},
		{
			"extensions":{
				"KHR_materials_unlit":{}
			},
			"name":"Hole",
			"pbrMetallicRoughness":{
				"baseColorFactor":[
					0,
					0,
					0,
					1
				],
				"metallicFactor":0,
				"roughnessFactor":0.9
			}
		}
	],
	"meshes":[
		{
			"name":"Circle.001",
			"primitives":[
				{
					"attributes":{
						"POSITION":0,
						"NORMAL":1,
						"TEXCOORD_0":2,
						"TANGENT":3
					},
					"indices":4,
					"material":0
				}
			]
		},
		{
			"name":"Circle",
			"primitives":[
				{
					"attributes":{
						"POSITION":5,
						"NORMAL":6,
						"TEXCOORD_0":7,
						"TANGENT":8
					},
					"indices":9,
					"material":0
				}
			]
		},
		{
			"name":"Cube.007",
			"primitives":[
				{
					"attributes":{
						"POSITION":10,
						"NORMAL":11,
						"TEXCOORD_0":12,
						"TANGENT":13
					},
					"indices":14,
					"material":1
				}
			]
		},
		{
			"name":"Cube.003",
			"primitives":[
				{
					"attributes":{
						"POSITION":15,
						"NORMAL":16,
						"TEXCOORD_0":17,
						"TANGENT":18
					},
					"indices":19,
					"material":2
				}
			]
		},
		{
			"name":"Cube.002",
			"primitives":[
				{
					"attributes":{
						"POSITION":20,
						"NORMAL":21,
						"TEXCOORD_0":22,
						"TANGENT":23
					},
					"indices":24,
					"material":3
				},
				{
					"attributes":{
						"POSITION":25,
						"NORMAL":26,
						"TEXCOORD_0":27,
						"TANGENT":28
					},
					"indices":29,
					"material":0
				}
			]
		},
		{
			"name":"Cylinder.007",
			"primitives":[
				{
					"attributes":{
						"POSITION":30,
						"NORMAL":31,
						"TEXCOORD_0":32,
						"TANGENT":33
					},
					"indices":34,
					"material":4
				}
			]
		},
		{
			"name":"Cube",
			"primitives":[
				{
					"attributes":{
						"POSITION":35,
						"NORMAL":36,
						"TEXCOORD_0":37
					},
					"indices":38,
					"material":5
				},
				{
					"attributes":{
						"POSITION":39,
						"NORMAL":40,
						"TEXCOORD_0":41
					},
					"indices":42,
					"material":1
				},
				{
					"attributes":{
						"POSITION":43,
						"NORMAL":44,
						"TEXCOORD_0":45
					},
					"indices":46,
					"material":4
				},
				{
					"attributes":{
						"POSITION":47,
						"NORMAL":48,
						"TEXCOORD_0":49
					},
					"indices":50,
					"material":6
				},
				{
					"attributes":{
						"POSITION":51,
						"NORMAL":52,
						"TEXCOORD_0":53
					},
					"indices":54,
					"material":0
				}
			]
		}
	],
	"accessors":[
		{
			"bufferView":0,
			"componentType":5126,
			"count":346,
			"max":[
				0.033854611217975616,
				0.033854614943265915,
				0.005393361207097769
			],
			"min":[
				-0.033854611217975616,
				-0.03385460749268532,
				-0.005393363535404205
			],
			"type":"VEC3"
		},
		{
			"bufferView":1,
			"componentType":5126,
			"count":346,
			"type":"VEC3"
		},
		{
			"bufferView":2,
			"componentType":5126,
			"count":346,
			"type":"VEC2"
		},
		{
			"bufferView":3,
			"componentType":5126,
			"count":346,
			"type":"VEC4"
		},
		{
			"bufferView":4,
			"componentType":5123,
			"count":576,
			"type":"SCALAR"
		},
		{
			"bufferView":5,
			"componentType":5126,
			"count":192,
			"max":[
				0.04431099072098732,
				0.04431099444627762,
				0.0060041132383048534
			],
			"min":[
				-0.04431099444627762,
				-0.044310979545116425,
				-0.0060041132383048534
			],
			"type":"VEC3"
		},
		{
			"bufferView":6,
			"componentType":5126,
			"count":192,
			"type":"VEC3"
		},
		{
			"bufferView":7,
			"componentType":5126,
			"count":192,
			"type":"VEC2"
		},
		{
			"bufferView":8,
			"componentType":5126,
			"count":192,
			"type":"VEC4"
		},
		{
			"bufferView":9,
			"componentType":5123,
			"count":288,
			"type":"SCALAR"
		},
		{
			"bufferView":10,
			"componentType":5126,
			"count":40,
			"max":[
				0.003911690786480904,
				0.008485530503094196,
				0.012148440815508366
			],
			"min":[
				-0.003911690786480904,
				-0.01318066380918026,
				-0.006408467888832092
			],
			"type":"VEC3"
		},
		{
			"bufferView":11,
			"componentType":5126,
			"count":40,
			"type":"VEC3"
		},
		{
			"bufferView":12,
			"componentType":5126,
			"count":40,
			"type":"VEC2"
		},
		{
			"bufferView":13,
			"componentType":5126,
			"count":40,
			"type":"VEC4"
		},
		{
			"bufferView":14,
			"componentType":5123,
			"count":60,
			"type":"SCALAR"
		},
		{
			"bufferView":15,
			"componentType":5126,
			"count":96,
			"max":[
				0.018856100738048553,
				0.01053495891392231,
				0.005012009292840958
			],
			"min":[
				-0.018856100738048553,
				-0.013961993157863617,
				-0.008439048193395138
			],
			"type":"VEC3"
		},
		{
			"bufferView":16,
			"componentType":5126,
			"count":96,
			"type":"VEC3"
		},
		{
			"bufferView":17,
			"componentType":5126,
			"count":96,
			"type":"VEC2"
		},
		{
			"bufferView":18,
			"componentType":5126,
			"count":96,
			"type":"VEC4"
		},
		{
			"bufferView":19,
			"componentType":5123,
			"count":144,
			"type":"SCALAR"
		},
		{
			"bufferView":20,
			"componentType":5126,
			"count":64,
			"max":[
				0.01669282466173172,
				0.007128915749490261,
				0.007696212735027075
			],
			"min":[
				-0.01669282466173172,
				-0.003682572627440095,
				-0.004799587186425924
			],
			"type":"VEC3"
		},
		{
			"bufferView":21,
			"componentType":5126,
			"count":64,
			"type":"VEC3"
		},
		{
			"bufferView":22,
			"componentType":5126,
			"count":64,
			"type":"VEC2"
		},
		{
			"bufferView":23,
			"componentType":5126,
			"count":64,
			"type":"VEC4"
		},
		{
			"bufferView":24,
			"componentType":5123,
			"count":96,
			"type":"SCALAR"
		},
		{
			"bufferView":25,
			"componentType":5126,
			"count":232,
			"max":[
				0.01791626214981079,
				0.011954445391893387,
				0.008919649757444859
			],
			"min":[
				-0.01791626214981079,
				-0.012017297558486462,
				-0.006023024674504995
			],
			"type":"VEC3"
		},
		{
			"bufferView":26,
			"componentType":5126,
			"count":232,
			"type":"VEC3"
		},
		{
			"bufferView":27,
			"componentType":5126,
			"count":232,
			"type":"VEC2"
		},
		{
			"bufferView":28,
			"componentType":5126,
			"count":232,
			"type":"VEC4"
		},
		{
			"bufferView":29,
			"componentType":5123,
			"count":432,
			"type":"SCALAR"
		},
		{
			"bufferView":30,
			"componentType":5126,
			"count":264,
			"max":[
				0.015604489482939243,
				0.016682744026184082,
				0.027978112921118736
			],
			"min":[
				-0.015604489482939243,
				-0.007478039711713791,
				-0.02797812595963478
			],
			"type":"VEC3"
		},
		{
			"bufferView":31,
			"componentType":5126,
			"count":264,
			"type":"VEC3"
		},
		{
			"bufferView":32,
			"componentType":5126,
			"count":264,
			"type":"VEC2"
		},
		{
			"bufferView":33,
			"componentType":5126,
			"count":264,
			"type":"VEC4"
		},
		{
			"bufferView":34,
			"componentType":5123,
			"count":492,
			"type":"SCALAR"
		},
		{
			"bufferView":35,
			"componentType":5126,
			"count":356,
			"max":[
				0.017719974741339684,
				0.055894844233989716,
				0.3279866576194763
			],
			"min":[
				-0.017719974741339684,
				0.0032943866681307554,
				-0.014134417288005352
			],
			"type":"VEC3"
		},
		{
			"bufferView":36,
			"componentType":5126,
			"count":356,
			"type":"VEC3"
		},
		{
			"bufferView":37,
			"componentType":5126,
			"count":356,
			"type":"VEC2"
		},
		{
			"bufferView":38,
			"componentType":5123,
			"count":564,
			"type":"SCALAR"
		},
		{
			"bufferView":39,
			"componentType":5126,
			"count":408,
			"max":[
				0.02343849651515484,
				0.05905160307884216,
				0.26471108198165894
			],
			"min":[
				-0.02343849651515484,
				-0.014281155541539192,
				-0.00727590499445796
			],
			"type":"VEC3"
		},
		{
			"bufferView":40,
			"componentType":5126,
			"count":408,
			"type":"VEC3"
		},
		{
			"bufferView":41,
			"componentType":5126,
			"count":408,
			"type":"VEC2"
		},
		{
			"bufferView":42,
			"componentType":5123,
			"count":654,
			"type":"SCALAR"
		},
		{
			"bufferView":43,
			"componentType":5126,
			"count":240,
			"max":[
				0.014270438812673092,
				0.037858471274375916,
				0.0017596700927242637
			],
			"min":[
				-0.014270438812673092,
				-0.056963883340358734,
				-0.08968266099691391
			],
			"type":"VEC3"
		},
		{
			"bufferView":44,
			"componentType":5126,
			"count":240,
			"type":"VEC3"
		},
		{
			"bufferView":45,
			"componentType":5126,
			"count":240,
			"type":"VEC2"
		},
		{
			"bufferView":46,
			"componentType":5123,
			"count":360,
			"type":"SCALAR"
		},
		{
			"bufferView":47,
			"componentType":5126,
			"count":16,
			"max":[
				0.015289749950170517,
				0.04744698852300644,
				0.32345283031463623
			],
			"min":[
				-0.015289749950170517,
				0.03213197737932205,
				0.32341229915618896
			],
			"type":"VEC3"
		},
		{
			"bufferView":48,
			"componentType":5126,
			"count":16,
			"type":"VEC3"
		},
		{
			"bufferView":49,
			"componentType":5126,
			"count":16,
			"type":"VEC2"
		},
		{
			"bufferView":50,
			"componentType":5123,
			"count":24,
			"type":"SCALAR"
		},
		{
			"bufferView":51,
			"componentType":5126,
			"count":996,
			"max":[
				0.024625493213534355,
				0.0601862408220768,
				0.32877328991889954
			],
			"min":[
				-0.024625493213534355,
				-0.01474034134298563,
				-0.015745963901281357
			],
			"type":"VEC3"
		},
		{
			"bufferView":52,
			"componentType":5126,
			"count":996,
			"type":"VEC3"
		},
		{
			"bufferView":53,
			"componentType":5126,
			"count":996,
			"type":"VEC2"
		},
		{
			"bufferView":54,
			"componentType":5123,
			"count":1476,
			"type":"SCALAR"
		}
	],
	"bufferViews":[
		{
			"buffer":0,
			"byteLength":4152,
			"byteOffset":0,
			"target":34962
		},
		{
			"buffer":0,
			"byteLength":4152,
			"byteOffset":4152,
			"target":34962
		},
		{
			"buffer":0,
			"byteLength":2768,
			"byteOffset":8304,
			"target":34962
		},
		{
			"buffer":0,
			"byteLength":5536,
			"byteOffset":11072,
			"target":34962
		},
		{
			"buffer":0,
			"byteLength":1152,
			"byteOffset":16608,
			"target":34963
		},
		{
			"buffer":0,
			"byteLength":2304,
			"byteOffset":17760,
			"target":34962
		},
		{
			"buffer":0,
			"byteLength":2304,
			"byteOffset":20064,
			"target":34962
		},
		{
			"buffer":0,
			"byteLength":1536,
			"byteOffset":22368,
			"target":34962
		},
		{
			"buffer":0,
			"byteLength":3072,
			"byteOffset":23904,
			"target":34962
		},
		{
			"buffer":0,
			"byteLength":576,
			"byteOffset":26976,
			"target":34963
		},
		{
			"buffer":0,
			"byteLength":480,
			"byteOffset":27552,
			"target":34962
		},
		{
			"buffer":0,
			"byteLength":480,
			"byteOffset":28032,
			"target":34962
		},
		{
			"buffer":0,
			"byteLength":320,
			"byteOffset":28512,
			"target":34962
		},
		{
			"buffer":0,
			"byteLength":640,
			"byteOffset":28832,
			"target":34962
		},
		{
			"buffer":0,
			"byteLength":120,
			"byteOffset":29472,
			"target":34963
		},
		{
			"buffer":0,
			"byteLength":1152,
			"byteOffset":29592,
			"target":34962
		},
		{
			"buffer":0,
			"byteLength":1152,
			"byteOffset":30744,
			"target":34962
		},
		{
			"buffer":0,
			"byteLength":768,
			"byteOffset":31896,
			"target":34962
		},
		{
			"buffer":0,
			"byteLength":1536,
			"byteOffset":32664,
			"target":34962
		},
		{
			"buffer":0,
			"byteLength":288,
			"byteOffset":34200,
			"target":34963
		},
		{
			"buffer":0,
			"byteLength":768,
			"byteOffset":34488,
			"target":34962
		},
		{
			"buffer":0,
			"byteLength":768,
			"byteOffset":35256,
			"target":34962
		},
		{
			"buffer":0,
			"byteLength":512,
			"byteOffset":36024,
			"target":34962
		},
		{
			"buffer":0,
			"byteLength":1024,
			"byteOffset":36536,
			"target":34962
		},
		{
			"buffer":0,
			"byteLength":192,
			"byteOffset":37560,
			"target":34963
		},
		{
			"buffer":0,
			"byteLength":2784,
			"byteOffset":37752,
			"target":34962
		},
		{
			"buffer":0,
			"byteLength":2784,
			"byteOffset":40536,
			"target":34962
		},
		{
			"buffer":0,
			"byteLength":1856,
			"byteOffset":43320,
			"target":34962
		},
		{
			"buffer":0,
			"byteLength":3712,
			"byteOffset":45176,
			"target":34962
		},
		{
			"buffer":0,
			"byteLength":864,
			"byteOffset":48888,
			"target":34963
		},
		{
			"buffer":0,
			"byteLength":3168,
			"byteOffset":49752,
			"target":34962
		},
		{
			"buffer":0,
			"byteLength":3168,
			"byteOffset":52920,
			"target":34962
		},
		{
			"buffer":0,
			"byteLength":2112,
			"byteOffset":56088,
			"target":34962
		},
		{
			"buffer":0,
			"byteLength":4224,
			"byteOffset":58200,
			"target":34962
		},
		{
			"buffer":0,
			"byteLength":984,
			"byteOffset":62424,
			"target":34963
		},
		{
			"buffer":0,
			"byteLength":4272,
			"byteOffset":63408,
			"target":34962
		},
		{
			"buffer":0,
			"byteLength":4272,
			"byteOffset":67680,
			"target":34962
		},
		{
			"buffer":0,
			"byteLength":2848,
			"byteOffset":71952,
			"target":34962
		},
		{
			"buffer":0,
			"byteLength":1128,
			"byteOffset":74800,
			"target":34963
		},
		{
			"buffer":0,
			"byteLength":4896,
			"byteOffset":75928,
			"target":34962
		},
		{
			"buffer":0,
			"byteLength":4896,
			"byteOffset":80824,
			"target":34962
		},
		{
			"buffer":0,
			"byteLength":3264,
			"byteOffset":85720,
			"target":34962
		},
		{
			"buffer":0,
			"byteLength":1308,
			"byteOffset":88984,
			"target":34963
		},
		{
			"buffer":0,
			"byteLength":2880,
			"byteOffset":90292,
			"target":34962
		},
		{
			"buffer":0,
			"byteLength":2880,
			"byteOffset":93172,
			"target":34962
		},
		{
			"buffer":0,
			"byteLength":1920,
			"byteOffset":96052,
			"target":34962
		},
		{
			"buffer":0,
			"byteLength":720,
			"byteOffset":97972,
			"target":34963
		},
		{
			"buffer":0,
			"byteLength":192,
			"byteOffset":98692,
			"target":34962
		},
		{
			"buffer":0,
			"byteLength":192,
			"byteOffset":98884,
			"target":34962
		},
		{
			"buffer":0,
			"byteLength":128,
			"byteOffset":99076,
			"target":34962
		},
		{
			"buffer":0,
			"byteLength":48,
			"byteOffset":99204,
			"target":34963
		},
		{
			"buffer":0,
			"byteLength":11952,
			"byteOffset":99252,
			"target":34962
		},
		{
			"buffer":0,
			"byteLength":11952,
			"byteOffset":111204,
			"target":34962
		},
		{
			"buffer":0,
			"byteLength":7968,
			"byteOffset":123156,
			"target":34962
		},
		{
			"buffer":0,
			"byteLength":2952,
			"byteOffset":131124,
			"target":34963
		}
	],
	"buffers":[
		{
			"byteLength":134076,
			"uri":"Shotgun-ab2faa25dbd9a520d6a8d3b4ba1f5b0b.bin"
		}
	]
}
