{
	"asset":{
		"generator":"Khronos glTF Blender I/O v4.0.44",
		"version":"2.0"
	},
	"extensionsUsed":[
		"KHR_materials_unlit"
	],
	"scene":0,
	"scenes":[
		{
			"name":"Scene",
			"nodes":[
				6
			]
		}
	],
	"nodes":[
		{
			"mesh":0,
			"name":"SmallRing",
			"rotation":[
				0,
				-1,
				0,
				7.549790836947068e-08
			],
			"translation":[
				0,
				0,
				0.02848955988883972
			]
		},
		{
			"children":[
				0
			],
			"mesh":1,
			"name":"BigRing",
			"rotation":[
				0,
				-1,
				0,
				7.549790126404332e-08
			],
			"translation":[
				0,
				0.037165094166994095,
				0.28445589542388916
			]
		},
		{
			"mesh":2,
			"name":"Cube",
			"translation":[
				0,
				0.005811607465147972,
				0.015820398926734924
			]
		},
		{
			"mesh":3,
			"name":"Fuse.001",
			"rotation":[
				0,
				1,
				0,
				4.3303820973505935e-08
			],
			"scale":[
				0.8751048445701599,
				0.8751049041748047,
				0.8751049041748047
			]
		},
		{
			"children":[
				3
			],
			"mesh":4,
			"name":"Fuse",
			"rotation":[
				0,
				0.9238795638084412,
				-0.3826833963394165,
				6.975097477379677e-08
			],
			"translation":[
				0,
				0.05849491059780121,
				0.11423473060131073
			]
		},
		{
			"mesh":5,
			"name":"Pump",
			"rotation":[
				0,
				-1,
				0,
				7.549790126404332e-08
			],
			"translation":[
				0,
				0.00980162713676691,
				0.23476533591747284
			]
		},
		{
			"children":[
				1,
				2,
				4,
				5
			],
			"mesh":6,
			"name":"Body",
			"rotation":[
				0,
				-1,
				0,
				7.549790126404332e-08
			]
		}
	],
	"materials":[
		{
			"doubleSided":true,
			"emissiveFactor":[
				1,
				0,
				0
			],
			"name":"FuseEmission",
			"pbrMetallicRoughness":{
				"baseColorFactor":[
					0.8005210161209106,
					0,
					0.014114323072135448,
					1
				],
				"metallicFactor":0
			}
		},
		{
			"doubleSided":true,
			"name":"Accent",
			"pbrMetallicRoughness":{
				"baseColorFactor":[
					0.11972691118717194,
					0.11972691118717194,
					0.11972691118717194,
					1
				],
				"roughnessFactor":0.5905511379241943
			}
		},
		{
			"extensions":{
				"KHR_materials_unlit":{}
			},
			"name":"Hole.001",
			"pbrMetallicRoughness":{
				"baseColorFactor":[
					1,
					0.36098381876945496,
					0.4375039339065552,
					1
				],
				"metallicFactor":0,
				"roughnessFactor":0.9
			}
		},
		{
			"doubleSided":true,
			"name":"Grip",
			"pbrMetallicRoughness":{
				"baseColorFactor":[
					0.25853320956230164,
					0.071839340031147,
					0.06897550821304321,
					1
				],
				"metallicFactor":0,
				"roughnessFactor":0.6692913174629211
			}
		},
		{
			"doubleSided":true,
			"name":"Metal",
			"pbrMetallicRoughness":{
				"roughnessFactor":0.5433070659637451
			}
		},
		{
			"extensions":{
				"KHR_materials_unlit":{}
			},
			"name":"Hole",
			"pbrMetallicRoughness":{
				"baseColorFactor":[
					0,
					0,
					0,
					1
				],
				"metallicFactor":0,
				"roughnessFactor":0.9
			}
		}
	],
	"meshes":[
		{
			"name":"Circle.001",
			"primitives":[
				{
					"attributes":{
						"POSITION":0,
						"NORMAL":1,
						"TEXCOORD_0":2,
						"TANGENT":3
					},
					"indices":4,
					"material":0
				}
			]
		},
		{
			"name":"Circle",
			"primitives":[
				{
					"attributes":{
						"POSITION":5,
						"NORMAL":6,
						"TEXCOORD_0":7,
						"TANGENT":8
					},
					"indices":4,
					"material":0
				}
			]
		},
		{
			"name":"Cube.007",
			"primitives":[
				{
					"attributes":{
						"POSITION":9,
						"NORMAL":10,
						"TEXCOORD_0":11,
						"TANGENT":12
					},
					"indices":13,
					"material":1
				}
			]
		},
		{
			"name":"Cube.003",
			"primitives":[
				{
					"attributes":{
						"POSITION":14,
						"NORMAL":15,
						"TEXCOORD_0":16,
						"TANGENT":17
					},
					"indices":18,
					"material":0
				}
			]
		},
		{
			"name":"Cube.002",
			"primitives":[
				{
					"attributes":{
						"POSITION":19,
						"NORMAL":20,
						"TEXCOORD_0":21,
						"TANGENT":22
					},
					"indices":18,
					"material":2
				}
			]
		},
		{
			"name":"Cylinder.007",
			"primitives":[
				{
					"attributes":{
						"POSITION":23,
						"NORMAL":24,
						"TEXCOORD_0":25,
						"TANGENT":26
					},
					"indices":27,
					"material":3
				}
			]
		},
		{
			"name":"Cube",
			"primitives":[
				{
					"attributes":{
						"POSITION":28,
						"NORMAL":29,
						"TEXCOORD_0":30
					},
					"indices":31,
					"material":4
				},
				{
					"attributes":{
						"POSITION":32,
						"NORMAL":33,
						"TEXCOORD_0":34
					},
					"indices":35,
					"material":1
				},
				{
					"attributes":{
						"POSITION":36,
						"NORMAL":37,
						"TEXCOORD_0":38
					},
					"indices":39,
					"material":3
				},
				{
					"attributes":{
						"POSITION":40,
						"NORMAL":41,
						"TEXCOORD_0":42
					},
					"indices":43,
					"material":5
				}
			]
		}
	],
	"accessors":[
		{
			"bufferView":0,
			"componentType":5126,
			"count":96,
			"max":[
				0.0338614322245121,
				0.0338614359498024,
				0.002113675931468606
			],
			"min":[
				-0.0338614322245121,
				-0.0338614284992218,
				-0.002113675931468606
			],
			"type":"VEC3"
		},
		{
			"bufferView":1,
			"componentType":5126,
			"count":96,
			"type":"VEC3"
		},
		{
			"bufferView":2,
			"componentType":5126,
			"count":96,
			"type":"VEC2"
		},
		{
			"bufferView":3,
			"componentType":5126,
			"count":96,
			"type":"VEC4"
		},
		{
			"bufferView":4,
			"componentType":5123,
			"count":192,
			"type":"SCALAR"
		},
		{
			"bufferView":5,
			"componentType":5126,
			"count":96,
			"max":[
				0.05000000074505806,
				0.05000000819563866,
				0.003121066838502884
			],
			"min":[
				-0.05000000074505806,
				-0.04999999329447746,
				-0.003121066838502884
			],
			"type":"VEC3"
		},
		{
			"bufferView":6,
			"componentType":5126,
			"count":96,
			"type":"VEC3"
		},
		{
			"bufferView":7,
			"componentType":5126,
			"count":96,
			"type":"VEC2"
		},
		{
			"bufferView":8,
			"componentType":5126,
			"count":96,
			"type":"VEC4"
		},
		{
			"bufferView":9,
			"componentType":5126,
			"count":40,
			"max":[
				0.003911690786480904,
				0.008485530503094196,
				0.012148440815508366
			],
			"min":[
				-0.003911690786480904,
				-0.01318066380918026,
				-0.006408467888832092
			],
			"type":"VEC3"
		},
		{
			"bufferView":10,
			"componentType":5126,
			"count":40,
			"type":"VEC3"
		},
		{
			"bufferView":11,
			"componentType":5126,
			"count":40,
			"type":"VEC2"
		},
		{
			"bufferView":12,
			"componentType":5126,
			"count":40,
			"type":"VEC4"
		},
		{
			"bufferView":13,
			"componentType":5123,
			"count":60,
			"type":"SCALAR"
		},
		{
			"bufferView":14,
			"componentType":5126,
			"count":24,
			"max":[
				0.008429452776908875,
				0.017718225717544556,
				0.008429450914263725
			],
			"min":[
				-0.008429452776908875,
				-0.017718225717544556,
				-0.008429450914263725
			],
			"type":"VEC3"
		},
		{
			"bufferView":15,
			"componentType":5126,
			"count":24,
			"type":"VEC3"
		},
		{
			"bufferView":16,
			"componentType":5126,
			"count":24,
			"type":"VEC2"
		},
		{
			"bufferView":17,
			"componentType":5126,
			"count":24,
			"type":"VEC4"
		},
		{
			"bufferView":18,
			"componentType":5123,
			"count":36,
			"type":"SCALAR"
		},
		{
			"bufferView":19,
			"componentType":5126,
			"count":24,
			"max":[
				0.008429452776908875,
				0.017718225717544556,
				0.008429450914263725
			],
			"min":[
				-0.008429452776908875,
				-0.017718225717544556,
				-0.008429450914263725
			],
			"type":"VEC3"
		},
		{
			"bufferView":20,
			"componentType":5126,
			"count":24,
			"type":"VEC3"
		},
		{
			"bufferView":21,
			"componentType":5126,
			"count":24,
			"type":"VEC2"
		},
		{
			"bufferView":22,
			"componentType":5126,
			"count":24,
			"type":"VEC4"
		},
		{
			"bufferView":23,
			"componentType":5126,
			"count":266,
			"max":[
				0.01560448482632637,
				0.016682744026184082,
				0.05395236611366272
			],
			"min":[
				-0.01560448482632637,
				-0.007478039711713791,
				-0.05395236611366272
			],
			"type":"VEC3"
		},
		{
			"bufferView":24,
			"componentType":5126,
			"count":266,
			"type":"VEC3"
		},
		{
			"bufferView":25,
			"componentType":5126,
			"count":266,
			"type":"VEC2"
		},
		{
			"bufferView":26,
			"componentType":5126,
			"count":266,
			"type":"VEC4"
		},
		{
			"bufferView":27,
			"componentType":5123,
			"count":492,
			"type":"SCALAR"
		},
		{
			"bufferView":28,
			"componentType":5126,
			"count":290,
			"max":[
				0.017719974741339684,
				0.055894844233989716,
				0.3279736638069153
			],
			"min":[
				-0.017719974741339684,
				0.003189148847013712,
				-0.014851102605462074
			],
			"type":"VEC3"
		},
		{
			"bufferView":29,
			"componentType":5126,
			"count":290,
			"type":"VEC3"
		},
		{
			"bufferView":30,
			"componentType":5126,
			"count":290,
			"type":"VEC2"
		},
		{
			"bufferView":31,
			"componentType":5123,
			"count":438,
			"type":"SCALAR"
		},
		{
			"bufferView":32,
			"componentType":5126,
			"count":340,
			"max":[
				0.023812633007764816,
				0.05910107493400574,
				0.2960873246192932
			],
			"min":[
				-0.023812633007764816,
				-0.014281155541539192,
				-0.00727590499445796
			],
			"type":"VEC3"
		},
		{
			"bufferView":33,
			"componentType":5126,
			"count":340,
			"type":"VEC3"
		},
		{
			"bufferView":34,
			"componentType":5126,
			"count":340,
			"type":"VEC2"
		},
		{
			"bufferView":35,
			"componentType":5123,
			"count":522,
			"type":"SCALAR"
		},
		{
			"bufferView":36,
			"componentType":5126,
			"count":240,
			"max":[
				0.014270438812673092,
				0.037858471274375916,
				0.0023655835539102554
			],
			"min":[
				-0.014270438812673092,
				-0.056963883340358734,
				-0.08968266099691391
			],
			"type":"VEC3"
		},
		{
			"bufferView":37,
			"componentType":5126,
			"count":240,
			"type":"VEC3"
		},
		{
			"bufferView":38,
			"componentType":5126,
			"count":240,
			"type":"VEC2"
		},
		{
			"bufferView":39,
			"componentType":5123,
			"count":360,
			"type":"SCALAR"
		},
		{
			"bufferView":40,
			"componentType":5126,
			"count":16,
			"max":[
				0.015289749950170517,
				0.04744698852300644,
				0.32345283031463623
			],
			"min":[
				-0.015289749950170517,
				0.03213197737932205,
				0.32341229915618896
			],
			"type":"VEC3"
		},
		{
			"bufferView":41,
			"componentType":5126,
			"count":16,
			"type":"VEC3"
		},
		{
			"bufferView":42,
			"componentType":5126,
			"count":16,
			"type":"VEC2"
		},
		{
			"bufferView":43,
			"componentType":5123,
			"count":24,
			"type":"SCALAR"
		}
	],
	"bufferViews":[
		{
			"buffer":0,
			"byteLength":1152,
			"byteOffset":0,
			"target":34962
		},
		{
			"buffer":0,
			"byteLength":1152,
			"byteOffset":1152,
			"target":34962
		},
		{
			"buffer":0,
			"byteLength":768,
			"byteOffset":2304,
			"target":34962
		},
		{
			"buffer":0,
			"byteLength":1536,
			"byteOffset":3072,
			"target":34962
		},
		{
			"buffer":0,
			"byteLength":384,
			"byteOffset":4608,
			"target":34963
		},
		{
			"buffer":0,
			"byteLength":1152,
			"byteOffset":4992,
			"target":34962
		},
		{
			"buffer":0,
			"byteLength":1152,
			"byteOffset":6144,
			"target":34962
		},
		{
			"buffer":0,
			"byteLength":768,
			"byteOffset":7296,
			"target":34962
		},
		{
			"buffer":0,
			"byteLength":1536,
			"byteOffset":8064,
			"target":34962
		},
		{
			"buffer":0,
			"byteLength":480,
			"byteOffset":9600,
			"target":34962
		},
		{
			"buffer":0,
			"byteLength":480,
			"byteOffset":10080,
			"target":34962
		},
		{
			"buffer":0,
			"byteLength":320,
			"byteOffset":10560,
			"target":34962
		},
		{
			"buffer":0,
			"byteLength":640,
			"byteOffset":10880,
			"target":34962
		},
		{
			"buffer":0,
			"byteLength":120,
			"byteOffset":11520,
			"target":34963
		},
		{
			"buffer":0,
			"byteLength":288,
			"byteOffset":11640,
			"target":34962
		},
		{
			"buffer":0,
			"byteLength":288,
			"byteOffset":11928,
			"target":34962
		},
		{
			"buffer":0,
			"byteLength":192,
			"byteOffset":12216,
			"target":34962
		},
		{
			"buffer":0,
			"byteLength":384,
			"byteOffset":12408,
			"target":34962
		},
		{
			"buffer":0,
			"byteLength":72,
			"byteOffset":12792,
			"target":34963
		},
		{
			"buffer":0,
			"byteLength":288,
			"byteOffset":12864,
			"target":34962
		},
		{
			"buffer":0,
			"byteLength":288,
			"byteOffset":13152,
			"target":34962
		},
		{
			"buffer":0,
			"byteLength":192,
			"byteOffset":13440,
			"target":34962
		},
		{
			"buffer":0,
			"byteLength":384,
			"byteOffset":13632,
			"target":34962
		},
		{
			"buffer":0,
			"byteLength":3192,
			"byteOffset":14016,
			"target":34962
		},
		{
			"buffer":0,
			"byteLength":3192,
			"byteOffset":17208,
			"target":34962
		},
		{
			"buffer":0,
			"byteLength":2128,
			"byteOffset":20400,
			"target":34962
		},
		{
			"buffer":0,
			"byteLength":4256,
			"byteOffset":22528,
			"target":34962
		},
		{
			"buffer":0,
			"byteLength":984,
			"byteOffset":26784,
			"target":34963
		},
		{
			"buffer":0,
			"byteLength":3480,
			"byteOffset":27768,
			"target":34962
		},
		{
			"buffer":0,
			"byteLength":3480,
			"byteOffset":31248,
			"target":34962
		},
		{
			"buffer":0,
			"byteLength":2320,
			"byteOffset":34728,
			"target":34962
		},
		{
			"buffer":0,
			"byteLength":876,
			"byteOffset":37048,
			"target":34963
		},
		{
			"buffer":0,
			"byteLength":4080,
			"byteOffset":37924,
			"target":34962
		},
		{
			"buffer":0,
			"byteLength":4080,
			"byteOffset":42004,
			"target":34962
		},
		{
			"buffer":0,
			"byteLength":2720,
			"byteOffset":46084,
			"target":34962
		},
		{
			"buffer":0,
			"byteLength":1044,
			"byteOffset":48804,
			"target":34963
		},
		{
			"buffer":0,
			"byteLength":2880,
			"byteOffset":49848,
			"target":34962
		},
		{
			"buffer":0,
			"byteLength":2880,
			"byteOffset":52728,
			"target":34962
		},
		{
			"buffer":0,
			"byteLength":1920,
			"byteOffset":55608,
			"target":34962
		},
		{
			"buffer":0,
			"byteLength":720,
			"byteOffset":57528,
			"target":34963
		},
		{
			"buffer":0,
			"byteLength":192,
			"byteOffset":58248,
			"target":34962
		},
		{
			"buffer":0,
			"byteLength":192,
			"byteOffset":58440,
			"target":34962
		},
		{
			"buffer":0,
			"byteLength":128,
			"byteOffset":58632,
			"target":34962
		},
		{
			"buffer":0,
			"byteLength":48,
			"byteOffset":58760,
			"target":34963
		}
	],
	"buffers":[
		{
			"byteLength":58808,
			"uri":"Shotgun-ab2faa25dbd9a520d6a8d3b4ba1f5b0b.bin"
		}
	]
}
